<svg width="166" height="98" viewBox="0 0 166 98" fill="none" xmlns="http://www.w3.org/2000/svg">
<path fill-rule="evenodd" clip-rule="evenodd" d="M122.538 26.0685C120.889 28.0654 118.957 30.0188 116.743 31.9288C114.529 33.8389 112.142 35.597 109.581 37.2032C107.019 38.8092 104.328 40.2637 101.507 41.5657C98.6849 42.8682 95.8414 43.9535 92.9766 44.8216C97.6647 47.3394 101.203 50.3778 103.59 53.9375C103.891 54.3857 104.175 54.8459 104.443 55.3175C105.066 55.5807 105.952 55.8915 106.147 55.8945C106.285 56.0355 106.113 55.9334 106.392 56.052C106.493 56.0953 106.592 56.1137 106.683 56.1399C106.912 56.2055 107.045 56.2585 107.292 56.3211L110.092 57.0731L110.204 57.0846C110.597 57.2147 111.409 57.4128 111.821 57.3503C111.9 57.3999 111.827 57.3747 111.996 57.4286C112.048 57.4453 112.143 57.467 112.181 57.4744C112.31 57.5004 112.461 57.5153 112.6 57.5424C115.009 57.7602 117.01 58.0265 119.517 57.9747C120.636 57.9514 121.824 57.8712 122.934 57.7534C123.654 57.677 125.646 57.2999 126.142 57.3246C126.277 57.2953 126.413 57.2742 126.542 57.2428C126.826 57.1736 126.698 57.2573 126.87 57.1107C127.224 57.1381 127.692 57.0077 128.028 56.9068C128.426 56.8408 128.818 56.7328 129.189 56.6365C129.584 56.5335 130.018 56.4776 130.238 56.2808C130.692 56.3098 131.617 55.9296 132.019 55.7715C132.478 55.6471 133.307 55.4614 133.634 55.1328C133.905 55.1295 134.139 55.0005 134.432 54.8795C134.612 54.8049 135.018 54.643 135.117 54.5614C135.352 54.4999 135.326 54.5027 135.541 54.3983C135.593 54.3731 135.718 54.3173 135.745 54.3011C136.03 54.1244 135.801 54.2935 135.925 54.1466L135.932 54.1778C136.24 54.1011 136.339 54.0288 136.626 53.8825C136.748 53.8203 136.815 53.7965 136.929 53.7337C137.127 53.625 137.078 53.6691 137.19 53.5296C137.496 53.4934 139.175 52.5576 139.382 52.3474C139.625 52.265 139.819 52.1759 140.019 51.9658C140.23 51.8886 140.49 51.733 140.587 51.5804C140.958 51.4876 142.126 50.6407 142.565 50.3271L142.857 50.0517C143.05 49.9726 143.548 49.6474 143.627 49.4427C144.005 49.3655 143.762 49.44 143.859 49.2871C144.113 49.1814 147.197 46.4776 147.365 46.3072L149.272 44.1092C149.399 43.9511 149.542 43.7806 149.653 43.6538L150.281 42.8458C150.372 42.6751 150.284 42.9244 150.341 42.7042C150.431 42.6335 150.381 42.6781 150.482 42.588C150.492 42.5787 150.587 42.4914 150.601 42.4757C150.739 42.3225 150.735 42.2875 150.829 42.0942C150.925 42.0657 150.871 42.1081 150.96 42.001C150.973 41.9851 151.065 41.8448 151.084 41.8177C151.202 41.6517 151.269 41.5854 151.335 41.4196C151.352 41.4068 151.376 41.3665 151.384 41.3805C151.421 41.4513 152.663 39.735 152.81 39.3581C152.935 39.3085 152.876 39.337 152.991 39.1657C153.092 39.0145 153.113 38.977 153.153 38.8356L153.252 38.752C153.303 38.6992 153.317 38.6981 153.365 38.6258C153.514 38.4037 153.427 38.5387 153.481 38.3285C153.648 38.2124 154.807 36.1807 154.831 35.878C154.847 35.864 154.87 35.8212 154.876 35.8343L155.376 34.7982C155.646 34.4319 156.727 31.9038 156.717 31.4203C156.892 31.2792 156.897 31.145 156.974 30.9125C157.043 30.7057 157.103 30.5324 157.169 30.3139C157.396 29.4611 158.413 26.4354 158.332 25.7732C158.378 25.7023 158.356 25.7655 158.417 25.6047C158.432 25.5628 158.475 25.4132 158.486 25.3631C158.528 25.1754 158.553 24.9818 158.583 24.7876C158.74 23.9172 159.205 21.1247 159.08 20.3273C159.254 20.1028 159.226 19.4797 159.242 19.1424C159.274 18.6792 159.428 18.0732 159.32 17.651L159.51 17.5822L159.446 20.6925C159.255 20.9835 159.298 21.7643 159.268 22.1815C159.216 22.5004 159.177 22.7204 159.218 23.0486C159.019 23.2973 159.003 24.0274 158.966 24.3856C158.829 25.1379 158.693 25.9151 158.549 26.6236C158.432 27.1959 158.049 28.434 158.078 28.8877C157.95 29.0211 157.992 28.9324 157.916 29.195C157.874 29.3413 157.856 29.4778 157.826 29.6296C157.695 29.932 156.997 32.1111 157.008 32.3499C156.924 32.4399 156.968 32.334 156.866 32.5512C156.779 32.7356 156.805 32.7235 156.762 32.8976C156.639 33.0787 156.411 33.6609 156.403 33.8698C156.339 33.9359 156.344 33.9032 156.28 34.0156C156.231 34.1021 156.247 34.0872 156.209 34.1808C156.149 34.3265 156.111 34.4213 156.055 34.5766C155.829 34.9939 155.672 35.432 155.457 35.8618L154.997 36.7662C154.871 37.0256 154.891 36.933 154.882 37.1472C154.663 37.3574 154.515 37.7592 154.41 38.0653C154.272 38.2281 154.057 38.6656 154.045 38.8857C153.954 38.9638 154.015 38.8422 153.903 39.0079C153.753 39.2295 153.875 38.9967 153.804 39.2575C153.602 39.3607 153.151 40.1015 153 40.3175L152.215 41.4758C152.183 41.5051 152.124 41.538 152.048 41.6394C151.919 41.8098 151.971 41.7333 151.886 41.9413C151.799 41.9714 151.849 41.9342 151.761 42.0363C151.76 42.0377 151.642 42.1991 151.631 42.2133C151.596 42.2618 151.548 42.3228 151.503 42.3939C151.358 42.6221 151.435 42.4539 151.396 42.6325C151.041 42.902 150.795 43.3612 150.53 43.6985C150.39 43.8782 150.267 44.0311 150.128 44.2075C149.945 44.4401 149.804 44.5509 149.7 44.8053C149.498 44.9217 149.484 44.9089 149.412 45.1396C149.236 45.2511 149.329 45.1939 149.189 45.3254C149.133 45.3785 149.015 45.4909 148.962 45.5469C148.797 45.7213 148.668 45.8815 148.561 46.0929C148.487 46.1329 148.533 46.1001 148.442 46.1776C148.047 46.5154 146.678 47.8614 146.547 48.1203C146.277 48.2436 146.426 48.1129 146.273 48.3563C146.044 48.4271 145.897 48.6174 145.787 48.804C145.771 48.8115 143.06 50.8747 142.861 51.1772C142.678 51.2112 142.821 51.1665 142.658 51.2527L139.513 53.3516C139.368 53.4491 139.402 53.4117 139.351 53.4866L138.551 53.9113C138.448 53.9915 138.489 53.9611 138.416 54.0411L138.132 54.148C137.92 54.2388 137.753 54.3477 137.562 54.4392C137.335 54.5484 137.147 54.6233 136.993 54.8158C136.845 54.8314 134.835 55.7523 134.715 55.8487C134.384 55.9423 133.826 56.0878 133.593 56.3378L133.423 56.3748L132.475 56.6726L131.144 57.1342C130.995 57.1761 130.893 57.205 130.731 57.2517C130.676 57.2676 130.539 57.3032 130.495 57.3227C130.247 57.4314 130.377 57.377 130.271 57.4641C130.09 57.4361 130.106 57.4032 129.927 57.5165L129.085 57.7739C128.729 57.7479 127.272 58.1501 126.781 58.2502C126.009 58.4074 125.241 58.521 124.455 58.6448C124.236 58.6725 124.019 58.6838 123.804 58.7148L123.432 58.8081C123.421 58.79 123.391 58.8218 123.372 58.8321C122.937 58.7389 122.408 58.9 121.948 58.9103L120.755 59.0133C120.739 59.0172 120.706 59.0539 120.695 59.0358C120.684 59.0177 120.655 59.0498 120.636 59.0602L117.728 59.0429L116.592 59.0152L115.412 58.9434L114.465 58.8435L113.101 58.7698C112.907 58.6216 112.395 58.6161 112.089 58.5733C111.296 58.4684 110.539 58.3103 109.769 58.147C109.201 58.0262 107.929 57.626 107.462 57.6415C107.256 57.4106 106.101 57.1533 105.761 57.0767C105.686 57.0399 105.487 56.9613 105.25 56.8725C106.621 59.7885 107.436 63.1077 107.692 66.8303L108.604 79.0719C109.559 90.0981 113.943 95.6111 121.757 95.6111C123.928 95.6111 126.098 95.1553 128.269 94.2438C130.439 93.332 132.306 92.0515 133.869 90.402C134.476 89.794 134.91 89.4902 135.171 89.4902C135.605 89.4902 135.822 89.7507 135.822 90.2716C135.822 91.2266 134.78 92.3553 132.697 93.6575C131.047 94.7861 129.202 95.6543 127.162 96.262C125.122 96.8699 122.973 97.1738 120.715 97.1738C106.217 97.1738 98.446 88.1881 97.4041 70.2162L96.7532 57.5839C96.5795 54.5454 95.9066 51.9408 94.7346 49.7702C93.5626 47.5998 92.1518 46.1673 90.5019 45.4728C89.3732 45.6462 88.505 45.7549 87.8974 45.7982C87.2897 45.8415 86.378 45.8634 85.1624 45.8634C82.2107 52.5486 79.1503 58.5607 75.9812 63.9003C72.8124 69.2396 69.6652 73.8195 66.5396 77.6394C65.0637 79.4626 63.6964 81.0253 62.4375 82.3278C61.1787 83.6299 59.9414 84.8022 58.7258 85.8438C57.5105 86.8857 56.2733 87.8191 55.0144 88.6438C53.7555 89.4686 52.3879 90.3152 50.9121 91.1834C42.9246 95.5244 35.1108 97.6948 27.4708 97.6948C23.6506 97.6948 20.1129 97.0655 16.8571 95.8066C13.6013 94.5478 10.7797 92.7894 8.39205 90.5322C6.00443 88.275 4.13796 85.6269 2.79215 82.5884C1.44644 79.5496 0.773682 76.2068 0.773682 72.5607C0.773682 67.7854 1.88073 63.2275 4.09434 58.8866C6.30824 54.5455 9.30387 50.7254 13.0804 47.4263C16.857 44.1272 21.2413 41.5227 26.2335 39.6126C31.2256 37.7025 36.5 36.7474 42.0564 36.7474C45.674 36.7474 48.8502 37.3822 51.5844 38.6521C51.6326 38.6545 51.6706 38.638 51.7726 38.5734L52.6112 38.317C52.9662 38.343 54.4166 37.9426 54.9061 37.8428C55.6751 37.6863 56.4398 37.5729 57.2219 37.4496C57.44 37.4222 57.6562 37.411 57.8701 37.3803L58.2411 37.2872C58.2515 37.3052 58.2816 37.2735 58.3002 37.2633C58.7339 37.3562 59.2602 37.1957 59.7194 37.1856L60.9073 37.0829C60.9229 37.079 60.9561 37.0426 60.967 37.0607C60.978 37.0785 61.0067 37.0464 61.0252 37.0363L63.9212 37.0533L65.0532 37.081L66.228 37.1525L67.171 37.2519L68.5291 37.3254C68.7223 37.4731 69.232 37.4789 69.5367 37.5213C70.3266 37.6257 71.0814 37.783 71.8473 37.9457C72.4133 38.066 73.6798 38.4645 74.1453 38.4492C74.3502 38.6791 75.5001 38.9353 75.8395 39.0117C76.0622 39.1205 77.3704 39.6002 77.5647 39.604C77.6304 39.6629 77.5978 39.664 77.7175 39.7196C77.7616 39.7399 77.7814 39.7489 77.7947 39.7539C79.3593 37.538 81.0772 35.2986 82.9485 33.0362C87.7236 27.2627 93.3672 21.5542 99.8785 15.9109C101.962 14.2614 103.59 12.9157 104.762 11.8738C105.934 10.8319 106.846 10.0506 107.497 9.52971C108.148 9.00875 108.56 8.6396 108.734 8.42275C108.908 8.20571 108.995 8.01037 108.995 7.83665L108.734 7.70656C108.04 7.70656 106.585 8.46628 104.372 9.98542C102.158 11.5049 99.4011 13.6538 96.102 16.4319L88.5484 22.9435C86.5515 24.6798 84.7282 25.9387 83.0787 26.7201C81.4291 27.5014 79.736 27.8921 77.9996 27.8921C76.0027 27.8921 74.3099 27.2408 72.9205 25.9386C71.5315 24.6362 70.837 23.1171 70.837 21.3807C70.837 19.9914 71.1408 18.6892 71.7485 17.4737C72.3564 16.2584 73.3981 14.7823 74.8742 13.0459C75.9161 11.8306 76.6323 10.8756 77.0228 10.1807C77.4135 9.48627 77.6088 8.7917 77.6088 8.09723C77.6088 7.40276 77.3267 6.79475 76.7623 6.27389C76.198 5.75314 75.5253 5.49256 74.7438 5.49256C73.0074 5.49256 70.8803 6.01332 68.3625 7.05522C65.8448 8.09713 63.3054 9.44284 60.7442 11.0924C58.1831 12.742 55.7304 14.6084 53.3863 16.6923C51.0423 18.7761 49.1755 20.8596 47.7865 22.9434C47.2654 23.6379 46.8313 23.9852 46.484 23.9852C46.1369 23.9852 45.9632 23.8116 45.9632 23.4643C45.9632 22.6828 46.6361 21.5108 47.9818 19.9482C49.3275 18.3855 51.1288 16.6055 53.3863 14.6086C57.3799 11.3094 61.3302 8.72656 65.2372 6.86009C69.144 4.99353 72.7472 4.06009 76.0463 4.06009C78.1301 4.06009 79.8445 4.58084 81.1902 5.62275C82.536 6.66466 83.2088 8.0537 83.2088 9.79008C83.2088 11.0057 82.9485 12.1994 82.4274 13.3717C81.9066 14.5437 80.9949 15.9979 79.6927 17.7343C78.3034 19.4706 77.3921 20.7727 76.9578 21.6409C76.5239 22.5091 76.3068 23.3341 76.3068 24.1154C76.3068 24.723 76.5454 25.2658 77.0229 25.7433C77.5005 26.2208 77.9996 26.4594 78.5207 26.4594C79.4756 26.4594 80.6911 26.134 82.1669 25.4827C83.643 24.8315 84.9452 24.0285 86.0739 23.0735L94.9299 15.6504C98.8365 12.3512 102.244 9.78997 105.153 7.96694C108.061 6.1437 110.253 5.23208 111.729 5.23208C112.337 5.23208 112.641 5.53589 112.641 6.14381C112.641 6.5778 112.25 7.14208 111.469 7.83665C108.864 10.0942 106.542 12.3081 104.502 14.4785C102.461 16.649 100.486 19.0364 98.5762 21.6409C96.6661 24.2455 94.7778 27.2191 92.9112 30.5618C91.0444 33.9043 88.939 37.8763 86.5946 42.4779C87.5498 42.6513 88.3094 42.825 88.8738 42.9986C89.4381 43.1723 90.1978 43.4761 91.153 43.9101C92.7159 43.6499 94.5608 42.9986 96.6879 41.9567C98.815 40.9148 101.05 39.6343 103.395 38.1149C105.739 36.5955 108.105 34.8591 110.492 32.9057C112.88 30.9523 115.159 28.8904 117.329 26.7199L126.966 16.4317C131.915 11.1356 136.647 7.12037 141.161 4.38541C145.676 1.65076 149.8 0.283325 153.533 0.283325C155.543 0.283325 156.658 0.661889 156.878 1.4192C156.997 1.50566 157.073 1.5699 157.305 1.87291L158.154 2.88109C158.23 3.17369 158.72 3.91359 158.897 4.30376C159.126 4.8089 159.272 5.28833 159.473 5.86392C159.488 5.93487 159.517 6.11128 159.542 6.18063C159.616 6.39267 159.592 6.30801 159.662 6.40328C159.602 6.79344 159.72 7.49042 159.63 8.10814C159.562 8.57665 159.288 9.31366 159.268 9.61276C159.222 9.66129 159.213 9.6704 159.155 9.75465L159.094 9.85413C159.04 9.94589 159.036 9.97791 158.989 10.0523C158.861 10.2545 158.789 10.3226 158.503 10.3272C157.887 9.91716 157.537 9.58124 157.099 8.99414C156.914 8.74657 156.736 8.48209 156.549 8.17618C156.441 7.99886 156.196 7.45589 156.078 7.36193L155.805 6.48554C155.797 6.46202 155.771 6.39327 155.761 6.37186C155.67 6.17623 155.735 6.30311 155.667 6.21575C155.689 5.96368 155.345 4.63829 155.309 3.48731C155.298 3.14017 155.274 2.72929 155.271 2.31231L154.966 2.23675C154.011 1.97617 153.229 1.84608 152.621 1.84608C151.059 1.84608 149.279 2.21504 147.282 2.95284C145.285 3.69094 143.332 4.6676 141.422 5.88323C140.12 6.83828 138.6 8.18389 136.864 9.92037C135.127 11.6567 133.044 13.9576 130.613 16.8223L122.538 26.0687L122.538 26.0685ZM52.9198 39.3426C53.1294 39.4626 53.3362 39.587 53.5401 39.7155C53.6113 39.6799 53.6738 39.6407 53.7223 39.5958C54.1979 39.6125 54.9127 39.2336 55.3277 39.464C55.5192 39.6401 55.4625 40.3596 55.3554 41.0335C55.4376 41.1017 55.5192 41.1705 55.6003 41.2404C56.1096 41.6795 56.581 42.1387 57.0155 42.6182C57.0375 42.5634 57.0608 42.5073 57.0895 42.4483C57.2046 42.2139 57.3539 41.9508 57.4876 41.749C57.7581 41.2232 58.3337 40.769 58.5322 40.3623C58.6398 40.3133 58.6187 40.3563 58.7445 40.2453C58.9045 40.104 58.8289 40.1531 58.8963 40.0481L59.9464 39.2547C60.0982 39.208 60.2171 39.1755 60.3442 39.1158C60.5346 39.0262 60.4946 39.057 60.6204 38.9162C60.953 38.928 61.3061 38.7718 61.6669 38.7064C62.0863 38.6302 62.3614 38.6116 62.7858 38.5817C63.1939 38.5894 63.6457 38.5609 63.915 38.8535C63.9745 39.2464 63.6699 39.9759 63.5747 40.3633C63.3016 40.9211 63.1095 41.4753 62.815 42.0488L62.7397 42.2012C62.6354 42.2461 62.7643 42.1438 62.6521 42.2686C62.6106 42.3143 62.5947 42.3415 62.56 42.3869L61.9069 43.1803L61.617 43.5218C61.3362 43.6642 61.0971 43.9184 60.8908 44.1752C60.7598 44.1752 60.7858 44.1379 60.7815 44.2525C60.7075 44.287 59.9272 44.8905 59.0303 45.459C60.2163 47.6628 60.8094 50.1852 60.8094 53.0262C60.8094 56.0647 60.093 59.0819 58.6608 62.0773C57.2282 65.0725 55.2528 67.5686 52.7351 69.5655C52.0407 70.0863 51.3677 70.5422 50.7166 70.9329C50.0653 71.3235 49.5662 71.5189 49.219 71.5189C48.7849 71.5189 48.5678 71.2584 48.5678 70.7375C48.5678 70.4771 48.6763 70.26 48.8933 70.0863C49.1104 69.9126 49.5661 69.6088 50.2607 69.1745C52.7788 67.6118 54.8623 65.333 56.5118 62.3376C58.1613 59.3421 58.9863 56.3253 58.9863 53.2866C58.9863 50.6483 58.4581 48.3243 57.4019 46.3139C57.231 46.3881 57.0753 46.46 56.994 46.515L56.0614 46.7268C56.0209 46.2682 56.191 46.0319 56.1313 45.5897C56.2178 45.479 56.1689 45.6173 56.2304 45.3778C56.2532 45.2894 56.2652 45.1456 56.2789 45.0501C56.2999 44.9033 56.3212 44.769 56.3431 44.6348C55.901 44.0425 55.4036 43.4833 54.8508 42.957C54.5607 43.6303 54.191 44.2354 54.1429 44.4488L53.935 44.6691C53.3594 45.3983 53.2093 45.6345 52.4852 46.3967L50.5532 48.086C50.2172 48.3076 49.8005 48.5838 49.4261 48.7104C49.3411 48.6418 49.3855 48.706 49.2877 48.5592L49.1263 47.8787C48.9855 47.3844 49.2283 48.1477 49.0833 47.7515C49.0762 47.7324 49.0627 47.7066 49.0567 47.6913C49.0506 47.6759 49.0402 47.6502 49.0287 47.6315C49.1123 47.3313 49.1232 46.7661 49.0336 46.4795C49.0462 46.4592 49.0602 46.4516 49.0649 46.4148L49.206 45.7586C49.2543 45.3534 49.3899 44.8589 49.5084 44.4786C49.6114 44.1477 49.9038 43.5174 49.9144 43.2277C50.1219 43.0801 50.3755 42.457 50.546 42.1836C50.7774 41.8113 51.0777 41.5326 51.2292 41.1661C51.3991 41.0568 51.5827 40.8661 51.7621 40.6981C51.33 40.4588 50.8826 40.2373 50.4202 40.0338C50.1325 40.1336 49.8621 40.2429 49.689 40.3111C49.2323 40.4349 48.406 40.6198 48.0813 40.9472C47.8104 40.9505 47.5782 41.0787 47.2862 41.1993C47.1067 41.2734 46.7026 41.4348 46.6041 41.5163C46.3699 41.5774 46.3955 41.5746 46.1822 41.6784C46.1304 41.7037 46.0055 41.7593 45.9792 41.7754C45.6948 41.9513 45.9224 41.7831 45.7997 41.9294L45.7925 41.8982C45.4857 41.9745 45.3866 42.0467 45.1014 42.1924C44.9801 42.2543 44.9131 42.2781 44.7998 42.3406C44.6024 42.4487 44.6513 42.405 44.5398 42.5436C44.2354 42.5798 42.563 43.5118 42.3574 43.7211C42.1147 43.8033 41.9218 43.8918 41.7226 44.1008C41.5124 44.178 41.2529 44.3331 41.1569 44.4851C40.7876 44.5772 39.6245 45.4208 39.1867 45.7331L38.8957 46.0074C38.7045 46.0862 38.2079 46.41 38.1295 46.6137C37.7531 46.6908 37.9949 46.6164 37.8986 46.7687C37.6452 46.8741 34.5743 49.5667 34.4066 49.7366L32.5075 51.9253C32.3812 52.0828 32.239 52.2524 32.1284 52.3787L31.5032 53.1836C31.412 53.3535 31.4993 53.1054 31.4434 53.3244C31.3538 53.3952 31.4034 53.3505 31.3029 53.4403C31.2928 53.4494 31.1982 53.5368 31.1843 53.5521C31.0462 53.7047 31.0506 53.7395 30.957 53.9323C30.8611 53.9605 30.9152 53.9183 30.8268 54.0246C30.814 54.0405 30.7216 54.1805 30.7027 54.2073C30.5857 54.3725 30.5186 54.4386 30.4529 54.6038C30.4367 54.6166 30.4121 54.6566 30.4047 54.6427C30.3679 54.5725 29.131 56.2815 28.9844 56.6568C28.8603 56.7062 28.9189 56.6777 28.8042 56.8484C28.7031 56.999 28.6822 57.0363 28.6431 57.1771L28.5444 57.2604C28.4935 57.313 28.4792 57.3141 28.4313 57.3861C28.2836 57.6074 28.3702 57.4729 28.3158 57.682C28.1492 57.7976 26.9955 59.821 26.9722 60.1227C26.9563 60.1364 26.933 60.1792 26.9264 60.1661L26.4291 61.1978C26.1598 61.5627 25.0834 64.0804 25.093 64.5617C24.919 64.7023 24.9144 64.836 24.8371 65.0676C24.7684 65.2736 24.7092 65.4461 24.6434 65.6637C24.4169 66.5127 23.4042 69.5261 23.4848 70.1855C23.4388 70.2565 23.4616 70.1932 23.4007 70.3535C23.3851 70.3951 23.3429 70.5439 23.3317 70.5939C23.2895 70.7809 23.2647 70.9736 23.2347 71.167C23.0788 72.0341 22.6158 74.8149 22.7397 75.6088C22.5662 75.8327 22.5953 76.4529 22.5786 76.7888C22.5471 77.2502 22.3934 77.8538 22.5008 78.2743L22.312 78.3428L22.3758 75.2451C22.5663 74.9555 22.5232 74.178 22.5532 73.7624C22.6044 73.4449 22.644 73.226 22.603 72.8989C22.8003 72.6512 22.8165 71.9241 22.854 71.5674C22.9902 70.8184 23.1257 70.0442 23.2692 69.3387C23.3854 68.7689 23.7669 67.5357 23.7384 67.0839C23.8651 66.9511 23.8237 67.0392 23.8992 66.7778C23.9414 66.6321 23.9586 66.4963 23.9892 66.3454C24.1191 66.0439 24.8144 63.8739 24.8037 63.636C24.8869 63.5465 24.8432 63.6519 24.9448 63.4355C25.0313 63.2519 25.0059 63.264 25.0489 63.0904C25.171 62.9102 25.3985 62.3305 25.4056 62.1224C25.4697 62.0565 25.4645 62.0892 25.5283 61.9774C25.5777 61.8911 25.5609 61.9058 25.5993 61.8128C25.6594 61.6676 25.6968 61.5733 25.7522 61.4185C25.9774 61.0029 26.1341 60.5668 26.3486 60.1386L26.8061 59.238C26.9313 58.9795 26.9119 59.0718 26.9212 58.8587C27.1388 58.6493 27.2865 58.2491 27.3902 57.9441C27.5283 57.7822 27.7426 57.3466 27.7539 57.1272C27.845 57.0492 27.784 57.1705 27.8958 57.0053C28.0456 56.7848 27.924 57.0168 27.994 56.7571C28.196 56.6542 28.6445 55.9164 28.7944 55.7013L29.5766 54.5479C29.6083 54.5186 29.6678 54.4859 29.7437 54.3849C29.8711 54.215 29.8193 54.2915 29.9042 54.0843C29.9908 54.0545 29.9413 54.0914 30.0286 53.9896C30.03 53.9883 30.1481 53.8277 30.1585 53.8134C30.193 53.7651 30.2407 53.7044 30.2859 53.6334C30.4308 53.4064 30.3535 53.5736 30.3922 53.3959C30.7458 53.1275 30.991 52.6705 31.2543 52.3342C31.3946 52.1553 31.5172 52.003 31.6553 51.8274C31.8376 51.5956 31.9779 51.4855 32.081 51.2321C32.2822 51.1162 32.297 51.1291 32.3679 50.8992C32.5432 50.7882 32.4512 50.8451 32.5901 50.7142C32.6462 50.6613 32.7632 50.5492 32.816 50.4934C32.9801 50.3197 33.1091 50.1605 33.2163 49.9495C33.2899 49.9098 33.2437 49.9424 33.3338 49.8655C33.7277 49.5287 35.0905 48.1885 35.2211 47.9308C35.4903 47.8078 35.3421 47.9379 35.4939 47.6954C35.7227 47.6252 35.8692 47.4355 35.9781 47.2497C35.9937 47.2426 38.6936 45.1876 38.8924 44.8865C39.0739 44.8525 38.9323 44.8972 39.0945 44.8111L42.2264 42.7211C42.3705 42.6239 42.3366 42.6613 42.3875 42.5863L43.1846 42.1638C43.287 42.0839 43.2457 42.114 43.3187 42.0343L43.6017 41.9278C43.8128 41.8373 43.9793 41.729 44.1688 41.6379C44.3954 41.5291 44.582 41.4546 44.736 41.2626C44.8828 41.2472 46.8847 40.3303 47.0044 40.2341C47.3343 40.1411 47.8896 39.9961 48.1216 39.7473L48.2909 39.7106L49.0098 39.4845C47.9674 39.1287 46.857 38.8536 45.6789 38.6597C45.9181 38.8726 46.2381 39.3322 46.3229 39.7796C46.0552 40.3968 45.2166 40.5641 44.5607 40.8968L43.4865 41.2048C42.3605 41.5138 40.8874 41.4414 39.6987 41.3708L39.3236 41.3497L37.8286 41.1741C37.6776 41.0533 37.8706 41.1585 37.6195 41.0746C37.6017 41.0686 37.4255 41.0264 37.3804 41.0163C37.1716 40.9699 37.0321 40.9404 36.808 40.8968C36.4946 40.7875 34.3482 40.1253 34.2555 40.1218C33.9972 39.7715 33.7662 40.0221 33.6079 39.5385C33.7215 39.4237 33.873 39.2996 34.0506 39.1716C32.0539 39.6684 30.0995 40.3792 28.1869 41.3053C24.0632 43.3021 20.4167 45.9719 17.2477 49.3144C14.0788 52.6571 11.5611 56.4989 9.69443 60.8399C7.82767 65.1809 6.89453 69.7389 6.89453 74.514C6.89453 81.199 8.78272 86.4518 12.5594 90.2717C16.3359 94.0918 21.5235 96.0019 28.1219 96.0019C32.81 96.0019 36.9775 95.0902 40.6237 93.2669C44.2702 91.4437 47.9168 88.4051 51.5632 84.151C52.4314 83.1091 53.3212 81.9587 54.233 80.6999C55.1445 79.441 56.1211 77.9432 57.163 76.2067C58.2049 74.4704 59.3769 72.4737 60.6794 70.2163C61.9815 67.959 63.4574 65.2677 65.1069 62.1423L71.6185 49.9007C73.1457 46.8941 74.9743 43.842 77.1048 40.7437C76.4877 40.4859 75.6443 40.1916 75.4547 40.1886C75.3166 40.0481 75.4887 40.1497 75.2111 40.0319C75.11 39.9889 75.0116 39.9703 74.9207 39.9442C74.6931 39.879 74.5598 39.8263 74.3147 39.7637L71.526 39.0147L71.4142 39.0034C71.0233 38.8739 70.2143 38.6766 69.8044 38.7388C69.7253 38.6895 69.7981 38.7144 69.6294 38.6608C69.5779 38.6441 69.4833 38.6226 69.4458 38.6152C69.317 38.5892 69.1669 38.5747 69.0283 38.5476C66.6292 38.3305 64.6363 38.0654 62.14 38.1172C61.0261 38.1402 59.8423 38.2202 58.737 38.3374C58.0198 38.4133 56.0366 38.789 55.5418 38.7646C55.4081 38.7937 55.2729 38.8148 55.1444 38.8459C54.8614 38.9147 54.9882 38.8314 54.8173 38.9774C54.4648 38.9503 53.9981 39.0799 53.6641 39.1807C53.4121 39.2223 53.1627 39.2807 52.92 39.3426H52.9198ZM73.2154 34.8666C73.0381 34.6764 73.0852 34.6745 72.9579 34.331C72.7294 33.7137 72.3496 33.2546 72.2201 32.9117C72.0173 32.8218 72.0214 32.7012 71.8325 32.5108C71.6363 32.313 71.581 32.2929 71.4809 32.0539L71.2289 31.7994C71.0149 31.723 71.022 31.6887 70.8429 31.5317C70.6627 31.3739 70.6192 31.4172 70.5227 31.2213L69.8693 30.8441C69.8566 30.8337 69.8376 30.8169 69.8261 30.8068C69.8141 30.7958 69.7935 30.7731 69.7839 30.7638C69.7738 30.7542 69.7492 30.7027 69.742 30.7164C69.7344 30.7306 69.7135 30.6835 69.6995 30.6667L69.4453 30.5558C69.1178 30.4282 68.5826 30.2281 68.3804 29.9769C68.1459 29.9679 66.4217 29.2983 65.8816 29.1518C64.8051 28.8597 64.0153 28.826 62.8698 28.6805C63.0164 29.1794 64.1706 31.0597 64.604 31.6416L64.8258 32.0728C64.9666 32.1667 64.9379 32.1265 65.0795 32.3025L66.5244 34.0332C67.0794 34.6612 68.2424 35.5675 68.4167 35.7972C68.6382 35.8527 68.5813 35.8677 68.7881 36.0072C68.9239 36.0986 68.95 36.0915 69.0968 36.2066C69.2428 36.2806 69.1377 36.2181 69.2574 36.3058C69.2687 36.314 69.2947 36.3225 69.3032 36.3505C69.3117 36.3787 69.332 36.3828 69.3468 36.3984C69.521 36.4135 70.3073 36.8231 70.5851 36.9365C71.0007 37.1063 71.5233 37.1978 71.9045 37.3589L73.3891 37.5425C73.3571 37.054 73.4875 36.6727 73.4183 36.071C73.3686 35.6412 73.2017 35.2428 73.2152 34.8667L73.2154 34.8666ZM63.3006 33.8236L62.9948 33.4714C62.0039 32.1455 61.6864 32.2105 60.8968 31.5556C60.8839 31.5452 60.862 31.5241 60.8518 31.5151L60.7625 31.428C60.6138 31.4049 59.7289 30.9622 59.4793 30.8598C59.0045 30.6649 58.584 30.5787 58.1081 30.4127L57.0506 30.1489C56.5887 30.2244 55.9779 30.07 55.4799 30.0327C54.9334 29.9914 54.2909 29.9999 53.7397 30.0163L53.0455 30.0579C52.3896 30.156 52.1985 30.0947 52.4313 30.6876C52.6658 30.8405 52.5376 30.6827 52.6576 30.9808C52.8975 31.0648 53.2463 31.484 53.3647 31.6656C53.5991 31.8067 53.6314 31.8247 53.7555 32.0724C53.9455 32.1592 54.103 32.3245 54.2652 32.5192C54.4301 32.7176 54.5739 32.8195 54.6942 32.9581C54.8337 32.9581 54.8116 32.9168 54.8042 33.0367C55.0853 33.1965 55.0478 33.2499 55.2874 33.4608C57.0342 35.0011 58.0417 35.1574 58.8322 35.6884C59.0532 35.7474 58.9315 35.687 59.1541 35.8012C59.4166 35.9358 59.2623 35.8663 59.3566 35.944C59.4867 35.9432 61.0058 36.3179 61.3844 36.3944L63.4271 36.4703C63.7658 36.3842 63.8699 36.3796 63.9487 36.0579C64.0216 35.7604 63.9592 35.4229 63.8835 35.1552C63.7577 34.71 63.3314 34.0457 63.3005 33.8235L63.3006 33.8236ZM53.7331 37.6868C53.8236 37.6172 53.7255 37.6742 53.8904 37.5955C53.9041 37.589 54.0381 37.5369 54.0594 37.5292L54.8978 37.164C54.8309 36.6486 54.4893 36.3098 54.3512 35.8737L53.1707 34.5945C52.8965 34.34 52.8759 34.4069 52.8313 34.2565C52.6236 34.1688 52.6844 34.2029 52.5948 34.083L52.499 34.0216C52.2722 33.9572 52.3231 33.9744 52.1073 33.844C52.1053 33.8429 51.9955 33.7719 51.9651 33.7498C51.8783 33.6865 51.88 33.689 51.8245 33.6313C51.6308 33.609 50.7418 33.1913 50.3774 33.0762C49.8038 32.8948 49.3336 32.8181 48.7052 32.7601C47.7279 32.689 46.9027 32.7378 45.9447 32.8266C45.3302 32.9313 44.7606 33.0066 44.1823 33.1724C43.7755 33.2888 42.8738 33.6788 42.6374 33.7072C42.5535 33.8047 42.6212 33.7874 42.4187 33.8535C42.5008 34.3288 42.6515 34.3066 42.954 34.5211C43.1792 34.6808 43.3501 34.8013 43.5814 34.9529C43.8761 35.1463 44.668 35.6024 44.8305 35.7581C45.0764 35.849 45.235 35.8942 45.3968 36.1033L45.8619 36.2825C46.0137 36.3291 46.1345 36.3731 46.2596 36.4384C46.3501 36.4853 46.3291 36.474 46.4054 36.5246C46.5068 36.5918 46.4748 36.5688 46.5429 36.6331C46.8926 36.6556 47.6011 37.0111 48.0424 37.1516C48.3986 37.265 49.2331 37.4448 49.5018 37.5683L50.3702 37.716C50.884 37.8124 51.5436 37.8798 52.0765 37.8749C52.6499 37.8697 53.3101 37.6724 53.7331 37.6867V37.6868ZM33.2984 47.2969L34.4034 46.9597C34.5938 46.8449 35.2748 46.6134 35.5584 46.4972C35.9622 46.3323 36.257 46.1087 36.606 45.9726C36.8616 45.7772 37.2129 45.5686 37.5087 45.3446C37.7022 45.1984 37.6978 45.2088 37.9181 45.0003C38.0824 44.8441 38.1492 44.8018 38.3517 44.7121C38.4366 44.5592 38.6873 44.3208 38.8232 44.1556C38.0712 43.5814 37.2189 42.9757 36.0315 42.7313C34.0456 42.3225 32.9631 42.8672 32.3034 42.8521C32.1409 43.0157 31.4749 43.2329 31.2003 43.3516C30.8032 43.5234 30.4469 43.743 30.072 43.8767C29.9983 43.9472 28.5648 44.8121 27.9959 45.2959C27.5948 45.637 26.3926 46.6465 26.3284 47.121C27.0254 47.6103 30.5161 47.5654 31.642 47.4942C32.1338 47.4631 32.9184 47.2608 33.2984 47.2968V47.2969ZM25.1484 55.1003C25.3876 54.8785 26.0292 54.7737 26.3962 54.6852C26.8062 54.5041 27.2136 54.3781 27.6522 54.1836C27.9193 54.0652 28.6464 53.6836 28.8464 53.6603C29.0089 53.4185 29.3889 53.2528 29.644 53.0696C30.8352 52.2144 31.219 51.3785 31.674 51.0542C31.7429 50.7345 32.0518 50.5893 32.094 50.1358C31.4373 49.8149 30.9544 49.5333 30.0837 49.3689C28.8975 49.1449 28.1726 49.5374 27.6109 49.5122C27.429 49.6879 26.8342 49.8748 26.5441 49.9371L26.3841 49.953C26.2545 50.1359 26.1881 50.1289 25.9723 50.2322C25.7455 50.3407 25.6808 50.3851 25.434 50.4577C25.4329 50.4593 23.6831 51.6234 23.1275 52.2321L21.341 54.4923C21.2725 54.6847 21.2911 54.6523 21.1758 54.8181C21.1467 54.8601 21.1111 54.9099 21.0761 54.9488C21.0095 55.0227 21.0081 55.0108 20.9342 55.0704L20.8238 55.5115C21.6035 55.5881 22.4024 55.5408 23.1569 55.4438C23.6741 55.3772 24.7368 55.074 25.1485 55.1002L25.1484 55.1003ZM66.0343 45.8757C66.1844 45.6959 66.3504 45.7016 66.6051 45.6094C66.881 45.5094 66.978 45.4431 67.266 45.3763C67.4137 45.2694 68.0052 45.0086 68.1918 44.9212C70.0063 44.0692 71.5372 42.6367 72.4492 40.8573C72.6567 40.4527 72.7642 40.3266 72.6608 39.9375C72.4621 39.8838 72.3978 39.9161 72.3004 39.7454L71.3744 39.586C71.3009 39.5728 71.1229 39.5545 71.0714 39.5427L70.8254 39.4564C70.5501 39.5307 70.0802 39.543 69.8249 39.463L69.3072 39.6002C69.0754 39.6408 68.9253 39.6791 68.6869 39.7137L68.4294 39.755L68.333 39.8334C68.0343 40.0249 68.4245 39.7925 68.2289 39.8931C68.1828 39.9167 68.1221 39.9367 68.0689 39.9578C67.8672 40.0386 67.8812 40.0367 67.6876 40.0926C67.6286 40.1576 66.8787 40.5787 66.6975 40.7055C65.1572 41.7838 64.6367 42.977 64.3463 43.2827C64.2623 43.5496 64.2112 43.6959 64.0088 43.8734C63.9918 44.0958 63.9222 44.2197 63.8002 44.3402L63.2565 45.4659C63.2244 45.8218 63.0751 45.8172 63.1058 46.3012C64.2965 46.4829 65.2225 45.8562 66.0345 45.8758L66.0343 45.8757ZM18.5103 64.2444L19.5302 63.8404C20.0187 63.7012 21.6189 62.9761 21.8603 62.9637C22.0548 62.7325 22.0925 62.7803 22.3447 62.6447C22.503 62.5599 22.674 62.4431 22.8148 62.3617C23.173 62.1546 23.3668 61.9775 23.6915 61.7667C24.0679 61.5323 24.3212 61.256 24.6346 60.929C24.831 60.724 25.3232 60.2356 25.5154 60.1C25.5983 59.8656 25.7583 59.7477 25.9095 59.5561C26.0495 59.3789 26.1506 59.2573 26.2688 59.0827C26.4386 58.8321 26.7019 58.226 26.9041 58.0373C26.8948 57.6466 27.1003 57.3918 26.8718 57.0266C26.2188 56.7346 23.9045 56.8949 23.288 57.1622C21.5615 57.9107 21.3088 58.4312 20.8218 58.7078L20.3911 59.0568L19.1385 60.6543C18.7262 61.2272 18.2533 62.2271 18.0963 62.431C18.0322 62.6633 17.9527 62.7981 17.8737 63.0181C17.8422 63.1052 17.8081 63.2222 17.7709 63.2926C17.6367 63.5451 17.6935 63.4181 17.6194 63.4981C17.6485 63.8126 17.4997 63.883 17.5701 64.3017C17.9142 64.4587 18.1701 64.2044 18.5104 64.2446L18.5103 64.2444ZM17.1837 72.9212C17.2626 72.7946 17.5908 72.6242 17.7963 72.5853C17.9475 72.3549 18.2568 72.1932 18.527 72.1102C18.5999 71.9856 19.7217 71.205 19.9579 71.0115C22.8331 68.656 22.6808 67.5955 23.243 66.8744L23.5741 65.7698L23.5019 64.7942C23.3844 64.495 22.1762 64.718 21.7074 64.6492C21.4964 64.8385 21.0446 64.9511 20.774 65.0931C20.4861 65.2437 20.1745 65.4692 19.852 65.575C19.7866 65.6851 19.8296 65.6444 19.6893 65.7476C19.4653 65.9131 19.6255 65.8173 19.4642 65.8602C19.2324 66.1467 19.1148 66.2766 18.8017 66.4075C18.7239 66.5727 18.6266 66.6256 18.477 66.8062C18.3324 66.981 18.3499 67.06 18.1696 67.102L17.4726 68.1088L17.4206 68.203L17.1231 68.8425C16.8291 69.4356 16.5825 70.0339 16.3899 70.6906C16.2573 71.1418 16.0053 72.5525 15.897 72.7881V73.4301C16.3238 73.4575 16.7668 73.0602 17.1835 72.921L17.1837 72.9212ZM38.0862 56.7087L39.5354 54.3707C39.5357 54.3674 40.4598 52.0357 40.5013 51.9645L40.5623 51.662C40.8414 50.7184 40.8379 49.5324 40.836 48.4832C40.8349 47.9466 40.8115 47.4512 40.6094 46.9972C40.4732 46.6912 40.2342 46.0393 39.9943 45.9052C39.9793 45.9192 39.9563 45.9608 39.9489 45.9466C39.9412 45.9326 39.9137 45.9783 39.9033 45.9868L39.0003 46.5025L38.9155 46.565L37.8744 47.4864C37.8143 47.6692 37.8253 47.7321 37.5963 47.8215C37.5233 48.1259 37.5007 48.0565 37.3267 48.3433C37.1988 48.5546 37.1574 48.6785 37.0613 48.9052C36.9684 49.1237 36.8818 49.2745 36.7917 49.4687C36.6522 49.7698 36.6785 49.8802 36.5287 50.055C36.5521 50.2345 36.49 53.1265 36.4648 53.2321L36.5336 53.4158C36.583 53.5974 36.5243 53.3505 36.5636 53.5527L36.7041 54.3863C36.8671 54.7595 37.0019 55.2074 37.1622 55.5987C37.3104 55.9601 37.5846 56.3927 37.6641 56.7232C37.7972 56.7932 37.7794 56.7814 37.9734 56.8219L38.0863 56.7087H38.0862ZM17.3917 81.722L17.7089 81.3996L18.4464 80.7477L18.6352 80.5494C18.7335 80.2587 19.3176 79.6987 19.5626 79.3976L20.4584 78.2176L20.731 77.7519C20.8244 77.5051 20.7217 77.6234 20.9232 77.4774C20.967 77.1842 21.334 76.5169 21.4655 76.1536C21.6066 75.7635 21.8028 75.1983 21.8765 74.7461L22.0176 74.1792C22.0217 74.1902 22.0351 74.1394 22.0466 74.121C21.9822 73.8194 22.0576 73.5063 22.0255 73.1554C21.9241 72.0428 21.3768 72.5359 20.7233 72.5186C20.3598 72.8754 19.158 72.9644 17.7793 74.9596C17.6506 75.1457 17.5667 75.304 17.4352 75.5251L17.1034 76.0617C17.0658 76.2796 16.7617 76.9129 16.6495 77.2332C16.4787 77.7207 16.4128 78.002 16.3072 78.494C16.1206 79.6778 15.8634 81.2687 16.224 82.3873C16.6706 82.3027 16.9834 81.8466 17.3917 81.7219V81.722ZM46.161 48.7646C46.2502 48.5414 46.3605 48.3729 46.4613 48.1684L46.7563 47.6786C46.7629 47.6914 46.7857 47.6487 46.8013 47.6346C46.8218 47.3586 47.0813 46.8735 47.1977 46.5596C47.3248 46.2169 47.4316 45.836 47.5007 45.4214C47.6259 44.6673 47.513 43.141 47.6281 42.6844C47.5432 42.5669 47.6344 42.777 47.5289 42.5108C47.4714 42.3647 47.4881 42.3812 47.4478 42.2228C46.6195 41.7987 46.4715 42.3297 45.786 42.3979C45.6153 42.6141 45.4986 42.6294 45.2505 42.7965C45.0061 42.9612 44.9672 43.0575 44.682 43.1628C44.6164 43.2746 44.6161 43.274 44.492 43.3981C44.368 43.5222 44.3686 43.5225 44.2568 43.588L43.1831 45.2959C43.1771 45.3257 43.1584 45.3304 43.1447 45.3466C43.1214 45.6035 42.8438 46.2038 42.756 46.5819C42.6538 47.0227 42.6045 47.5416 42.5713 48.0375C42.5017 49.078 42.5882 50.0832 42.7735 51.0567C42.8289 51.2531 42.882 51.4426 42.9497 51.629C42.9585 51.6531 43.0626 51.8837 43.0678 51.8902C43.21 52.0676 43.0173 51.944 43.2948 52.0583C43.44 51.8809 43.5589 51.8521 43.7167 51.7037C43.8912 51.5393 43.9529 51.4818 44.1087 51.3409C45.2204 50.3349 45.9626 48.9417 46.161 48.7645V48.7646ZM20.2173 88.4257C20.2869 88.1577 20.2776 88.2238 20.4168 87.9709C20.462 87.8891 20.4631 87.8608 20.5247 87.7758C20.6395 87.618 20.5913 87.6909 20.6959 87.6098L20.8168 87.3285C20.8942 87.1127 21.2032 86.4153 21.3713 86.2339C21.3841 85.9128 21.6306 85.414 21.7365 85.0506C21.8724 84.5835 21.9425 84.2753 22.0236 83.8065L22.0904 82.8079L22.0524 81.4885L21.8899 81.0839C21.8504 80.94 21.7998 80.7222 21.7461 80.6217C21.5346 80.2256 21.251 80.4173 20.8899 80.5138L20.4546 80.6988L19.7058 81.2417C19.6332 81.3776 19.169 81.9534 18.9779 82.0311C18.8802 82.2724 18.8198 82.3845 18.5958 82.5575C18.5756 82.6896 18.1945 83.372 18.081 83.5257C18.044 83.6769 18.0546 83.7079 17.9805 83.869C17.8791 84.0896 17.9248 83.9802 17.8408 84.0713C17.8569 84.3458 17.2581 86.5347 17.4864 88.5175C17.5361 88.9465 17.7525 89.4629 17.695 89.8541C17.8657 90.0695 17.8212 90.024 17.8693 90.3155C17.9797 90.5993 17.962 90.8029 18.1679 91.004C18.5621 90.83 19.0216 90.2248 19.2985 89.8046C19.4228 89.6157 20.1168 88.5005 20.2174 88.4256L20.2173 88.4257ZM34.7357 59.9117C34.8182 59.5612 34.8919 58.9002 35.0824 58.6555C35.0758 58.5529 35.2895 55.6989 35.2914 55.6926L35.1052 54.5384L34.843 53.3431C34.6471 53.1321 34.5035 52.7055 34.3419 52.4371C34.0901 52.019 33.8948 51.9401 33.69 51.6316C33.1369 51.8346 33.041 52.1704 32.6862 52.3675C32.6227 52.5634 32.6873 52.4778 32.5553 52.6521C32.5547 52.6529 32.4428 52.7665 32.4417 52.7674C32.325 52.8706 32.3868 52.8097 32.2885 52.8827C32.2583 53.0063 32.2891 52.926 32.2118 53.069C32.1866 53.1159 32.1374 53.1882 32.0948 53.2527C32.0241 53.3602 31.9428 53.5016 31.877 53.5757C31.8103 53.7872 31.7759 53.8403 31.6841 54.0532C31.5978 54.254 31.6262 54.2803 31.4562 54.4447C31.4502 54.8701 31.2168 55.4899 31.1817 56.0496C31.1433 56.6616 31.2828 57.4057 31.2307 57.886C31.3102 57.9786 31.2582 57.8731 31.3192 58.0301C31.3239 58.0418 31.377 58.2444 31.3836 58.2714C31.4349 58.4835 31.4661 58.5994 31.4981 58.8151C31.6696 59.1171 31.847 59.7295 32.0502 60.1118C32.1852 60.3658 32.6397 61.062 32.6748 61.2507C32.783 61.3322 32.7226 61.2762 32.8167 61.3745L33.3581 62.1581C33.5611 62.2529 33.4594 62.2748 33.7575 62.323C34.1202 61.754 34.5419 60.645 34.7357 59.9116V59.9117ZM31.0057 68.1744C31.058 67.9945 31.1734 67.7076 31.2572 67.4589L31.3716 66.9682C31.3774 66.9534 31.3964 66.9001 31.4008 66.9111C31.4052 66.9221 31.4197 66.873 31.4315 66.8552C31.3353 66.3982 31.4978 65.7881 31.5168 65.2854C31.538 64.7296 31.4334 64.1243 31.5187 63.5899C31.3983 63.4187 31.3746 63.0034 31.3327 62.7335C31.2391 62.2634 31.1122 61.7756 30.9659 61.3434C30.8423 60.9776 30.494 60.3894 30.4529 60.1548C29.9779 59.6905 29.3738 58.356 28.7669 58.2758C28.2518 58.6342 27.8154 59.2788 27.5408 59.9724C27.0869 61.1184 27.3652 61.5573 27.2192 62.6669C27.3398 62.8184 27.368 63.148 27.3981 63.3717C27.7119 64.5934 28.3267 65.7054 28.3456 65.8281C28.586 65.99 28.5726 65.9637 28.682 66.2451C28.8037 66.3002 29.2897 66.8684 29.3757 67.0212L30.662 68.3064L31.0055 68.1743L31.0057 68.1744ZM29.3915 71.4163L28.9825 69.7508L28.8323 69.2966L28.6173 68.6445L28.4792 68.4472C28.415 68.3201 28.4112 68.2817 28.3696 68.1365C28.1932 67.9031 28.0428 67.5598 27.8694 67.3133C27.4127 66.6645 27.0912 66.3947 26.4934 65.8917C26.2778 65.7103 25.8994 65.4029 25.6606 65.2662C25.1734 65.6802 24.8259 66.5181 24.6977 67.1019C24.5442 67.6727 24.5604 68.0125 24.6112 68.6153L24.6523 69.1387C24.6657 69.1547 24.6821 69.2021 24.6871 69.1903L24.8715 69.6361C24.9409 69.8492 24.9999 70.0064 25.0559 70.2045L25.4937 71.09L25.7232 71.4721C25.8807 71.5748 25.9389 71.7121 26.0446 71.8636C26.578 72.6274 27.149 73.2071 27.9034 73.7893C28.1231 73.9589 28.6714 74.2846 28.7642 74.4347C29.0294 74.5257 29.0897 74.6046 29.3291 74.5545C29.6349 73.8041 29.4285 72.294 29.3916 71.4162L29.3915 71.4163ZM26.1393 89.6624C26.0704 89.5755 26.1354 89.7018 26.0447 89.507C26.0346 89.4857 26.0094 89.4174 26.0009 89.3939L25.7297 88.521C25.6119 88.4276 25.3681 87.8868 25.2601 87.7101C25.0738 87.4054 24.8968 87.142 24.7127 86.8954C24.276 86.3108 23.9275 85.9763 23.3139 85.5678C23.0292 85.5724 22.9579 85.6404 22.8305 85.842C22.7836 85.9156 22.7795 85.9477 22.7257 86.039L22.6647 86.1379C22.6075 86.2222 22.5982 86.2312 22.5525 86.2793C22.533 86.5773 22.2602 87.3113 22.1921 87.7779C22.1027 88.3932 22.2195 89.0871 22.1601 89.4758C22.2297 89.5706 22.2056 89.4862 22.2804 89.6974C22.3047 89.7665 22.3335 89.942 22.3483 90.0128C22.5484 90.5859 22.6942 91.0637 22.9223 91.5667C23.0981 91.9551 23.5861 92.692 23.662 92.9833L24.5077 93.9874C24.8669 94.4575 24.8493 94.3498 25.2052 94.6498L25.4566 94.892C25.6336 94.9548 26.0645 95.209 26.2037 95.3323H26.2433C26.641 94.5805 26.5226 93.2696 26.4947 92.3797C26.4588 91.2332 26.1167 89.9135 26.1391 89.6623L26.1393 89.6624ZM28.9337 79.3988C28.9206 79.3805 28.9041 79.3741 28.8986 79.3407C28.8934 79.3077 28.8722 79.2976 28.8654 79.2825C28.6679 78.8552 28.9096 79.4231 28.8111 79.1645L28.2254 77.244C28.1882 77.2053 27.6287 76.0358 27.4742 75.8063C27.3213 75.5789 27.1728 75.3784 27.0043 75.1419C26.8191 74.8814 26.6244 74.7631 26.4966 74.5154C26.2592 74.3433 25.8933 73.9929 25.7013 73.7562C25.4711 73.6655 25.6952 73.7965 25.4804 73.6431C25.4617 73.6296 25.4086 73.5847 25.3917 73.5696C25.3217 73.5065 25.3278 73.5019 25.2722 73.4376C25.044 73.3811 24.1309 72.8003 23.7701 72.6271L23.2953 73.7813C23.3884 74.6624 23.0633 74.918 23.5712 76.3826C23.9375 77.4388 24.4928 78.1112 24.5683 78.3762C24.9878 78.6789 25.0916 79.106 25.781 79.6192L27.2428 80.6817C27.7226 80.6839 28.4071 81.3805 28.9904 81.1107C29.2255 80.577 28.8348 79.9032 28.9334 79.3987L28.9337 79.3988ZM29.2236 85.1447C29.1247 85.0499 28.7986 84.4184 28.6778 84.2173C27.8989 82.9195 27.1144 82.3023 26.7568 81.7787C26.6214 81.722 26.6417 81.7467 26.5639 81.6401C26.2678 81.473 26.0313 81.1379 25.2497 80.7541C24.8097 80.538 23.9922 80.2654 23.4656 80.4955C23.0709 80.9327 23.1563 81.8703 23.2895 82.408C23.4336 82.9891 23.919 83.764 23.965 84.0456C24.0633 84.1291 23.994 84.0181 24.1373 84.2234C24.24 84.3706 24.131 84.1633 24.2165 84.399C24.3921 84.5322 24.348 84.5316 24.4869 84.7018C24.5769 84.8125 24.5463 84.7451 24.6326 84.8577C24.7724 85.0404 24.6822 84.9146 24.7153 85.0366C24.8035 85.101 24.777 85.0799 24.8577 85.1533L25.4202 85.7678C25.6408 85.8402 25.5648 85.8153 25.7673 85.9913C25.8451 86.059 25.8804 86.0729 25.9408 86.1231C26.0517 86.2151 26.0071 86.1513 26.0391 86.2482C26.3295 86.3466 26.2136 86.2551 26.4139 86.4704C27.256 86.9096 27.7793 87.1701 28.7639 87.4605L30.0183 87.7106L29.9975 87.6875C30.0252 86.6769 29.4189 85.9499 29.2233 85.1446L29.2236 85.1447ZM108.395 61.2387C108.573 61.4294 108.526 61.4316 108.654 61.7765C108.883 62.3965 109.265 62.8573 109.395 63.2016C109.598 63.2917 109.594 63.4129 109.784 63.6041C109.981 63.8027 110.036 63.823 110.137 64.063L110.39 64.3186C110.605 64.3952 110.598 64.4297 110.778 64.5873C110.959 64.7457 111.002 64.7023 111.099 64.8991L111.755 65.2776C111.768 65.2883 111.787 65.305 111.799 65.3152C111.811 65.3262 111.831 65.3492 111.841 65.3585C111.851 65.3681 111.876 65.4199 111.883 65.4062C111.891 65.392 111.912 65.4391 111.926 65.4558L112.181 65.5673C112.51 65.6952 113.047 65.8963 113.25 66.1486C113.486 66.1577 115.217 66.83 115.76 66.9771C116.841 67.2703 117.634 67.3042 118.784 67.4503C118.637 66.9495 117.477 65.0613 117.042 64.4772L116.819 64.044C116.678 63.9498 116.707 63.99 116.565 63.8134L115.114 62.0754C114.556 61.4447 113.389 60.5348 113.214 60.3042C112.991 60.2485 113.048 60.2332 112.841 60.0935C112.704 60.0014 112.678 60.0085 112.531 59.8929C112.384 59.819 112.49 59.8814 112.37 59.7935C112.358 59.785 112.332 59.7765 112.324 59.7485C112.315 59.7203 112.295 59.7162 112.28 59.7005C112.105 59.6852 111.315 59.274 111.036 59.1601C110.619 58.9897 110.094 58.8976 109.712 58.736L108.22 58.5516C108.253 59.0423 108.122 59.425 108.192 60.0291C108.241 60.4609 108.409 60.8607 108.395 61.2386L108.395 61.2387ZM118.351 62.2858L118.658 62.6393C119.653 63.971 119.972 63.9058 120.765 64.5633C120.778 64.5737 120.8 64.5949 120.81 64.604L120.9 64.6915C121.049 64.7145 121.937 65.1592 122.188 65.2619C122.665 65.4575 123.087 65.5444 123.565 65.711L124.627 65.9759C125.091 65.9001 125.704 66.055 126.204 66.0926C126.753 66.134 127.398 66.1255 127.952 66.109L128.649 66.0671C129.307 65.9688 129.499 66.0303 129.265 65.435C129.03 65.2813 129.159 65.4399 129.038 65.1405C128.797 65.0562 128.447 64.6353 128.328 64.4529C128.093 64.3113 128.06 64.2932 127.936 64.0444C127.745 63.9573 127.587 63.7913 127.424 63.5957C127.258 63.3964 127.114 63.294 126.993 63.1551C126.853 63.1551 126.875 63.1965 126.883 63.076C126.6 62.9157 126.638 62.862 126.398 62.6502C124.644 61.1037 123.632 60.9465 122.838 60.4133C122.616 60.3541 122.738 60.4147 122.515 60.3001C122.251 60.1649 122.406 60.2347 122.311 60.1567C122.181 60.1575 120.655 59.7811 120.275 59.7043L118.224 59.6285C117.884 59.7144 117.779 59.7194 117.7 60.0424C117.627 60.3411 117.69 60.68 117.766 60.949C117.892 61.3958 118.32 62.0628 118.351 62.2859L118.351 62.2858ZM127.958 58.4068C127.868 58.4766 127.966 58.4196 127.8 58.4984C127.786 58.5047 127.652 58.5572 127.631 58.5651L126.789 58.9317C126.856 59.4489 127.199 59.7895 127.338 60.2273L128.523 61.5119C128.798 61.7674 128.819 61.7001 128.864 61.8513C129.072 61.9393 129.011 61.905 129.101 62.0253L129.198 62.0873C129.425 62.1517 129.374 62.1344 129.591 62.2654C129.593 62.2665 129.703 62.3377 129.734 62.3598C129.821 62.4235 129.819 62.421 129.875 62.479C130.069 62.5012 130.962 62.9209 131.328 63.0365C131.904 63.2187 132.376 63.2957 133.007 63.3538C133.988 63.4251 134.817 63.3759 135.779 63.2869C136.396 63.182 136.968 63.1061 137.549 62.9397C137.957 62.8228 138.863 62.4312 139.1 62.4028C139.184 62.305 139.116 62.3223 139.319 62.256C139.237 61.7787 139.086 61.8009 138.782 61.5856C138.556 61.425 138.384 61.3042 138.152 61.1519C137.856 60.9577 137.061 60.4996 136.898 60.3434C136.651 60.2522 136.491 60.2067 136.329 59.9968L135.862 59.817C135.71 59.7702 135.588 59.7259 135.463 59.6603C135.372 59.6132 135.393 59.6247 135.316 59.5739C135.215 59.5064 135.247 59.5294 135.178 59.4648C134.827 59.4424 134.116 59.0851 133.672 58.944C133.315 58.8303 132.477 58.6495 132.207 58.5257L131.335 58.3772C130.819 58.2806 130.157 58.2128 129.622 58.2177C129.046 58.2229 128.383 58.4211 127.958 58.4069V58.4068ZM138.248 54.8743L137.169 55.1836C136.51 55.5175 135.668 55.6855 135.399 56.3054C135.488 56.7715 135.831 57.2515 136.073 57.453C136.217 57.573 136.414 57.7201 136.592 57.8464C136.816 58.0048 136.919 57.9924 137.058 58.243C137.278 58.2724 137.602 58.4045 137.777 58.5749C137.908 58.6138 137.996 58.6327 138.115 58.6846C138.589 58.8902 137.756 58.48 138.224 58.7382C138.397 58.8335 138.29 58.7743 138.37 58.8379L139.503 58.9861L140.148 59.0428C141.872 59.1691 143.25 58.9683 144.755 58.4384C145.841 58.0568 147.551 57.1697 148.167 56.5473C148.008 56.0615 147.776 56.313 147.517 55.9615C147.424 55.958 145.268 55.2931 144.953 55.1835C144.729 55.1395 144.588 55.1099 144.379 55.0635C144.333 55.0533 144.157 55.0109 144.139 55.0048C143.887 54.9205 144.08 55.0262 143.929 54.9048L142.427 54.7287L142.051 54.7076C140.857 54.6365 139.378 54.5638 138.248 54.8742L138.248 54.8743ZM148.478 48.7569L147.368 49.0952C147.177 49.2108 146.493 49.4433 146.208 49.5597C145.803 49.7255 145.507 49.9497 145.157 50.0867C144.9 50.2829 144.547 50.4922 144.25 50.7171C144.056 50.8642 144.06 50.8535 143.839 51.063C143.674 51.2197 143.607 51.2621 143.404 51.3523C143.318 51.506 143.067 51.7453 142.93 51.9111C143.685 52.4877 144.541 53.096 145.733 53.3414C147.727 53.7515 148.814 53.2047 149.477 53.2201C149.64 53.0557 150.309 52.8377 150.584 52.7184C150.984 52.5461 151.341 52.3253 151.717 52.191C151.792 52.1204 153.231 51.2522 153.802 50.7662C154.205 50.4237 155.412 49.4098 155.477 48.9333C154.777 48.4421 151.272 48.4873 150.141 48.5586C149.647 48.5899 148.859 48.7931 148.478 48.757V48.7569ZM156.661 40.9212C156.421 41.1438 155.777 41.2489 155.409 41.3376C154.997 41.5198 154.588 41.6461 154.147 41.8415C153.879 41.9604 153.149 42.3437 152.948 42.3669C152.785 42.6098 152.403 42.7762 152.147 42.9603C150.951 43.8189 150.566 44.6583 150.109 44.9841C150.04 45.3049 149.73 45.4509 149.687 45.9063C150.346 46.2282 150.831 46.5109 151.706 46.6761C152.897 46.901 153.625 46.5071 154.189 46.5323C154.372 46.3559 154.969 46.1682 155.26 46.1057L155.421 46.0896C155.551 45.906 155.617 45.9129 155.834 45.8093C156.062 45.7003 156.127 45.6556 156.375 45.5831C156.376 45.5815 158.133 44.4124 158.691 43.8012L160.485 41.5316C160.553 41.3385 160.535 41.3708 160.651 41.2042C160.68 41.1623 160.716 41.1124 160.751 41.0733C160.818 40.9991 160.819 41.0111 160.893 40.9511L161.004 40.5083C160.221 40.4312 159.419 40.4785 158.661 40.5761C158.142 40.6432 157.075 40.9475 156.661 40.9213L156.661 40.9212ZM115.606 50.184C115.455 50.3645 115.289 50.3585 115.033 50.4514C114.756 50.5518 114.659 50.6185 114.369 50.6855C114.221 50.7926 113.627 51.0545 113.44 51.1425C111.618 51.9978 110.081 53.4364 109.165 55.2232C108.956 55.6295 108.848 55.7561 108.952 56.1467C109.152 56.2008 109.216 56.1681 109.314 56.3397L110.244 56.4997C110.318 56.5128 110.497 56.5315 110.548 56.5433L110.795 56.6298C111.072 56.5553 111.544 56.543 111.8 56.6232L112.32 56.4854C112.553 56.4445 112.703 56.4063 112.943 56.3715L113.201 56.3297L113.298 56.2515C113.598 56.0592 113.206 56.2923 113.403 56.1915C113.449 56.1675 113.51 56.1475 113.563 56.1262C113.766 56.0452 113.752 56.0471 113.946 55.9908C114.005 55.9256 114.758 55.5032 114.94 55.3755C116.487 54.2925 117.01 53.0948 117.301 52.7876C117.386 52.5201 117.437 52.373 117.64 52.1948C117.657 51.9713 117.727 51.8468 117.85 51.726L118.396 50.5955C118.428 50.2381 118.578 50.2428 118.547 49.7566C117.351 49.5744 116.421 50.2037 115.606 50.184H115.606ZM163.327 31.739L162.303 32.1446C161.813 32.2844 160.205 33.0126 159.963 33.0249C159.768 33.2572 159.73 33.2091 159.477 33.3452C159.318 33.4306 159.146 33.548 159.005 33.6296C158.645 33.8376 158.45 34.0153 158.124 34.2269C157.746 34.4624 157.492 34.7397 157.178 35.0681C156.98 35.2742 156.486 35.7645 156.293 35.9007C156.21 36.136 156.049 36.2544 155.897 36.4467C155.757 36.6248 155.655 36.7467 155.536 36.922C155.366 37.1738 155.102 37.7826 154.898 37.9719C154.908 38.3639 154.701 38.6198 154.931 38.9869C155.587 39.2801 157.911 39.119 158.53 38.8508C160.263 38.099 160.517 37.5763 161.006 37.2987L161.438 36.9483L162.696 35.344C163.11 34.7689 163.585 33.7649 163.743 33.5599C163.807 33.3268 163.887 33.1917 163.966 32.9704C163.998 32.883 164.032 32.7657 164.07 32.695C164.204 32.4413 164.147 32.5687 164.222 32.4887C164.193 32.1726 164.342 32.1022 164.271 31.6815C163.926 31.524 163.669 31.7793 163.327 31.7389L163.327 31.739ZM124.684 49.542C124.493 49.6707 123.899 49.8906 123.643 50.0212C122.405 50.6541 120.982 51.7667 120.881 51.8141C120.876 51.9289 120.902 51.8915 120.771 51.8915C120.564 52.149 120.324 52.4047 120.042 52.5477L119.751 52.8902L119.095 53.6873C119.06 53.7327 119.044 53.7601 119.002 53.8061C118.889 53.931 119.019 53.8286 118.914 53.8738L118.838 54.0267C118.543 54.6026 118.35 55.159 118.076 55.719C117.981 56.108 117.674 56.8406 117.734 57.2352C118.005 57.5292 118.458 57.5003 118.868 57.5084C119.294 57.4781 119.57 57.4592 119.992 57.3829C120.354 57.317 120.708 57.1604 121.042 57.1721C121.169 57.0307 121.129 57.0617 121.32 56.9718C121.447 56.9117 121.567 56.8792 121.719 56.8327L122.774 56.0357C122.841 55.9305 122.765 55.9794 122.926 55.8378C123.053 55.726 123.031 55.7696 123.139 55.72C123.339 55.3119 123.916 54.8557 124.188 54.328C124.322 54.125 124.473 53.8609 124.588 53.6255C124.654 53.4921 124.689 53.3724 124.748 53.2539C124.852 53.0401 124.788 53.1097 124.95 52.9843L125.298 51.6692C125.334 51.4483 125.369 51.2465 125.402 51.0127C125.416 50.9172 125.428 50.7728 125.451 50.684C125.513 50.4435 125.464 50.5824 125.55 50.4711C125.491 50.0273 125.661 49.79 125.621 49.3292L124.684 49.5421L124.684 49.542ZM164.659 23.0263C164.58 23.1534 164.25 23.3244 164.044 23.3636C163.892 23.5947 163.582 23.7573 163.31 23.8408C163.237 23.9658 162.111 24.7496 161.873 24.9439C158.986 27.3093 159.139 28.374 158.575 29.0983L158.243 30.2072L158.315 31.1869C158.433 31.4875 159.646 31.2634 160.117 31.3324C160.329 31.1423 160.782 31.0291 161.054 30.8867C161.343 30.7355 161.656 30.5092 161.98 30.4029C162.045 30.2925 162.002 30.3332 162.143 30.2293C162.368 30.0633 162.207 30.1598 162.369 30.1166C162.602 29.8286 162.72 29.6985 163.034 29.567C163.113 29.401 163.21 29.3477 163.36 29.1665C163.506 28.9911 163.488 28.9115 163.669 28.8695L164.369 27.8585L164.421 27.7639L164.72 27.1219C165.015 26.526 165.263 25.9252 165.456 25.2658C165.589 24.813 165.842 23.3966 165.951 23.1599V22.5151C165.522 22.4877 165.078 22.8866 164.659 23.0264L164.659 23.0263ZM131.151 47.9643L129.212 49.6609C128.484 50.4261 128.334 50.663 127.756 51.3953L127.547 51.6167C127.483 51.9022 126.844 52.8864 126.587 53.8009C126.48 54.1807 126.008 56.3009 126.357 56.6221C126.774 56.8535 127.492 56.473 127.969 56.4897C128.177 56.297 128.643 56.2078 128.931 56.0675C129.263 55.9054 129.496 55.7157 129.788 55.5158C130.014 55.3273 130.255 55.0531 130.472 54.9131C130.625 54.5448 130.926 54.2649 131.159 53.8912C131.33 53.6164 131.585 52.9909 131.793 52.8427C131.803 52.552 132.097 51.9189 132.2 51.5866C132.32 51.2048 132.456 50.7082 132.504 50.3015L132.646 49.6425C132.651 49.6055 132.664 49.5979 132.677 49.5776C132.588 49.2896 132.598 48.7223 132.682 48.4206C132.671 48.402 132.66 48.3762 132.654 48.3608C132.648 48.3455 132.635 48.3194 132.627 48.3C132.482 47.9025 132.726 48.669 132.584 48.1726L132.422 47.4894C132.324 47.3418 132.368 47.4064 132.283 47.3373C131.907 47.4644 131.489 47.7416 131.151 47.9642L131.151 47.9643ZM143.67 39.3059L142.215 41.6538C142.214 41.6568 141.287 43.9981 141.245 44.0699L141.184 44.3734C140.903 45.3212 140.907 46.512 140.909 47.5654C140.91 48.1046 140.933 48.6018 141.136 49.0577C141.273 49.3648 141.513 50.0199 141.754 50.1545C141.769 50.1405 141.792 50.0985 141.8 50.1127C141.807 50.1267 141.835 50.0807 141.845 50.0722L142.752 49.5548L142.837 49.4919L143.883 48.5665C143.943 48.3832 143.932 48.3199 144.162 48.2301C144.235 47.9245 144.258 47.9942 144.432 47.7062C144.561 47.4939 144.603 47.3698 144.699 47.1419C144.792 46.9227 144.879 46.7713 144.97 46.5758C145.11 46.2737 145.083 46.1628 145.234 45.9874C145.21 45.8071 145.273 42.9031 145.298 42.7971L145.229 42.6127C145.179 42.4302 145.238 42.6782 145.199 42.4752L145.058 41.638C144.894 41.2635 144.759 40.8134 144.598 40.4208C144.449 40.0579 144.173 39.6234 144.094 39.2915C143.96 39.2213 143.978 39.2331 143.783 39.1926L143.67 39.306L143.67 39.3059ZM164.45 14.1888L164.132 14.5129L163.391 15.1674L163.202 15.3664C163.103 15.6584 162.516 16.2205 162.271 16.523L161.371 17.7079L161.097 18.1756C161.003 18.4232 161.106 18.3047 160.904 18.4512C160.86 18.7455 160.491 19.4155 160.359 19.7805C160.218 20.1722 160.021 20.7396 159.947 21.1938L159.805 21.7631C159.801 21.7521 159.788 21.8028 159.776 21.8214C159.841 22.1242 159.765 22.4388 159.797 22.791C159.899 23.9082 160.448 23.4129 161.105 23.4304C161.47 23.0721 162.677 22.9828 164.061 20.9794C164.19 20.7924 164.275 20.6335 164.406 20.4117L164.74 19.8728C164.777 19.6542 165.083 19.0181 165.195 18.6964C165.367 18.2071 165.433 17.9244 165.539 17.4305C165.727 16.2415 165.985 14.6443 165.623 13.5208C165.174 13.606 164.86 14.064 164.45 14.189V14.1888ZM135.562 47.2829C135.472 47.5072 135.361 47.6763 135.26 47.8817L134.964 48.3736C134.957 48.3605 134.934 48.4037 134.919 48.4174C134.898 48.695 134.638 49.1818 134.521 49.4971C134.393 49.841 134.286 50.2234 134.217 50.6401C134.091 51.3971 134.204 52.9296 134.089 53.3885C134.174 53.5062 134.082 53.2954 134.188 53.5628C134.246 53.7094 134.229 53.6929 134.27 53.8518C135.101 54.2776 135.25 53.7447 135.938 53.6758C136.11 53.4589 136.227 53.4439 136.476 53.2759C136.722 53.1105 136.761 53.0138 137.047 52.9079C137.113 52.796 137.113 52.7962 137.238 52.6719C137.362 52.5472 137.362 52.5469 137.474 52.4811L138.552 50.7661C138.558 50.736 138.577 50.7316 138.59 50.7151C138.614 50.4571 138.893 49.8544 138.981 49.4746C139.083 49.0321 139.133 48.5108 139.166 48.013C139.236 46.9683 139.149 45.9588 138.963 44.9816C138.908 44.784 138.854 44.594 138.786 44.4069C138.777 44.3827 138.673 44.151 138.668 44.1444C138.525 43.9666 138.718 44.0903 138.44 43.9759C138.294 44.1537 138.175 44.1825 138.016 44.3318C137.841 44.4967 137.779 44.5545 137.623 44.6963C136.506 45.706 135.761 47.1053 135.562 47.283V47.2829ZM161.613 7.45729C161.543 7.72668 161.552 7.66043 161.412 7.9143C161.367 7.99646 161.366 8.02468 161.304 8.10993C161.189 8.26834 161.237 8.1954 161.132 8.27685L161.011 8.55924C160.933 8.77579 160.623 9.47597 160.454 9.65819C160.441 9.98071 160.194 10.4814 160.087 10.8464C159.951 11.3157 159.881 11.625 159.799 12.0957L159.732 13.0984L159.77 14.4236L159.933 14.8296C159.973 14.974 160.024 15.1929 160.078 15.2937C160.29 15.6915 160.575 15.4992 160.937 15.4022L161.375 15.2164L162.127 14.6712C162.199 14.5348 162.666 13.9564 162.857 13.8786C162.956 13.6365 163.016 13.5238 163.241 13.3499C163.262 13.2176 163.644 12.5321 163.758 12.3776C163.795 12.2258 163.784 12.1946 163.859 12.0329C163.961 11.8116 163.915 11.9214 163.999 11.8299C163.983 11.5543 164.584 9.35629 164.355 7.36534C164.305 6.93464 164.088 6.41598 164.145 6.02312C163.974 5.80697 164.019 5.85251 163.971 5.55961C163.86 5.27492 163.877 5.07027 163.671 4.86844C163.275 5.04326 162.813 5.65087 162.535 6.07276C162.41 6.26269 161.714 7.38234 161.613 7.45739L161.613 7.45729ZM147.034 36.0895C146.951 36.4416 146.877 37.1053 146.686 37.3511C146.693 37.4541 146.478 40.32 146.476 40.3261L146.664 41.4852L146.927 42.6854C147.123 42.8975 147.267 43.3257 147.43 43.595C147.682 44.015 147.879 44.0942 148.084 44.4041C148.64 44.2002 148.736 43.863 149.092 43.6652C149.156 43.4684 149.091 43.5543 149.224 43.3792C149.224 43.3787 149.337 43.2644 149.338 43.2636C149.455 43.1598 149.393 43.2211 149.491 43.1477C149.522 43.0236 149.491 43.1042 149.569 42.9606C149.594 42.9134 149.643 42.8412 149.686 42.7765C149.757 42.6683 149.839 42.5264 149.905 42.452C149.972 42.2397 150.006 42.1864 150.099 41.9723C150.185 41.7707 150.157 41.7445 150.328 41.5792C150.333 41.1522 150.568 40.5299 150.603 39.9677C150.642 39.3532 150.502 38.6061 150.554 38.1237C150.474 38.0309 150.526 38.1369 150.465 37.9791C150.46 37.9673 150.407 37.764 150.4 37.7369C150.349 37.524 150.317 37.4073 150.285 37.1907C150.113 36.8877 149.935 36.2726 149.731 35.8888C149.595 35.6338 149.139 34.9345 149.104 34.745C148.995 34.6632 149.056 34.7196 148.961 34.6209L148.418 33.8341C148.214 33.7388 148.316 33.7168 148.017 33.6686C147.652 34.2396 147.229 35.3535 147.034 36.0897V36.0895ZM150.78 27.7927C150.727 27.9732 150.611 28.2612 150.527 28.5113L150.412 29.0039C150.406 29.0187 150.387 29.0722 150.383 29.0612C150.379 29.0502 150.364 29.0993 150.352 29.1171C150.449 29.5763 150.286 30.1889 150.267 30.6938C150.245 31.2518 150.35 31.8595 150.264 32.3961C150.385 32.5679 150.409 32.9852 150.451 33.2561C150.545 33.7281 150.673 34.2176 150.82 34.652C150.944 35.0192 151.293 35.61 151.335 35.8455C151.812 36.3117 152.418 37.652 153.028 37.7322C153.545 37.3724 153.983 36.7252 154.259 36.0287C154.715 34.8778 154.435 34.4373 154.582 33.323C154.461 33.1709 154.432 32.84 154.402 32.6154C154.087 31.3885 153.47 30.2719 153.451 30.1486C153.209 29.9862 153.223 30.0125 153.113 29.73C152.991 29.6747 152.503 29.1043 152.416 28.9508L151.125 27.6602L150.78 27.7928L150.78 27.7927ZM152.401 24.5374L152.811 26.2097L152.962 26.6656L153.178 27.3205L153.317 27.5188C153.381 27.6462 153.385 27.6848 153.427 27.8309C153.604 28.0651 153.755 28.4098 153.929 28.6574C154.388 29.3089 154.71 29.5799 155.311 30.0847C155.527 30.267 155.907 30.5757 156.147 30.713C156.636 30.2974 156.985 29.456 157.114 28.8697C157.268 28.2963 157.252 27.9553 157.201 27.3501L157.159 26.8243C157.146 26.8084 157.13 26.7608 157.124 26.7725L156.939 26.3252C156.869 26.1108 156.81 25.9531 156.755 25.7542L156.315 24.8652L156.084 24.4814C155.926 24.3785 155.868 24.2407 155.761 24.0883C155.226 23.3215 154.652 22.7391 153.895 22.1547C153.674 21.9843 153.124 21.6571 153.031 21.5064C152.764 21.4153 152.704 21.3357 152.463 21.3861C152.156 22.1396 152.364 23.6563 152.401 24.5376L152.401 24.5374ZM152.86 16.5217C152.873 16.5401 152.89 16.5464 152.896 16.5801C152.901 16.6133 152.922 16.6234 152.929 16.6382C153.127 17.0675 152.885 16.4971 152.984 16.7571L153.572 18.6855C153.609 18.7242 154.171 19.8987 154.326 20.1291C154.479 20.3574 154.628 20.5586 154.798 20.7961C154.984 21.0577 155.179 21.1766 155.307 21.4255C155.546 21.5981 155.913 21.95 156.106 22.1876C156.337 22.2786 156.112 22.1474 156.328 22.3013C156.347 22.3148 156.4 22.3597 156.417 22.3749C156.487 22.4383 156.481 22.443 156.537 22.5075C156.766 22.5642 157.683 23.1475 158.045 23.3212L158.522 22.1623C158.429 21.2777 158.755 21.021 158.245 19.5501C157.877 18.4896 157.32 17.8142 157.244 17.5485C156.822 17.2444 156.718 16.8156 156.026 16.3003L154.558 15.2335C154.076 15.2313 153.389 14.5316 152.803 14.8025C152.567 15.3383 152.96 16.0148 152.86 16.5216L152.86 16.5217ZM152.569 10.752C152.668 10.847 152.996 11.4812 153.117 11.6833C153.899 12.9865 154.687 13.6062 155.046 14.1319C155.182 14.1889 155.162 14.1642 155.24 14.271C155.537 14.4387 155.775 14.7752 156.56 15.1606C157.001 15.3777 157.823 15.6514 158.351 15.4203C158.747 14.9812 158.662 14.0398 158.528 13.4998C158.383 12.9166 157.896 12.1385 157.85 11.8558C157.751 11.7717 157.821 11.8832 157.677 11.6771C157.573 11.5295 157.683 11.7374 157.597 11.5006C157.421 11.367 157.465 11.3675 157.326 11.1968C157.235 11.0856 157.266 11.1532 157.179 11.0401C157.039 10.8565 157.129 10.9831 157.096 10.8603C157.008 10.7957 157.035 10.8171 156.953 10.7434L156.388 10.1264C156.167 10.0535 156.243 10.0787 156.04 9.90176C155.962 9.83381 155.926 9.8199 155.866 9.76947C155.754 9.67721 155.799 9.74094 155.767 9.64378C155.475 9.54511 155.592 9.63687 155.391 9.42082C154.545 8.97992 154.02 8.71835 153.031 8.42656L151.771 8.17538L151.792 8.1984C151.764 9.21319 152.373 9.94328 152.57 10.7521L152.569 10.752Z" fill="#FEFEFE"/>
</svg>
