<?xml version="1.0" standalone="no"?>
<!DOCTYPE svg PUBLIC "-//W3C//DTD SVG 20010904//EN"
 "http://www.w3.org/TR/2001/REC-SVG-20010904/DTD/svg10.dtd">
<svg version="1.0" xmlns="http://www.w3.org/2000/svg"
 width="106.000000pt" height="90.000000pt" viewBox="0 0 106.000000 90.000000"
 preserveAspectRatio="xMidYMid meet">

<g transform="translate(0.000000,90.000000) scale(0.100000,-0.100000)"
fill="#000000" stroke="none">
<path d="M951 723 c9 -2 22 -16 29 -31 7 -15 15 -22 17 -15 8 21 -17 53 -40
52 -14 -1 -17 -3 -6 -6z"/>
<path d="M490 695 c11 -13 9 -21 -8 -45 -12 -16 -22 -38 -22 -49 0 -22 34 -45
53 -37 7 2 4 5 -5 5 -23 1 -23 19 2 56 25 38 25 61 1 75 -28 14 -35 12 -21 -5z"/>
<path d="M859 682 c-19 -15 -66 -60 -106 -99 -77 -77 -159 -128 -184 -113 -12
8 -11 15 6 47 11 20 39 63 62 94 23 31 39 60 36 63 -4 3 3 6 15 6 12 0 22 5
22 10 0 6 -3 10 -7 10 -13 0 -38 -19 -38 -27 0 -4 -36 -44 -80 -88 -64 -65
-93 -105 -148 -204 -108 -198 -144 -231 -247 -231 -46 0 -56 4 -87 35 -35 35
-35 36 -31 105 3 57 9 77 34 112 42 60 100 91 150 80 36 -7 39 -11 36 -37 -2
-25 -1 -27 8 -13 6 10 10 26 8 35 -2 10 4 19 13 21 13 2 15 -3 11 -25 -5 -28
-5 -28 16 -10 19 18 20 18 30 -10 9 -24 11 -25 11 -6 1 12 5 24 10 27 5 3 11
15 14 27 6 24 -23 59 -50 59 -13 0 -11 -6 11 -29 24 -25 25 -29 10 -35 -9 -4
-17 -5 -18 -4 -11 27 -28 44 -51 46 -15 2 -25 -1 -21 -6 3 -5 -15 -13 -42 -17
-64 -9 -101 -26 -147 -66 -71 -63 -92 -146 -55 -219 57 -112 239 -104 355 15
27 28 70 88 95 132 25 45 53 84 62 86 32 9 50 -27 57 -120 11 -133 44 -180
132 -189 41 -3 42 -3 10 5 -58 15 -61 21 -85 199 -3 17 -1 32 5 32 5 0 9 -7 9
-15 0 -15 47 -51 56 -43 2 3 -7 16 -21 29 -30 29 -31 35 -5 42 11 3 20 13 20
22 0 16 -2 16 -22 1 -40 -29 -46 -28 -82 8 l-36 35 56 28 c35 17 80 52 118 92
33 36 76 80 94 98 41 40 37 43 -9 5z"/>
<path d="M1004 668 c-4 -13 -2 -24 5 -26 8 -3 8 -9 0 -24 -11 -21 -7 -34 9
-24 13 8 22 46 11 46 -5 0 -7 11 -3 25 8 31 -12 34 -22 3z"/>
<path d="M356 645 c-25 -20 -46 -41 -46 -47 0 -6 10 0 23 13 12 13 36 34 52
46 17 12 27 23 24 23 -3 0 -27 -16 -53 -35z"/>
<path d="M955 669 c4 -5 8 -21 10 -35 3 -30 25 -57 25 -32 0 9 -5 20 -11 24
-8 4 -7 9 2 14 10 7 10 11 0 24 -15 18 -36 22 -26 5z"/>
<path d="M629 653 c-13 -16 -12 -17 4 -4 9 7 17 15 17 17 0 8 -8 3 -21 -13z"/>
<path d="M565 603 c-22 -19 -31 -31 -20 -25 19 9 74 63 64 62 -2 -1 -22 -17
-44 -37z"/>
<path d="M960 576 c0 -8 5 -18 10 -21 6 -3 10 1 10 9 0 8 -4 18 -10 21 -5 3
-10 -1 -10 -9z"/>
<path d="M1005 570 c-18 -20 -15 -38 4 -25 15 9 33 45 23 45 -5 0 -17 -9 -27
-20z"/>
<path d="M940 547 c0 -9 10 -25 21 -36 17 -15 26 -18 40 -10 11 5 19 14 19 19
0 13 -7 13 -31 0 -15 -8 -19 -7 -19 3 0 8 -7 20 -15 27 -12 10 -15 10 -15 -3z"/>
<path d="M420 541 c0 -6 9 -16 20 -23 25 -16 25 -25 1 -33 -20 -6 -37 -35 -21
-35 5 0 20 10 34 23 23 20 25 25 13 47 -13 25 -47 40 -47 21z"/>
<path d="M920 497 c0 -43 44 -63 70 -32 10 12 9 15 -7 15 -10 0 -24 -5 -31
-12 -9 -9 -12 -5 -12 20 0 18 -4 32 -10 32 -5 0 -10 -10 -10 -23z"/>
<path d="M897 483 c-13 -12 -7 -64 8 -69 23 -9 70 5 58 17 -6 6 -19 6 -36 0
-25 -10 -25 -9 -20 25 6 33 3 41 -10 27z"/>
<path d="M199 453 c-13 -15 -11 -16 22 -9 35 6 36 6 31 -25 -3 -22 -1 -30 7
-25 12 8 14 35 5 60 -8 21 -48 20 -65 -1z"/>
<path d="M858 454 c-5 -4 -8 -16 -8 -28 0 -14 3 -17 11 -9 6 6 9 19 7 28 -1 9
-6 13 -10 9z"/>
<path d="M812 428 c-17 -17 -15 -67 2 -74 8 -3 25 -4 38 -2 22 4 22 5 -5 16
-25 11 -28 16 -22 42 7 33 5 36 -13 18z"/>
<path d="M170 415 c-10 -12 -9 -15 8 -15 11 0 25 7 32 15 10 12 9 15 -8 15
-11 0 -25 -7 -32 -15z"/>
<path d="M768 419 c-10 -5 -18 -17 -18 -24 0 -8 -4 -15 -10 -15 -5 0 0 -11 12
-25 12 -14 31 -25 42 -25 19 1 18 3 -8 24 -27 23 -28 25 -13 41 10 9 17 21 17
26 0 11 -1 11 -22 -2z"/>
<path d="M220 384 c0 -14 4 -23 10 -19 6 3 10 15 10 26 0 10 -4 19 -10 19 -5
0 -10 -12 -10 -26z"/>
<path d="M380 381 c0 -11 -12 -34 -26 -53 l-26 -33 31 33 c26 27 42 72 26 72
-3 0 -5 -9 -5 -19z"/>
<path d="M840 395 c0 -2 9 -9 20 -15 23 -12 64 -4 55 11 -6 9 -75 13 -75 4z"/>
<path d="M147 373 c-4 -3 -7 -13 -7 -21 0 -12 4 -12 24 1 23 15 24 15 30 -8 7
-27 26 -34 26 -11 0 31 -53 60 -73 39z"/>
<path d="M136 318 c-20 -28 -12 -37 12 -15 27 24 34 21 27 -11 -4 -19 -1 -33
7 -40 11 -9 14 -3 15 28 2 30 -3 42 -17 50 -25 14 -27 13 -44 -12z"/>
<path d="M131 268 c-5 -13 -5 -24 0 -26 5 -2 6 -15 3 -28 -4 -14 -2 -24 4 -24
15 0 26 41 14 49 -7 4 -8 12 -2 21 13 20 12 30 0 30 -6 0 -14 -10 -19 -22z"/>
<path d="M170 232 c0 -5 7 -15 15 -22 8 -7 15 -8 15 -2 0 5 -7 15 -15 22 -8 7
-15 8 -15 2z"/>
<path d="M160 203 c0 -19 11 -43 21 -43 13 0 11 14 -6 36 -8 10 -15 14 -15 7z"/>
<path d="M820 165 c-14 -8 -20 -14 -14 -15 5 0 19 7 30 15 24 18 16 19 -16 0z"/>
</g>
</svg>
