<svg width="40" height="40" viewBox="0 0 30" fill="none" xmlns="http://www.w3.org/2000/svg">
<path d="M7.75 11.5H10.25H30.25" stroke="#3B2F23" stroke-width="2" stroke-linecap="round" stroke-linejoin="round"/>
<path d="M14 11.5V9C14 8.33696 14.2634 7.70107 14.7322 7.23223C15.2011 6.76339 15.837 6.5 16.5 6.5H21.5C22.163 6.5 22.7989 6.76339 23.2678 7.23223C23.7366 7.70107 24 8.33696 24 9V11.5M27.75 11.5V29C27.75 29.663 27.4866 30.2989 27.0178 30.7678C26.5489 31.2366 25.913 31.5 25.25 31.5H12.75C12.087 31.5 11.4511 31.2366 10.9822 30.7678C10.5134 30.2989 10.25 29.663 10.25 29V11.5H27.75Z" stroke="#3B2F23" stroke-width="2" stroke-linecap="round" stroke-linejoin="round"/>
<path d="M16.5 17.75V25.25" stroke="#3B2F23" stroke-width="2" stroke-linecap="round" stroke-linejoin="round"/>
<path d="M21.5 17.75V25.25" stroke="#3B2F23" stroke-width="2" stroke-linecap="round" stroke-linejoin="round"/>
</svg>

