<svg width="24" height="24" viewBox="0 0 24 24" fill="none" xmlns="http://www.w3.org/2000/svg">
<path d="M3 4C2.44772 4 2 4.44772 2 5V19C2 19.5523 2.44772 20 3 20H21C21.5523 20 22 19.5523 22 19V8C22 7.44772 21.5523 7 21 7H13.7398C13.0237 7 12.3312 6.74382 11.7875 6.27777L9.41094 4.24074C9.2297 4.08539 8.99886 4 8.76015 4H3ZM0 5C0 3.34315 1.34315 2 3 2H8.76015C9.47629 2 10.1688 2.25618 10.7125 2.72223L13.0891 4.75926C13.2703 4.91461 13.5011 5 13.7398 5H21C22.6569 5 24 6.34315 24 8V19C24 20.6569 22.6569 22 21 22H3C1.34314 22 0 20.6569 0 19V5Z" fill="#181511"/>
</svg>
