<svg width="24" height="24" viewBox="0 0 24 24" fill="none" xmlns="http://www.w3.org/2000/svg">
<path d="M16.6656 3.7463C17.0778 3.37869 17.1139 2.74655 16.7463 2.33439C16.3787 1.92222 15.7466 1.8861 15.3344 2.2537L16.6656 3.7463ZM15.3344 21.5841C15.7466 21.9517 16.3787 21.9156 16.7463 21.5035C17.1139 21.0913 17.0778 20.4592 16.6656 20.0915L15.3344 21.5841ZM6.83676 11.1726L6.17114 10.4263L6.83676 11.1726ZM6.83675 12.6652L6.17114 13.4115L6.83675 12.6652ZM15.3344 2.2537L6.17114 10.4263L7.50237 11.9189L16.6656 3.7463L15.3344 2.2537ZM6.17114 13.4115L15.3344 21.5841L16.6656 20.0915L7.50237 11.9189L6.17114 13.4115ZM6.17114 10.4263C5.27945 11.2216 5.27945 12.6162 6.17114 13.4115L7.50237 11.9189L7.50237 11.9189L6.17114 10.4263Z" fill="#181511"/>
</svg>
