<svg width="60" height="36" viewBox="0 0 60 36" fill="none" xmlns="http://www.w3.org/2000/svg">
<path fill-rule="evenodd" clip-rule="evenodd" d="M44.2306 9.52934C43.6314 10.2673 42.9297 10.9892 42.1255 11.6951C41.3213 12.401 40.454 13.0507 39.5238 13.6443C38.5934 14.2379 37.6158 14.7754 36.5908 15.2566C35.5659 15.7379 34.533 16.139 33.4924 16.4598C35.1953 17.3903 36.4805 18.5132 37.3478 19.8288C37.4569 19.9944 37.5601 20.1645 37.6576 20.3388C37.8838 20.4361 38.2056 20.5509 38.2765 20.552C38.3267 20.6041 38.264 20.5664 38.3653 20.6102C38.4022 20.6262 38.438 20.633 38.4712 20.6427C38.5542 20.6669 38.6028 20.6865 38.6923 20.7097L39.7094 20.9876L39.7502 20.9918C39.8928 21.0399 40.1879 21.1131 40.3374 21.09C40.3662 21.1083 40.3398 21.099 40.4012 21.119C40.4201 21.1251 40.4545 21.1332 40.4682 21.1359C40.5151 21.1455 40.57 21.151 40.6205 21.161C41.4956 21.2415 42.2226 21.3399 43.133 21.3208C43.5393 21.3122 43.9711 21.2825 44.3743 21.239C44.6358 21.2108 45.3593 21.0714 45.5397 21.0805C45.5885 21.0697 45.6379 21.0619 45.6847 21.0503C45.7879 21.0247 45.7416 21.0556 45.8039 21.0015C45.9326 21.0116 46.1028 20.9634 46.2247 20.9261C46.3694 20.9017 46.5117 20.8618 46.6463 20.8262C46.7898 20.7882 46.9475 20.7675 47.0275 20.6948C47.1924 20.7055 47.5285 20.565 47.6745 20.5065C47.8412 20.4606 48.1424 20.3919 48.2609 20.2705C48.3596 20.2693 48.4443 20.2216 48.5509 20.1769C48.6164 20.1493 48.7638 20.0895 48.7997 20.0593C48.8852 20.0366 48.8757 20.0377 48.9536 19.9991C48.9725 19.9898 49.0181 19.9691 49.0277 19.9631C49.1314 19.8978 49.0483 19.9603 49.0931 19.906L49.0958 19.9176C49.2078 19.8892 49.2437 19.8625 49.3478 19.8084C49.3921 19.7854 49.4164 19.7767 49.4579 19.7535C49.5298 19.7133 49.512 19.7296 49.5527 19.678C49.6637 19.6647 50.2738 19.3188 50.3488 19.2411C50.4372 19.2107 50.5076 19.1778 50.5803 19.1001C50.6569 19.0716 50.7515 19.0141 50.7865 18.9577C50.9214 18.9234 51.3456 18.6104 51.5053 18.4945L51.6113 18.3927C51.6811 18.3635 51.8622 18.2433 51.8909 18.1676C52.0281 18.1391 51.9399 18.1666 51.9751 18.1101C52.0675 18.0711 53.1876 17.0718 53.2488 17.0089L53.9415 16.1965C53.9875 16.1381 54.0393 16.0751 54.0798 16.0282L54.3078 15.7297C54.3411 15.6666 54.3092 15.7587 54.3297 15.6773C54.3623 15.6512 54.3443 15.6677 54.3809 15.6344C54.3846 15.631 54.4191 15.5987 54.4242 15.5929C54.4744 15.5363 54.4729 15.5233 54.5071 15.4519C54.542 15.4413 54.5223 15.457 54.5544 15.4175C54.5592 15.4116 54.5928 15.3597 54.5998 15.3497C54.6425 15.2884 54.667 15.2639 54.691 15.2026C54.6968 15.1979 54.7058 15.183 54.7085 15.1881C54.7219 15.2143 55.173 14.58 55.2265 14.4407C55.2718 14.4224 55.2505 14.4329 55.2923 14.3696C55.3292 14.3137 55.3368 14.2999 55.3511 14.2476L55.387 14.2167C55.4056 14.1972 55.4108 14.1968 55.4283 14.1701C55.4822 14.088 55.4507 14.1379 55.4704 14.0602C55.5312 14.0173 55.952 13.2665 55.9606 13.1546C55.9664 13.1494 55.9748 13.1336 55.9772 13.1385L56.1586 12.7555C56.2568 12.6202 56.6495 11.6859 56.646 11.5072C56.7094 11.455 56.7112 11.4054 56.7393 11.3195C56.7643 11.2431 56.7859 11.179 56.8099 11.0983C56.8926 10.7831 57.2619 9.66491 57.2326 9.42021C57.2493 9.39399 57.241 9.41736 57.2632 9.35793C57.2689 9.34243 57.2844 9.28714 57.2885 9.26865C57.3038 9.19928 57.3128 9.12772 57.3237 9.05594C57.3806 8.73427 57.5495 7.70226 57.5043 7.40759C57.5675 7.3246 57.5571 7.09435 57.563 6.96968C57.5746 6.7985 57.6306 6.57453 57.5914 6.41851L57.6603 6.39307L57.637 7.54253C57.5676 7.65008 57.5832 7.93864 57.5724 8.09282C57.5536 8.21068 57.5392 8.29197 57.5541 8.41327C57.4822 8.5052 57.4763 8.77502 57.4626 8.90738C57.413 9.18541 57.3636 9.47264 57.3111 9.73448C57.2689 9.94597 57.1296 10.4035 57.14 10.5712C57.0938 10.6205 57.1089 10.5877 57.0813 10.6848C57.066 10.7389 57.0596 10.7893 57.0485 10.8454C57.0011 10.9572 56.7476 11.7625 56.7515 11.8507C56.721 11.884 56.7371 11.8448 56.6999 11.9251C56.6685 11.9933 56.6776 11.9888 56.662 12.0531C56.6176 12.1201 56.5345 12.3352 56.5319 12.4124C56.5085 12.4368 56.5104 12.4248 56.4872 12.4663C56.4692 12.4983 56.4752 12.4928 56.4613 12.5274C56.4394 12.5812 56.4257 12.6162 56.4054 12.6736C56.3233 12.8278 56.2661 12.9898 56.188 13.1486L56.0211 13.4828C55.9754 13.5787 55.9825 13.5445 55.9791 13.6237C55.8997 13.7013 55.8459 13.8498 55.8079 13.9629C55.7576 14.0231 55.6795 14.1848 55.6753 14.2661C55.6421 14.295 55.6644 14.2501 55.6236 14.3113C55.569 14.3932 55.6133 14.3072 55.5878 14.4035C55.5141 14.4417 55.3504 14.7155 55.2958 14.7953L55.0106 15.2233C54.9989 15.2342 54.9773 15.2463 54.9497 15.2838C54.9031 15.3468 54.922 15.3185 54.891 15.3954C54.8595 15.4065 54.8775 15.3928 54.8456 15.4305C54.8452 15.431 54.8022 15.4906 54.7983 15.4959C54.7857 15.5138 54.7684 15.5364 54.7518 15.5626C54.699 15.647 54.7271 15.5848 54.713 15.6508C54.584 15.7504 54.4946 15.9201 54.3986 16.0448C54.3474 16.1112 54.3027 16.1677 54.2523 16.2329C54.1859 16.3188 54.1346 16.3598 54.097 16.4538C54.0236 16.4968 54.0183 16.4921 53.9923 16.5773C53.9284 16.6186 53.962 16.5974 53.9114 16.646C53.8908 16.6657 53.8482 16.7072 53.829 16.7279C53.769 16.7923 53.722 16.8515 53.683 16.9297C53.6561 16.9445 53.673 16.9323 53.6401 16.961C53.4964 17.0858 52.9993 17.5833 52.9517 17.6789C52.8534 17.7245 52.9075 17.6762 52.8522 17.7662C52.7688 17.7923 52.7153 17.8626 52.6756 17.9316C52.6698 17.9344 51.6851 18.6968 51.6125 18.8086C51.5464 18.8212 51.5981 18.8047 51.5388 18.8366L50.3965 19.6123C50.3439 19.6483 50.3563 19.6344 50.3377 19.6621L50.047 19.8191C50.0096 19.8487 50.0247 19.8375 49.9981 19.8671L49.8949 19.9066C49.8178 19.9401 49.7571 19.9804 49.688 20.0142C49.6054 20.0546 49.5372 20.0822 49.4811 20.1534C49.4275 20.1591 48.6974 20.4994 48.6537 20.5351C48.5334 20.5697 48.3308 20.6234 48.2463 20.7158L48.1844 20.7295L47.8401 20.8396L47.3564 21.0102C47.3024 21.0257 47.2655 21.0363 47.2065 21.0536C47.1865 21.0595 47.1367 21.0726 47.1207 21.0798C47.0306 21.12 47.0778 21.0999 47.0396 21.1321C46.9735 21.1217 46.9793 21.1096 46.9146 21.1514L46.6086 21.2466C46.4792 21.237 45.95 21.3856 45.7716 21.4226C45.4911 21.4807 45.2121 21.5227 44.9269 21.5684C44.8473 21.5787 44.7685 21.5828 44.6903 21.5943L44.5551 21.6288C44.5513 21.6221 44.5404 21.6339 44.5335 21.6376C44.3754 21.6032 44.1833 21.6627 44.016 21.6666L43.5826 21.7046C43.5769 21.706 43.5648 21.7196 43.5608 21.7129C43.5569 21.7062 43.5463 21.7181 43.5396 21.7219L42.4832 21.7156L42.0704 21.7053L41.6419 21.6788L41.2979 21.6418L40.8026 21.6146C40.7322 21.5599 40.5462 21.5578 40.435 21.542C40.147 21.5032 39.8717 21.4448 39.5922 21.3845C39.3858 21.3398 38.9237 21.1919 38.754 21.1977C38.6792 21.1123 38.2599 21.0172 38.1361 20.9889C38.1089 20.9753 38.0368 20.9463 37.9505 20.9135C38.4488 21.9911 38.7446 23.2178 38.8377 24.5935L39.169 29.1176C39.5159 33.1925 41.1084 35.2299 43.9468 35.2299C44.7352 35.2299 45.5236 35.0615 46.3121 34.7246C47.1004 34.3876 47.7786 33.9144 48.3462 33.3048C48.567 33.0801 48.7247 32.9678 48.8192 32.9678C48.9769 32.9678 49.0558 33.0641 49.0558 33.2566C49.0558 33.6096 48.6773 34.0267 47.9205 34.5079C47.3212 34.925 46.6511 35.2459 45.91 35.4705C45.1689 35.6952 44.3884 35.8074 43.5683 35.8074C38.3017 35.8074 35.4791 32.4866 35.1006 25.8448L34.8642 21.1764C34.8011 20.0534 34.5567 19.0908 34.1309 18.2887C33.7052 17.4866 33.1927 16.9572 32.5934 16.7005C32.1834 16.7646 31.8681 16.8048 31.6473 16.8208C31.4266 16.8368 31.0954 16.8449 30.6539 16.8449C29.5817 19.3155 28.47 21.5373 27.3188 23.5107C26.1678 25.4839 25.0246 27.1765 23.8892 28.5882C23.3531 29.262 22.8564 29.8395 22.3991 30.3209C21.9419 30.8021 21.4925 31.2353 21.0509 31.6203C20.6094 32.0053 20.16 32.3503 19.7027 32.655C19.2454 32.9599 18.7487 33.2727 18.2126 33.5936C15.3111 35.1979 12.4728 36 9.69762 36C8.30995 36 7.0249 35.7674 5.84224 35.3022C4.65958 34.837 3.63464 34.1871 2.76734 33.353C1.90005 32.5188 1.22206 31.5401 0.733201 30.4172C0.244376 29.2941 0 28.0588 0 26.7113C0 24.9465 0.402132 23.2621 1.20621 21.6578C2.01041 20.0535 3.09856 18.6417 4.47038 17.4225C5.8422 16.2032 7.43477 15.2407 9.24816 14.5348C11.0616 13.8289 12.9775 13.4759 14.9958 13.4759C16.3099 13.4759 17.4636 13.7105 18.4568 14.1798C18.4743 14.1807 18.4881 14.1746 18.5252 14.1507L18.8298 14.056C18.9587 14.0656 19.4856 13.9176 19.6634 13.8807C19.9427 13.8229 20.2205 13.781 20.5046 13.7354C20.5838 13.7253 20.6623 13.7211 20.7401 13.7098L20.8748 13.6754C20.8786 13.6821 20.8895 13.6703 20.8963 13.6666C21.0538 13.7009 21.245 13.6416 21.4118 13.6378L21.8433 13.5999C21.849 13.5984 21.861 13.585 21.865 13.5917C21.869 13.5983 21.8794 13.5864 21.8861 13.5826L22.9381 13.5889L23.3493 13.5992L23.776 13.6256L24.1186 13.6623L24.6119 13.6895C24.6821 13.7441 24.8672 13.7462 24.9779 13.7619C25.2648 13.8005 25.539 13.8586 25.8172 13.9187C26.0228 13.9632 26.4829 14.1105 26.6519 14.1048C26.7264 14.1898 27.1441 14.2845 27.2674 14.3127C27.3482 14.3529 27.8235 14.5302 27.894 14.5316C27.9179 14.5534 27.9061 14.5538 27.9495 14.5743C27.9656 14.5818 27.9728 14.5851 27.9776 14.587C28.5459 13.7681 29.1699 12.9405 29.8497 12.1044C31.5842 9.97068 33.6342 7.86098 35.9994 5.77543C36.7564 5.16583 37.3477 4.6685 37.7734 4.28345C38.1992 3.89839 38.5303 3.60964 38.7668 3.41715C39.0034 3.22462 39.1531 3.0882 39.2162 3.00806C39.2793 2.92784 39.3109 2.85566 39.3109 2.79145L39.2162 2.74338C38.9639 2.74338 38.4357 3.02415 37.6315 3.58556C36.8273 4.14713 35.826 4.94128 34.6276 5.96796L31.8838 8.37444C31.1585 9.01611 30.4962 9.48137 29.897 9.77012C29.2978 10.0589 28.6828 10.2033 28.052 10.2033C27.3267 10.2033 26.7117 9.96258 26.2071 9.48133C25.7025 9.00002 25.4502 8.4386 25.4502 7.79689C25.4502 7.28344 25.5606 6.80219 25.7813 6.35298C26.0022 5.90384 26.3805 5.35832 26.9167 4.71661C27.2952 4.26747 27.5553 3.91455 27.6972 3.65775C27.8391 3.4011 27.9101 3.14441 27.9101 2.88776C27.9101 2.6311 27.8076 2.4064 27.6026 2.21391C27.3976 2.02146 27.1532 1.92516 26.8693 1.92516C26.2386 1.92516 25.466 2.11761 24.5514 2.50267C23.6368 2.88772 22.7144 3.38505 21.784 3.99465C20.8538 4.6043 19.9628 5.29408 19.1113 6.06419C18.2599 6.8343 17.5818 7.60429 17.0772 8.3744C16.8879 8.63105 16.7303 8.75941 16.6041 8.75941C16.478 8.75941 16.4149 8.69525 16.4149 8.56689C16.4149 8.2781 16.6593 7.84497 17.1482 7.26746C17.637 6.68996 18.2913 6.03213 19.1113 5.29412C20.562 4.07487 21.9969 3.12033 23.4161 2.43055C24.8352 1.74073 26.1441 1.39576 27.3425 1.39576C28.0994 1.39576 28.7222 1.58822 29.211 1.97327C29.6998 2.35832 29.9442 2.87167 29.9442 3.51337C29.9442 3.96263 29.8497 4.40378 29.6604 4.83702C29.4712 5.27015 29.14 5.80757 28.667 6.44928C28.1624 7.09099 27.8313 7.57219 27.6736 7.89305C27.516 8.2139 27.4371 8.51877 27.4371 8.80753C27.4371 9.03208 27.5238 9.23267 27.6972 9.40915C27.8707 9.58563 28.052 9.67379 28.2413 9.67379C28.5882 9.67379 29.0297 9.55352 29.5658 9.31285C30.102 9.07217 30.575 8.77543 30.985 8.42248L34.2019 5.67913C35.6209 4.45988 36.8588 3.51334 37.9153 2.8396C38.9718 2.1658 39.7681 1.82889 40.3042 1.82889C40.525 1.82889 40.6354 1.94117 40.6354 2.16584C40.6354 2.32623 40.4934 2.53476 40.2096 2.79145C39.2635 3.62576 38.4199 4.44395 37.6787 5.24604C36.9377 6.04821 36.2201 6.93049 35.5264 7.89305C34.8326 8.85561 34.1466 9.95455 33.4686 11.1899C32.7905 12.4252 32.0257 13.8931 31.1741 15.5937C31.5211 15.6578 31.797 15.722 32.002 15.7861C32.207 15.8503 32.483 15.9626 32.8299 16.123C33.3976 16.0268 34.0678 15.7861 34.8405 15.4011C35.6131 15.016 36.4251 14.5428 37.2767 13.9813C38.1282 13.4197 38.9875 12.778 39.8548 12.0561C40.7221 11.3342 41.5499 10.5722 42.3384 9.77005L45.839 5.96789C47.6365 4.01063 49.3554 2.52674 50.9952 1.51599C52.6352 0.505358 54.1332 0 55.4893 0C56.2194 0 56.6244 0.139905 56.7044 0.419782C56.7476 0.451734 56.7752 0.475476 56.8592 0.587457L57.1677 0.960047C57.1954 1.06818 57.3733 1.34162 57.4376 1.48582C57.5207 1.6725 57.5739 1.84968 57.6469 2.0624C57.6523 2.08862 57.6629 2.15382 57.6718 2.17944C57.6989 2.25781 57.6902 2.22652 57.7155 2.26173C57.6939 2.40592 57.7366 2.6635 57.7039 2.89179C57.6791 3.06493 57.5795 3.33731 57.5725 3.44784C57.5557 3.46578 57.5523 3.46914 57.5315 3.50028L57.5093 3.53704C57.4895 3.57096 57.488 3.58279 57.4711 3.61027C57.4246 3.68501 57.3985 3.71019 57.2947 3.71189C57.0709 3.56034 56.9438 3.43619 56.7845 3.21922C56.7173 3.12773 56.6528 3.02999 56.5849 2.91693C56.5456 2.8514 56.4566 2.65074 56.4136 2.61601L56.3146 2.29213C56.3116 2.28344 56.3023 2.25803 56.2987 2.25012C56.2656 2.17782 56.2892 2.22471 56.2642 2.19242C56.2724 2.09927 56.1476 1.60945 56.1344 1.18408C56.1305 1.05579 56.1215 0.903947 56.1206 0.749844L56.0096 0.72192C55.6627 0.625619 55.3789 0.577543 55.1581 0.577543C54.5905 0.577543 53.944 0.713897 53.2186 0.986563C52.4932 1.25934 51.7836 1.62028 51.0899 2.06953C50.6168 2.42249 50.0649 2.91978 49.4342 3.56153C48.8034 4.20323 48.0465 5.05355 47.1635 6.11226L44.2305 9.52941L44.2306 9.52934ZM18.9419 14.435C19.018 14.4793 19.0931 14.5253 19.1672 14.5728C19.1931 14.5596 19.2158 14.5452 19.2334 14.5286C19.4062 14.5347 19.6658 14.3947 19.8165 14.4799C19.8861 14.5449 19.8655 14.8108 19.8266 15.0599C19.8564 15.0851 19.8861 15.1105 19.9156 15.1364C20.1006 15.2986 20.2718 15.4683 20.4296 15.6455C20.4376 15.6253 20.4461 15.6045 20.4565 15.5828C20.4983 15.4961 20.5525 15.3989 20.6011 15.3243C20.6994 15.13 20.9085 14.9621 20.9805 14.8118C21.0197 14.7937 21.012 14.8096 21.0577 14.7686C21.1158 14.7164 21.0883 14.7345 21.1128 14.6957L21.4943 14.4025C21.5494 14.3853 21.5926 14.3732 21.6388 14.3512C21.7079 14.3181 21.6934 14.3295 21.7391 14.2774C21.8599 14.2818 21.9881 14.2241 22.1192 14.1999C22.2716 14.1717 22.3715 14.1648 22.5256 14.1538C22.6739 14.1566 22.838 14.1461 22.9358 14.2542C22.9574 14.3994 22.8468 14.669 22.8122 14.8122C22.713 15.0183 22.6432 15.2232 22.5363 15.4351L22.5089 15.4914C22.471 15.508 22.5179 15.4702 22.4771 15.5163C22.462 15.5332 22.4563 15.5433 22.4436 15.5601L22.2064 15.8533L22.1011 15.9795C21.9991 16.0321 21.9123 16.1261 21.8373 16.221C21.7897 16.221 21.7992 16.2072 21.7976 16.2495C21.7707 16.2623 21.4873 16.4853 21.1615 16.6954C21.5923 17.5098 21.8077 18.442 21.8077 19.492C21.8077 20.6149 21.5475 21.73 21.0273 22.8369C20.5069 23.9439 19.7893 24.8664 18.8748 25.6044C18.6225 25.7968 18.3781 25.9653 18.1416 26.1097C17.905 26.2541 17.7237 26.3262 17.5976 26.3262C17.4399 26.3262 17.361 26.23 17.361 26.0375C17.361 25.9412 17.4004 25.861 17.4793 25.7968C17.5581 25.7326 17.7237 25.6203 17.976 25.4598C18.8906 24.8823 19.6475 24.0402 20.2467 22.9332C20.8458 21.8261 21.1455 20.7112 21.1455 19.5882C21.1455 18.6132 20.9536 17.7543 20.57 17.0113C20.5079 17.0388 20.4513 17.0653 20.4218 17.0857L20.083 17.164C20.0683 16.9945 20.1301 16.9071 20.1085 16.7437C20.1399 16.7028 20.1221 16.7539 20.1444 16.6654C20.1527 16.6327 20.1571 16.5796 20.1621 16.5443C20.1697 16.49 20.1774 16.4404 20.1854 16.3908C20.0248 16.1719 19.8441 15.9653 19.6433 15.7707C19.5379 16.0196 19.4036 16.2432 19.3862 16.3221L19.3106 16.4035C19.1015 16.673 19.047 16.7603 18.784 17.042L18.0822 17.6662C17.9602 17.7482 17.8088 17.8502 17.6728 17.897C17.6419 17.8717 17.658 17.8954 17.6225 17.8411L17.5639 17.5897C17.5128 17.407 17.6009 17.6891 17.5483 17.5426C17.5457 17.5356 17.5408 17.526 17.5386 17.5204C17.5364 17.5147 17.5326 17.5052 17.5285 17.4983C17.5588 17.3873 17.5628 17.1785 17.5302 17.0725C17.5348 17.065 17.5399 17.0622 17.5416 17.0486L17.5929 16.8061C17.6104 16.6564 17.6596 16.4736 17.7027 16.3331C17.7401 16.2108 17.8463 15.9778 17.8502 15.8708C17.9255 15.8162 18.0177 15.586 18.0796 15.4849C18.1637 15.3473 18.2727 15.2443 18.3278 15.1089C18.3895 15.0685 18.4562 14.998 18.5213 14.936C18.3644 14.8475 18.2019 14.7657 18.0339 14.6904C17.9294 14.7273 17.8312 14.7677 17.7683 14.7929C17.6024 14.8387 17.3023 14.907 17.1843 15.028C17.0859 15.0292 17.0016 15.0766 16.8955 15.1212C16.8303 15.1486 16.6835 15.2082 16.6477 15.2383C16.5627 15.2609 16.572 15.2599 16.4945 15.2982C16.4756 15.3076 16.4303 15.3281 16.4207 15.3341C16.3174 15.3991 16.4001 15.3369 16.3555 15.391L16.3529 15.3794C16.2415 15.4077 16.2055 15.4343 16.1019 15.4882C16.0578 15.5111 16.0335 15.5199 15.9923 15.5429C15.9206 15.5829 15.9384 15.5668 15.8979 15.618C15.7873 15.6314 15.1798 15.9758 15.1051 16.0531C15.017 16.0835 14.9469 16.1162 14.8745 16.1934C14.7982 16.222 14.7039 16.2793 14.669 16.3355C14.5349 16.3695 14.1124 16.6813 13.9534 16.7967L13.8477 16.8981C13.7782 16.9272 13.5978 17.0469 13.5694 17.1221C13.4326 17.1506 13.5205 17.1231 13.4855 17.1794C13.3934 17.2184 12.2779 18.2135 12.217 18.2763L11.5272 19.0851C11.4813 19.1433 11.4297 19.206 11.3895 19.2527L11.1624 19.5502C11.1292 19.613 11.161 19.5212 11.1407 19.6022C11.1081 19.6283 11.1261 19.6118 11.0896 19.645C11.0859 19.6484 11.0516 19.6807 11.0465 19.6863C10.9964 19.7427 10.998 19.7556 10.964 19.8269C10.9291 19.8373 10.9488 19.8217 10.9167 19.861C10.912 19.8668 10.8785 19.9186 10.8716 19.9285C10.8291 19.9895 10.8047 20.0139 10.7809 20.075C10.775 20.0797 10.766 20.0945 10.7633 20.0894C10.75 20.0634 10.3007 20.695 10.2474 20.8337C10.2024 20.852 10.2236 20.8415 10.182 20.9045C10.1453 20.9602 10.1377 20.974 10.1235 21.026L10.0876 21.0568C10.0691 21.0762 10.0639 21.0767 10.0465 21.1032C9.99289 21.185 10.0243 21.1353 10.0046 21.2126C9.94403 21.2553 9.52496 22.0031 9.51649 22.1146C9.51075 22.1197 9.50228 22.1355 9.49988 22.1306L9.31923 22.5119C9.22141 22.6468 8.8304 23.5772 8.83389 23.7551C8.77068 23.8071 8.76901 23.8565 8.74095 23.9421C8.71597 24.0182 8.69449 24.082 8.67057 24.1624C8.58832 24.4761 8.22046 25.5898 8.24972 25.8335C8.233 25.8597 8.24129 25.8363 8.21919 25.8956C8.21352 25.9109 8.19818 25.9659 8.19411 25.9844C8.17877 26.0535 8.16979 26.1247 8.15889 26.1962C8.10225 26.5167 7.93406 27.5444 7.97906 27.8378C7.91604 27.9205 7.92661 28.1497 7.92054 28.2739C7.90909 28.4444 7.85326 28.6674 7.8923 28.8228L7.82371 28.8481L7.8469 27.7033C7.91607 27.5963 7.90044 27.309 7.91131 27.1554C7.92992 27.038 7.94432 26.9572 7.92941 26.8363C8.00109 26.7447 8.00698 26.476 8.02058 26.3442C8.07005 26.0674 8.1193 25.7812 8.17143 25.5205C8.21363 25.31 8.35219 24.8542 8.34183 24.6873C8.38789 24.6381 8.37284 24.6707 8.40024 24.5741C8.41558 24.5203 8.42184 24.4701 8.43296 24.4143C8.48014 24.3029 8.7327 23.5009 8.72881 23.413C8.75905 23.3799 8.74316 23.4189 8.78006 23.3389C8.8115 23.271 8.80227 23.2755 8.81786 23.2114C8.86224 23.1448 8.94487 22.9305 8.94745 22.8536C8.97075 22.8293 8.96886 22.8414 8.99201 22.8C9.00997 22.7682 9.00386 22.7736 9.01782 22.7392C9.03963 22.6855 9.05322 22.6507 9.07336 22.5935C9.15515 22.4399 9.21207 22.2787 9.29 22.1205L9.45619 21.7877C9.50166 21.6921 9.49461 21.7262 9.49799 21.6475C9.57702 21.5701 9.63067 21.4222 9.66836 21.3095C9.71852 21.2497 9.79635 21.0887 9.80045 21.0076C9.83357 20.9788 9.8114 21.0236 9.852 20.9625C9.90641 20.881 9.86225 20.9668 9.88769 20.8708C9.96105 20.8328 10.124 20.5601 10.1784 20.4806L10.4626 20.0544C10.4741 20.0435 10.4957 20.0314 10.5233 19.9941C10.5695 19.9313 10.5507 19.9596 10.5816 19.883C10.613 19.872 10.595 19.8857 10.6267 19.848C10.6273 19.8475 10.6701 19.7882 10.6739 19.7829C10.6865 19.7651 10.7038 19.7426 10.7202 19.7164C10.7728 19.6325 10.7448 19.6943 10.7588 19.6286C10.8873 19.5294 10.9763 19.3605 11.072 19.2363C11.1229 19.1701 11.1675 19.1139 11.2176 19.0489C11.2838 18.9633 11.3348 18.9226 11.3723 18.8289C11.4453 18.7861 11.4507 18.7909 11.4765 18.7059C11.5402 18.6649 11.5067 18.6859 11.5572 18.6376C11.5776 18.618 11.6201 18.5766 11.6393 18.5559C11.6989 18.4917 11.7457 18.4329 11.7847 18.3549C11.8114 18.3403 11.7946 18.3523 11.8273 18.3239C11.9704 18.1994 12.4654 17.7041 12.5129 17.6089C12.6107 17.5634 12.5569 17.6115 12.612 17.5219C12.6951 17.496 12.7483 17.4259 12.7879 17.3572C12.7935 17.3546 13.7743 16.5951 13.8465 16.4838C13.9124 16.4712 13.861 16.4878 13.9199 16.456L15.0575 15.6836C15.1099 15.6476 15.0976 15.6615 15.1161 15.6338L15.4056 15.4776C15.4428 15.4481 15.4278 15.4592 15.4543 15.4297L15.5571 15.3904C15.6338 15.357 15.6943 15.3169 15.7631 15.2832C15.8454 15.2431 15.9132 15.2155 15.9691 15.1446C16.0225 15.1389 16.7496 14.8 16.7931 14.7645C16.913 14.7301 17.1147 14.6765 17.1989 14.5846L17.2605 14.571L17.5216 14.4874C17.1429 14.3559 16.7396 14.2543 16.3117 14.1826C16.3985 14.2613 16.5148 14.4312 16.5456 14.5965C16.4483 14.8246 16.1437 14.8864 15.9055 15.0094L15.5153 15.1232C15.1062 15.2374 14.5712 15.2107 14.1394 15.1845L14.0031 15.1767L13.4601 15.1118C13.4052 15.0672 13.4753 15.1061 13.3841 15.0751C13.3776 15.0729 13.3136 15.0573 13.2973 15.0535C13.2214 15.0364 13.1707 15.0255 13.0893 15.0094C12.9755 14.969 12.1958 14.7242 12.1621 14.7229C12.0683 14.5935 11.9844 14.6861 11.9269 14.5074C11.9682 14.465 12.0232 14.4191 12.0877 14.3718C11.3624 14.5554 10.6525 14.8181 9.95774 15.1603C8.45982 15.8983 7.13525 16.885 5.98411 18.1202C4.83304 19.3556 3.91849 20.7754 3.24043 22.3797C2.56233 23.9839 2.22338 25.6684 2.22338 27.4331C2.22338 29.9037 2.90925 31.845 4.28111 33.2567C5.65293 34.6684 7.53728 35.3743 9.93415 35.3743C11.6371 35.3743 13.1509 35.0374 14.4754 34.3636C15.7999 33.6898 17.1245 32.5668 18.4491 30.9947C18.7645 30.6096 19.0877 30.1845 19.4189 29.7192C19.75 29.254 20.1047 28.7005 20.4832 28.0587C20.8617 27.417 21.2874 26.6791 21.7605 25.8449C22.2335 25.0107 22.7696 24.016 23.3688 22.861L25.7341 18.3369C26.2888 17.2258 26.9531 16.0978 27.727 14.9528C27.5028 14.8575 27.1965 14.7488 27.1276 14.7476C27.0774 14.6957 27.1399 14.7333 27.0391 14.6897C27.0024 14.6738 26.9667 14.6669 26.9336 14.6573C26.851 14.6332 26.8025 14.6137 26.7135 14.5906L25.7005 14.3138L25.6599 14.3096C25.5179 14.2618 25.224 14.1888 25.0751 14.2119C25.0464 14.1936 25.0729 14.2028 25.0116 14.183C24.9929 14.1768 24.9585 14.1689 24.9449 14.1662C24.8981 14.1566 24.8436 14.1512 24.7932 14.1412C23.9217 14.061 23.1979 13.963 22.2911 13.9821C21.8864 13.9906 21.4564 14.0202 21.055 14.0635C20.7944 14.0915 20.074 14.2304 19.8943 14.2214C19.8458 14.2321 19.7966 14.2399 19.7499 14.2514C19.6471 14.2769 19.6932 14.2461 19.6311 14.3C19.5031 14.29 19.3336 14.3379 19.2122 14.3752C19.1207 14.3905 19.0301 14.4121 18.9419 14.435H18.9419ZM26.3142 12.7808C26.2498 12.7105 26.2669 12.7098 26.2206 12.5829C26.1376 12.3547 25.9997 12.1851 25.9526 12.0583C25.879 12.0251 25.8805 11.9806 25.8118 11.9102C25.7406 11.8371 25.7205 11.8297 25.6841 11.7413L25.5926 11.6473C25.5149 11.619 25.5174 11.6064 25.4524 11.5484C25.3869 11.49 25.3711 11.506 25.3361 11.4336L25.0987 11.2942C25.0941 11.2904 25.0872 11.2842 25.083 11.2805C25.0787 11.2764 25.0712 11.268 25.0677 11.2646C25.064 11.261 25.0551 11.242 25.0525 11.247C25.0497 11.2523 25.0421 11.2349 25.0371 11.2287L24.9447 11.1877C24.8258 11.1405 24.6313 11.0666 24.5579 10.9737C24.4727 10.9704 23.8464 10.723 23.6502 10.6688C23.2592 10.5609 22.9723 10.5484 22.5562 10.4946C22.6094 10.679 23.0287 11.3739 23.1861 11.589L23.2667 11.7483C23.3178 11.783 23.3074 11.7682 23.3588 11.8332L23.8837 12.4728C24.0853 12.7049 24.5077 13.0398 24.5711 13.1247C24.6515 13.1452 24.6308 13.1508 24.706 13.2023C24.7553 13.2361 24.7648 13.2335 24.8181 13.276C24.8712 13.3034 24.833 13.2803 24.8765 13.3127C24.8805 13.3157 24.89 13.3189 24.8931 13.3292C24.8962 13.3396 24.9035 13.3412 24.9089 13.3469C24.9722 13.3525 25.2578 13.5039 25.3587 13.5458C25.5097 13.6085 25.6995 13.6423 25.838 13.7019L26.3773 13.7697C26.3657 13.5892 26.413 13.4483 26.3879 13.2259C26.3698 13.0671 26.3092 12.9199 26.3141 12.7808L26.3142 12.7808ZM22.7127 12.3953L22.6016 12.2652C22.2416 11.7752 22.1263 11.7992 21.8395 11.5572C21.8348 11.5533 21.8268 11.5455 21.8232 11.5422L21.7907 11.51C21.7367 11.5015 21.4152 11.3379 21.3246 11.3C21.1521 11.228 20.9994 11.1961 20.8265 11.1348L20.4424 11.0373C20.2746 11.0652 20.0527 11.0082 19.8718 10.9944C19.6733 10.9791 19.4399 10.9822 19.2397 10.9883L18.9876 11.0037C18.7493 11.0399 18.6799 11.0173 18.7644 11.2364C18.8496 11.2929 18.803 11.2346 18.8466 11.3447C18.9338 11.3758 19.0605 11.5307 19.1035 11.5978C19.1886 11.65 19.2004 11.6566 19.2454 11.7482C19.3144 11.7802 19.3717 11.8413 19.4306 11.9133C19.4905 11.9866 19.5427 12.0243 19.5864 12.0755C19.6371 12.0755 19.6291 12.0602 19.6264 12.1046C19.7285 12.1636 19.7149 12.1833 19.8019 12.2613C20.4364 12.8305 20.8024 12.8883 21.0895 13.0845C21.1698 13.1063 21.1256 13.084 21.2065 13.1262C21.3018 13.176 21.2458 13.1503 21.28 13.179C21.3273 13.1787 21.8791 13.3172 22.0166 13.3454L22.7586 13.3735C22.8816 13.3417 22.9195 13.34 22.9481 13.2211C22.9746 13.1111 22.9519 12.9864 22.9244 12.8875C22.8787 12.7229 22.7239 12.4774 22.7126 12.3953L22.7127 12.3953ZM19.2373 13.8231C19.2702 13.7973 19.2345 13.8184 19.2944 13.7893C19.2994 13.7869 19.3481 13.7677 19.3558 13.7648L19.6604 13.6298C19.6361 13.4394 19.512 13.3142 19.4618 13.153L19.033 12.6803C18.9334 12.5862 18.9259 12.6109 18.9097 12.5553C18.8343 12.5229 18.8564 12.5355 18.8238 12.4912L18.789 12.4685C18.7066 12.4447 18.7251 12.4511 18.6467 12.4029C18.646 12.4025 18.6061 12.3763 18.5951 12.3681C18.5635 12.3447 18.5642 12.3456 18.544 12.3243C18.4736 12.3161 18.1507 12.1617 18.0184 12.1191C17.81 12.0521 17.6392 12.0238 17.4109 12.0023C17.056 11.976 16.7562 11.9941 16.4082 12.0269C16.185 12.0656 15.9781 12.0934 15.768 12.1547C15.6202 12.1977 15.2927 12.3418 15.2068 12.3523C15.1764 12.3884 15.2009 12.382 15.1274 12.4064C15.1572 12.5821 15.212 12.5739 15.3218 12.6531C15.4036 12.7121 15.4657 12.7567 15.5497 12.8127C15.6568 12.8842 15.9444 13.0527 16.0035 13.1103C16.0928 13.1439 16.1504 13.1606 16.2092 13.2379L16.3781 13.3041C16.4333 13.3213 16.4771 13.3376 16.5226 13.3617C16.5555 13.379 16.5478 13.3748 16.5756 13.3936C16.6124 13.4184 16.6007 13.4099 16.6255 13.4336C16.7525 13.442 17.0099 13.5734 17.1702 13.6253C17.2996 13.6672 17.6027 13.7336 17.7003 13.7793L18.0158 13.8339C18.2024 13.8695 18.442 13.8944 18.6355 13.8926C18.8438 13.8907 19.0837 13.8177 19.2373 13.823V13.8231ZM11.8145 17.3746L12.2159 17.25C12.285 17.2076 12.5324 17.122 12.6354 17.0791C12.7821 17.0181 12.8892 16.9355 13.0159 16.8852C13.1088 16.813 13.2364 16.7359 13.3439 16.6531C13.4142 16.5991 13.4126 16.6029 13.4926 16.5259C13.5522 16.4681 13.5765 16.4525 13.6501 16.4194C13.6809 16.3629 13.772 16.2748 13.8213 16.2137C13.5482 16.0015 13.2386 15.7777 12.8073 15.6873C12.0859 15.5363 11.6927 15.7376 11.453 15.732C11.394 15.7924 11.1521 15.8727 11.0524 15.9166C10.9081 15.9801 10.7787 16.0612 10.6425 16.1106C10.6157 16.1367 10.095 16.4563 9.88835 16.6351C9.74266 16.7612 9.30596 17.1343 9.28266 17.3096C9.53583 17.4905 10.8038 17.4739 11.2128 17.4475C11.3914 17.4361 11.6764 17.3613 11.8145 17.3746V17.3746ZM8.85403 20.2585C8.9409 20.1765 9.17398 20.1378 9.30727 20.1051C9.45623 20.0382 9.60421 19.9916 9.76352 19.9197C9.86054 19.876 10.1247 19.7349 10.1973 19.7263C10.2563 19.637 10.3944 19.5757 10.487 19.508C10.9197 19.192 11.0592 18.8831 11.2244 18.7632C11.2494 18.645 11.3617 18.5914 11.377 18.4238C11.1384 18.3052 10.963 18.2011 10.6467 18.1404C10.2159 18.0576 9.95254 18.2027 9.74851 18.1933C9.68243 18.2582 9.46637 18.3273 9.36099 18.3504L9.30287 18.3562C9.2558 18.4238 9.2317 18.4213 9.15329 18.4594C9.07092 18.4995 9.04741 18.5159 8.95777 18.5427C8.95737 18.5433 8.32177 18.9735 8.11996 19.1985L7.47101 20.0338C7.44611 20.1049 7.45287 20.0929 7.411 20.1542C7.40042 20.1697 7.38748 20.1881 7.37476 20.2025C7.35059 20.2298 7.35008 20.2254 7.32322 20.2475L7.28312 20.4105C7.56636 20.4388 7.85653 20.4213 8.1306 20.3854C8.31849 20.3608 8.70452 20.2488 8.85407 20.2585L8.85403 20.2585ZM23.7057 16.8494C23.7602 16.783 23.8205 16.7851 23.913 16.751C24.0132 16.714 24.0485 16.6895 24.1531 16.6648C24.2067 16.6254 24.4216 16.5289 24.4894 16.4967C25.1485 16.1818 25.7046 15.6524 26.0359 14.9948C26.1112 14.8452 26.1503 14.7986 26.1127 14.6549C26.0405 14.635 26.0172 14.6469 25.9818 14.5839L25.6454 14.5249C25.6188 14.5201 25.5541 14.5133 25.5354 14.5089L25.446 14.477C25.346 14.5045 25.1753 14.509 25.0826 14.4795L24.8945 14.5302C24.8103 14.5452 24.7558 14.5593 24.6692 14.5721L24.5757 14.5874L24.5407 14.6164C24.4322 14.6871 24.5739 14.6013 24.5028 14.6384C24.4861 14.6472 24.464 14.6546 24.4447 14.6624C24.3715 14.6922 24.3765 14.6915 24.3062 14.7122C24.2848 14.7362 24.0124 14.8918 23.9466 14.9387C23.3871 15.3372 23.198 15.7781 23.0925 15.8911C23.062 15.9897 23.0434 16.0438 22.9699 16.1094C22.9637 16.1916 22.9385 16.2374 22.8942 16.2819L22.6966 16.6979C22.685 16.8295 22.6307 16.8278 22.6419 17.0067C23.0744 17.0738 23.4108 16.8422 23.7057 16.8494L23.7057 16.8494ZM6.44276 23.6379L6.81323 23.4885C6.99069 23.4371 7.57195 23.1691 7.65963 23.1645C7.73029 23.0791 7.744 23.0968 7.8356 23.0467C7.8931 23.0153 7.95522 22.9722 8.00636 22.9421C8.13646 22.8655 8.20687 22.8001 8.32482 22.7222C8.46153 22.6355 8.55353 22.5334 8.66738 22.4126C8.73873 22.3368 8.91753 22.1563 8.98732 22.1062C9.01746 22.0196 9.07558 21.976 9.1305 21.9052C9.18135 21.8397 9.21807 21.7948 9.261 21.7303C9.32268 21.6377 9.41831 21.4137 9.49178 21.3439C9.4884 21.1995 9.56306 21.1054 9.48004 20.9704C9.24286 20.8625 8.40217 20.9217 8.17822 21.0205C7.55109 21.2971 7.45931 21.4895 7.2824 21.5917L7.12595 21.7207L6.67096 22.3111C6.52117 22.5228 6.34942 22.8923 6.29239 22.9677C6.26909 23.0535 6.24022 23.1034 6.21151 23.1847C6.20006 23.2168 6.1877 23.2601 6.17418 23.2861C6.12543 23.3794 6.14604 23.3325 6.11915 23.3621C6.12972 23.4783 6.07567 23.5043 6.10123 23.659C6.22623 23.717 6.31918 23.6231 6.4428 23.6379L6.44276 23.6379ZM5.96088 26.8445C5.98952 26.7977 6.10875 26.7347 6.18341 26.7204C6.23833 26.6352 6.35069 26.5755 6.44883 26.5448C6.4753 26.4987 6.88281 26.2103 6.96859 26.1388C8.01302 25.2682 7.95769 24.8763 8.1619 24.6098L8.28215 24.2016L8.25594 23.841C8.21326 23.7305 7.77438 23.8129 7.60409 23.7875C7.52746 23.8574 7.36334 23.899 7.26502 23.9515C7.16044 24.0072 7.04729 24.0905 6.93013 24.1296C6.90636 24.1703 6.92199 24.1552 6.87103 24.1934C6.78965 24.2545 6.84784 24.2191 6.78925 24.235C6.70506 24.3409 6.66235 24.3889 6.54861 24.4373C6.52033 24.4983 6.485 24.5179 6.43066 24.5846C6.37813 24.6492 6.3845 24.6784 6.31899 24.6939L6.06582 25.066L6.04692 25.1008L5.93885 25.3372C5.83206 25.5564 5.74249 25.7775 5.67252 26.0201C5.62436 26.1869 5.53283 26.7082 5.4935 26.7953V27.0326C5.64853 27.0427 5.80945 26.8959 5.96081 26.8444L5.96088 26.8445ZM13.5536 20.8529L14.08 19.9889C14.0801 19.9877 14.4158 19.1259 14.4309 19.0996L14.4531 18.9878C14.5544 18.6391 14.5532 18.2008 14.5525 17.8131C14.5521 17.6147 14.5436 17.4317 14.4702 17.2639C14.4207 17.1508 14.3339 16.9099 14.2467 16.8603C14.2413 16.8655 14.2329 16.8809 14.2302 16.8756C14.2274 16.8704 14.2175 16.8873 14.2137 16.8905L13.8857 17.081L13.8549 17.1042L13.4767 17.4446C13.4549 17.5122 13.4589 17.5355 13.3757 17.5685C13.3492 17.681 13.3409 17.6554 13.2777 17.7614C13.2313 17.8394 13.2162 17.8852 13.1813 17.969C13.1476 18.0497 13.1161 18.1055 13.0834 18.1773C13.0327 18.2885 13.0423 18.3293 12.9879 18.3939C12.9964 18.4603 12.9738 19.529 12.9647 19.5681L12.9897 19.636C13.0076 19.7031 12.9863 19.6118 13.0005 19.6866L13.0516 19.9946C13.1108 20.1325 13.1597 20.2981 13.218 20.4427C13.2718 20.5763 13.3714 20.7361 13.4003 20.8583C13.4486 20.8841 13.4422 20.8798 13.5127 20.8947L13.5537 20.8529H13.5536ZM6.03641 30.097L6.15164 29.9778L6.41954 29.7369L6.48813 29.6636C6.52382 29.5562 6.73599 29.3492 6.82501 29.238L7.15041 28.8019L7.24943 28.6298C7.28334 28.5386 7.24605 28.5823 7.31922 28.5283C7.33514 28.42 7.46847 28.1734 7.51623 28.0391C7.56748 27.8949 7.63876 27.686 7.66552 27.5189L7.71677 27.3094C7.71826 27.3135 7.72313 27.2947 7.72731 27.2879C7.7039 27.1765 7.73131 27.0607 7.71964 26.931C7.68282 26.5199 7.48399 26.7021 7.24663 26.6957C7.11457 26.8276 6.67802 26.8605 6.17723 27.5978C6.13049 27.6666 6.09999 27.7251 6.05223 27.8068L5.93169 28.0051C5.91806 28.0857 5.8076 28.3197 5.76681 28.4381C5.7048 28.6182 5.68085 28.7222 5.6425 28.904C5.57471 29.3415 5.48129 29.9294 5.61226 30.3429C5.77448 30.3116 5.88811 30.143 6.03641 30.0969V30.097ZM16.4868 17.917C16.5192 17.8345 16.5592 17.7723 16.5958 17.6967L16.703 17.5157C16.7054 17.5204 16.7137 17.5046 16.7194 17.4995C16.7268 17.3974 16.8211 17.2182 16.8633 17.1022C16.9095 16.9755 16.9483 16.8347 16.9734 16.6815C17.0189 16.4028 16.9779 15.8388 17.0197 15.67C16.9889 15.6266 17.022 15.7042 16.9837 15.6058C16.9628 15.5518 16.9688 15.558 16.9542 15.4994C16.6533 15.3427 16.5996 15.5389 16.3506 15.5641C16.2885 15.644 16.2462 15.6497 16.156 15.7114C16.0673 15.7723 16.0531 15.8079 15.9495 15.8468C15.9257 15.8881 15.9256 15.8879 15.8805 15.9338C15.8355 15.9796 15.8357 15.9797 15.7951 16.0039L15.405 16.6351C15.4029 16.6461 15.3961 16.6479 15.3911 16.6539C15.3826 16.7488 15.2818 16.9707 15.2499 17.1104C15.2128 17.2733 15.1949 17.4651 15.1828 17.6483C15.1575 18.0329 15.189 18.4044 15.2563 18.7641C15.2764 18.8367 15.2957 18.9068 15.3203 18.9756C15.3235 18.9845 15.3613 19.0698 15.3632 19.0722C15.4148 19.1377 15.3448 19.092 15.4456 19.1343C15.4984 19.0687 15.5416 19.0581 15.5989 19.0032C15.6623 18.9425 15.6847 18.9212 15.7413 18.8691C16.1451 18.4974 16.4147 17.9825 16.4868 17.917V17.917ZM7.06281 32.5745C7.08811 32.4754 7.08473 32.4998 7.13529 32.4064C7.15172 32.3761 7.15212 32.3657 7.17448 32.3343C7.21617 32.2759 7.19868 32.3029 7.23667 32.2729L7.28058 32.1689C7.30871 32.0892 7.42096 31.8315 7.48199 31.7644C7.48664 31.6458 7.57621 31.4614 7.61466 31.3271C7.66403 31.1545 7.68951 31.0406 7.71895 30.8673L7.74323 30.4983L7.72942 30.0107L7.67039 29.8612C7.65603 29.808 7.63767 29.7275 7.61815 29.6904C7.54131 29.544 7.4383 29.6148 7.30715 29.6505L7.14903 29.7188L6.87703 29.9195C6.85064 29.9697 6.68201 30.1825 6.61262 30.2112C6.57711 30.3004 6.55519 30.3418 6.47381 30.4058C6.46646 30.4546 6.32805 30.7068 6.28683 30.7636C6.27338 30.8194 6.27723 30.8309 6.25029 30.8905C6.21347 30.972 6.23008 30.9315 6.19955 30.9652C6.2054 31.0666 5.98789 31.8756 6.07084 32.6084C6.08887 32.7669 6.16749 32.9578 6.14659 33.1023C6.2086 33.182 6.19246 33.1651 6.20991 33.2729C6.25 33.3777 6.24361 33.453 6.31838 33.5273C6.46156 33.463 6.62847 33.2393 6.72909 33.084C6.77423 33.0142 7.02631 32.6021 7.06284 32.5744L7.06281 32.5745ZM12.3366 22.0366C12.3665 21.9071 12.3933 21.6628 12.4625 21.5724C12.4601 21.5345 12.5377 20.4797 12.5384 20.4774L12.4708 20.0509L12.3755 19.6091C12.3044 19.5311 12.2522 19.3735 12.1935 19.2743C12.1021 19.1198 12.0311 19.0906 11.9567 18.9766C11.7558 19.0516 11.721 19.1757 11.5921 19.2485C11.569 19.3209 11.5925 19.2893 11.5446 19.3537C11.5443 19.354 11.5037 19.396 11.5033 19.3964C11.4609 19.4345 11.4834 19.412 11.4476 19.439C11.4367 19.4846 11.4478 19.455 11.4198 19.5078C11.4106 19.5251 11.3927 19.5519 11.3773 19.5757C11.3516 19.6154 11.3221 19.6677 11.2982 19.6951C11.2739 19.7732 11.2614 19.7928 11.2281 19.8715C11.1967 19.9458 11.2071 19.9554 11.1453 20.0162C11.1431 20.1734 11.0584 20.4025 11.0456 20.6093C11.0316 20.8355 11.0823 21.1105 11.0634 21.288C11.0923 21.3222 11.0734 21.2832 11.0955 21.3413C11.0973 21.3456 11.1166 21.4204 11.119 21.4304C11.1376 21.5088 11.1489 21.5516 11.1605 21.6314C11.2228 21.743 11.2873 21.9693 11.3611 22.1106C11.4101 22.2044 11.5752 22.4617 11.588 22.5315C11.6273 22.5616 11.6053 22.5409 11.6395 22.5772L11.8362 22.8668C11.9099 22.9019 11.8729 22.91 11.9812 22.9278C12.113 22.7175 12.2662 22.3076 12.3366 22.0366V22.0366ZM10.9817 25.0902C11.0007 25.0238 11.0426 24.9177 11.073 24.8258L11.1146 24.6445C11.1167 24.639 11.1236 24.6193 11.1252 24.6234C11.1268 24.6275 11.132 24.6093 11.1363 24.6027C11.1014 24.4338 11.1604 24.2083 11.1673 24.0226C11.175 23.8172 11.137 23.5935 11.168 23.396C11.1243 23.3327 11.1157 23.1792 11.1005 23.0795C11.0664 22.9057 11.0203 22.7255 10.9672 22.5657C10.9223 22.4306 10.7958 22.2132 10.7809 22.1265C10.6083 21.9549 10.3889 21.4617 10.1684 21.4321C9.98133 21.5645 9.82281 21.8027 9.72307 22.0591C9.55819 22.4826 9.65928 22.6448 9.60624 23.0548C9.65004 23.1108 9.66029 23.2327 9.67123 23.3153C9.78519 23.7668 10.0085 24.1778 10.0154 24.2231C10.1027 24.283 10.0979 24.2732 10.1376 24.3772C10.1818 24.3976 10.3583 24.6076 10.3896 24.6641L10.8568 25.139L10.9816 25.0902L10.9817 25.0902ZM10.3953 26.2883L10.2468 25.6728L10.1922 25.505L10.1141 25.264L10.0639 25.1911C10.0406 25.1441 10.0392 25.1299 10.0241 25.0762C9.96003 24.99 9.90539 24.8631 9.8424 24.772C9.6765 24.5322 9.55975 24.4325 9.3426 24.2467C9.26427 24.1796 9.12683 24.066 9.04006 24.0155C8.86312 24.1685 8.73688 24.4781 8.69031 24.6939C8.63455 24.9049 8.64044 25.0304 8.65887 25.2532L8.67381 25.4466C8.67868 25.4525 8.68464 25.47 8.68646 25.4657L8.75345 25.6304C8.77864 25.7092 8.80009 25.7673 8.8204 25.8405L8.97943 26.1677L9.06282 26.309C9.12003 26.3469 9.14115 26.3977 9.17957 26.4536C9.37331 26.7359 9.58072 26.9502 9.85476 27.1653C9.93458 27.228 10.1337 27.3484 10.1674 27.4039C10.2638 27.4375 10.2857 27.4667 10.3726 27.4481C10.4837 27.1708 10.4088 26.6127 10.3953 26.2883L10.3953 26.2883ZM9.21396 33.0315C9.18895 32.9994 9.21254 33.046 9.17961 32.974C9.17594 32.9662 9.16678 32.9409 9.16369 32.9323L9.06518 32.6097C9.0224 32.5752 8.93382 32.3753 8.89459 32.31C8.82691 32.1974 8.76261 32.1 8.69576 32.0089C8.53714 31.7928 8.41053 31.6692 8.18764 31.5183C8.08422 31.52 8.05834 31.5451 8.01207 31.6196C7.99502 31.6468 7.99353 31.6587 7.97398 31.6924L7.95184 31.7289C7.93105 31.7601 7.92767 31.7634 7.91106 31.7812C7.904 31.8913 7.80488 32.1626 7.78016 32.335C7.74767 32.5624 7.79012 32.8189 7.76853 32.9625C7.79383 32.9976 7.78507 32.9664 7.81222 33.0444C7.82105 33.07 7.83152 33.1348 7.8369 33.161C7.90957 33.3728 7.96253 33.5494 8.0454 33.7352C8.10927 33.8788 8.28651 34.1511 8.3141 34.2588L8.62128 34.6299C8.75178 34.8036 8.74538 34.7638 8.87464 34.8747L8.96598 34.9642C9.03029 34.9874 9.18681 35.0813 9.23737 35.1269H9.25173C9.39621 34.8491 9.35321 34.3646 9.34307 34.0357C9.33002 33.612 9.20574 33.1243 9.21389 33.0314L9.21396 33.0315ZM10.229 29.2384C10.2243 29.2316 10.2183 29.2293 10.2163 29.2169C10.2144 29.2048 10.2067 29.201 10.2042 29.1954C10.1325 29.0375 10.2203 29.2474 10.1845 29.1518L9.97173 28.4421C9.95821 28.4278 9.75498 27.9956 9.69886 27.9107C9.64332 27.8267 9.58938 27.7526 9.52816 27.6652C9.46088 27.5689 9.39018 27.5252 9.34376 27.4337C9.2575 27.3701 9.12461 27.2406 9.05486 27.1531C8.97125 27.1196 9.05264 27.168 8.97464 27.1113C8.96784 27.1063 8.94854 27.0897 8.94239 27.0841C8.91699 27.0608 8.9192 27.0591 8.89899 27.0353C8.81612 27.0145 8.48443 26.7998 8.35335 26.7358L8.18088 27.1624C8.21472 27.488 8.09662 27.5824 8.28109 28.1237C8.41417 28.5141 8.61587 28.7626 8.64331 28.8605C8.79569 28.9724 8.83338 29.1302 9.08379 29.3198L9.61482 29.7125C9.78908 29.7133 10.0377 29.9708 10.2496 29.8711C10.335 29.6738 10.1931 29.4248 10.2289 29.2384L10.229 29.2384ZM10.3343 31.3619C10.2984 31.3269 10.1799 31.0935 10.1361 31.0192C9.85312 30.5395 9.56815 30.3114 9.43827 30.1179C9.38909 30.097 9.39647 30.1061 9.36819 30.0667C9.26063 30.005 9.17474 29.8811 8.89081 29.7393C8.73099 29.6594 8.43405 29.5587 8.24274 29.6437C8.09938 29.8053 8.13039 30.1518 8.17877 30.3505C8.23111 30.5653 8.40744 30.8516 8.42416 30.9557C8.45986 30.9866 8.4347 30.9456 8.48676 31.0214C8.52405 31.0758 8.48447 30.9992 8.51551 31.0863C8.5793 31.1355 8.56327 31.1353 8.61372 31.1982C8.64644 31.2391 8.63532 31.2142 8.66665 31.2558C8.71743 31.3234 8.68468 31.2769 8.69671 31.322C8.72873 31.3457 8.7191 31.3379 8.74843 31.3651L8.95275 31.5922C9.03287 31.6189 9.00528 31.6097 9.07885 31.6748C9.10709 31.6998 9.11992 31.7049 9.14184 31.7235C9.18215 31.7575 9.16594 31.7339 9.17757 31.7697C9.28306 31.8061 9.24097 31.7723 9.3137 31.8518C9.61958 32.0141 9.80969 32.1104 10.1673 32.2177L10.623 32.3102L10.6154 32.3016C10.6255 31.9282 10.4053 31.6595 10.3342 31.3619L10.3343 31.3619ZM39.0932 22.527C39.1578 22.5975 39.1406 22.5983 39.187 22.7258C39.2704 22.9549 39.4089 23.1252 39.4562 23.2525C39.5302 23.2858 39.5287 23.3305 39.5975 23.4012C39.6691 23.4746 39.6893 23.4821 39.7258 23.5708L39.8176 23.6653C39.8958 23.6936 39.8932 23.7064 39.9585 23.7646C40.0242 23.8231 40.0401 23.8071 40.0753 23.8798L40.3136 24.0197C40.3183 24.0237 40.3252 24.0298 40.3294 24.0336C40.3338 24.0376 40.3412 24.0461 40.3448 24.0496C40.3485 24.0531 40.3575 24.0723 40.3601 24.0672C40.3629 24.062 40.3704 24.0794 40.3756 24.0856L40.4682 24.1268C40.5877 24.174 40.783 24.2484 40.8568 24.3416C40.9422 24.345 41.5711 24.5934 41.7682 24.6478C42.1608 24.7561 42.4489 24.7687 42.8667 24.8226C42.8132 24.6376 42.3922 23.9397 42.2341 23.7239L42.1532 23.5638C42.1018 23.529 42.1124 23.5439 42.0607 23.4786L41.5337 22.8362C41.3312 22.6032 40.907 22.2669 40.8434 22.1817C40.7627 22.1611 40.7833 22.1554 40.7079 22.1038C40.6584 22.0698 40.6489 22.0724 40.5953 22.0297C40.5421 22.0024 40.5804 22.0254 40.5369 21.993C40.5327 21.9898 40.5232 21.9867 40.5201 21.9763C40.517 21.9659 40.5097 21.9644 40.5042 21.9586C40.4406 21.9529 40.1539 21.8009 40.0525 21.7589C39.9009 21.6959 39.7103 21.6619 39.5713 21.6021L39.0296 21.534C39.0414 21.7153 38.9938 21.8567 39.0192 22.08C39.0372 22.2396 39.098 22.3874 39.0932 22.527L39.0932 22.527ZM42.7095 22.914L42.8211 23.0447C43.1826 23.5368 43.2983 23.5127 43.5863 23.7557C43.591 23.7596 43.599 23.7674 43.6028 23.7707L43.6353 23.8031C43.6896 23.8116 44.0123 23.9759 44.1034 24.0139C44.2765 24.0862 44.43 24.1183 44.6035 24.1799L44.9892 24.2778C45.1578 24.2497 45.3805 24.307 45.5621 24.3209C45.7615 24.3362 45.9958 24.333 46.1969 24.3269L46.45 24.3114C46.6893 24.2751 46.759 24.2979 46.6741 24.0779C46.5887 24.0211 46.6355 24.0797 46.5916 23.969C46.5041 23.9379 46.3769 23.7823 46.3336 23.7149C46.2482 23.6626 46.2364 23.6559 46.1911 23.5639C46.1218 23.5318 46.0645 23.4704 46.0053 23.3981C45.9451 23.3245 45.8927 23.2866 45.8488 23.2353C45.7979 23.2353 45.8059 23.2506 45.8086 23.2061C45.7061 23.1468 45.7197 23.127 45.6324 23.0487C44.9953 22.4772 44.6277 22.4191 44.3394 22.222C44.2588 22.2001 44.3031 22.2225 44.222 22.1802C44.1263 22.1302 44.1826 22.156 44.1481 22.1272C44.1008 22.1275 43.5465 21.9884 43.4085 21.96L42.6634 21.932C42.5399 21.9637 42.5019 21.9655 42.4732 22.0849C42.4465 22.1953 42.4693 22.3206 42.497 22.42C42.5428 22.5851 42.6983 22.8316 42.7095 22.9141L42.7095 22.914ZM46.1993 21.4805C46.1663 21.5063 46.2021 21.4852 46.1419 21.5143C46.1369 21.5167 46.0881 21.536 46.0803 21.539L45.7745 21.6745C45.7989 21.8656 45.9235 21.9915 45.9738 22.1533L46.4045 22.628C46.5045 22.7225 46.5121 22.6976 46.5283 22.7534C46.604 22.786 46.5818 22.7733 46.6145 22.8178L46.6495 22.8406C46.7322 22.8645 46.7135 22.8581 46.7923 22.9065C46.793 22.9069 46.8331 22.9332 46.8442 22.9414C46.8758 22.9649 46.8752 22.964 46.8954 22.9854C46.9661 22.9936 47.2904 23.1487 47.4233 23.1915C47.6326 23.2588 47.804 23.2872 48.0332 23.3087C48.3897 23.3351 48.6908 23.3169 49.0401 23.284C49.2642 23.2452 49.472 23.2172 49.683 23.1557C49.8314 23.1125 50.1603 22.9678 50.2465 22.9573C50.277 22.9211 50.2523 22.9275 50.3262 22.903C50.2963 22.7266 50.2413 22.7348 50.131 22.6553C50.0489 22.5959 49.9866 22.5513 49.9022 22.495C49.7946 22.4232 49.5059 22.2539 49.4466 22.1962C49.3568 22.1625 49.2989 22.1457 49.24 22.0681L49.0704 22.0016C49.015 21.9843 48.9709 21.968 48.9252 21.9437C48.8923 21.9263 48.8999 21.9306 48.8721 21.9118C48.8352 21.8869 48.8468 21.8954 48.8219 21.8715C48.6944 21.8632 48.436 21.7312 48.275 21.679C48.1451 21.637 47.8408 21.5702 47.7427 21.5244L47.426 21.4695C47.2385 21.4338 46.9979 21.4088 46.8035 21.4106C46.5944 21.4125 46.3536 21.4857 46.1993 21.4805V21.4805ZM49.9369 20.175L49.545 20.2893C49.3058 20.4127 48.9999 20.4748 48.9022 20.7039C48.9343 20.8761 49.0589 21.0535 49.1469 21.128C49.1992 21.1723 49.2709 21.2267 49.3356 21.2734C49.4167 21.3319 49.4544 21.3273 49.5048 21.42C49.5848 21.4308 49.7025 21.4796 49.7659 21.5426C49.8136 21.557 49.8453 21.564 49.8888 21.5832C50.0608 21.6591 49.7582 21.5075 49.9282 21.6029C49.9912 21.6382 49.9522 21.6163 49.9813 21.6398L50.393 21.6945L50.627 21.7155C51.2533 21.7622 51.7541 21.688 52.3008 21.4921C52.695 21.3511 53.3162 21.0233 53.5401 20.7933C53.4824 20.6137 53.398 20.7067 53.3038 20.5768C53.2701 20.5755 52.4871 20.3298 52.3727 20.2892C52.291 20.273 52.2402 20.2621 52.164 20.2449C52.1475 20.2411 52.0833 20.2254 52.0768 20.2232C51.9852 20.1921 52.0556 20.2311 52.0005 20.1862L51.4552 20.1212L51.3184 20.1134C50.8849 20.0871 50.3474 20.0602 49.9369 20.1749L49.9369 20.175ZM53.653 17.9142L53.2499 18.0392C53.1804 18.0819 52.932 18.1679 52.8286 18.2109C52.6813 18.2721 52.5738 18.355 52.4466 18.4057C52.3533 18.4782 52.2251 18.5555 52.1172 18.6386C52.0467 18.693 52.0483 18.689 51.968 18.7664C51.908 18.8244 51.8836 18.84 51.8097 18.8734C51.7788 18.9302 51.6873 19.0186 51.6378 19.0799C51.9121 19.293 52.2229 19.5178 52.656 19.6085C53.3804 19.76 53.7752 19.558 54.016 19.5637C54.0752 19.5029 54.3182 19.4223 54.4182 19.3782C54.5632 19.3146 54.6929 19.233 54.8298 19.1833C54.8567 19.1572 55.3795 18.8364 55.5871 18.6568C55.7334 18.5302 56.1718 18.1555 56.1952 17.9794C55.941 17.7979 54.6679 17.8146 54.2571 17.8409C54.0777 17.8525 53.7915 17.9276 53.653 17.9142V17.9142ZM56.6255 15.0184C56.5384 15.1007 56.3043 15.1395 56.1705 15.1723C56.021 15.2396 55.8724 15.2863 55.7124 15.3585C55.6149 15.4024 55.3497 15.5441 55.2768 15.5527C55.2175 15.6425 55.0789 15.7039 54.9858 15.772C54.5514 16.0893 54.4114 16.3995 54.2454 16.5199C54.2203 16.6384 54.1077 16.6924 54.0922 16.8607C54.3317 16.9797 54.5079 17.0841 54.8255 17.1452C55.2582 17.2283 55.5226 17.0827 55.7275 17.0921C55.7938 17.0269 56.0107 16.9575 56.1166 16.9344L56.1749 16.9285C56.2222 16.8606 56.2464 16.8631 56.3251 16.8249C56.4079 16.7846 56.4314 16.7681 56.5214 16.7413C56.5219 16.7407 57.1601 16.3086 57.3627 16.0827L58.0145 15.244C58.0394 15.1726 58.0326 15.1845 58.0747 15.123C58.0852 15.1075 58.0983 15.0891 58.1111 15.0746C58.1354 15.0472 58.1358 15.0516 58.1628 15.0294L58.203 14.8658C57.9186 14.8373 57.6272 14.8548 57.3521 14.8908C57.1634 14.9156 56.7757 15.0281 56.6255 15.0184L56.6255 15.0184ZM41.7125 18.4416C41.6577 18.5083 41.5972 18.5061 41.5043 18.5404C41.4036 18.5775 41.3682 18.6022 41.2631 18.627C41.2093 18.6665 40.9936 18.7633 40.9256 18.7958C40.2638 19.1119 39.7053 19.6436 39.3726 20.3039C39.297 20.4541 39.2577 20.5009 39.2955 20.6452C39.3679 20.6652 39.3914 20.6531 39.4269 20.7165L39.7646 20.7757C39.7914 20.7805 39.8564 20.7874 39.8752 20.7918L39.965 20.8237C40.0654 20.7962 40.2368 20.7917 40.3299 20.8213L40.5186 20.7704C40.6033 20.7553 40.6579 20.7412 40.745 20.7283L40.8389 20.7129L40.874 20.6839C40.983 20.6129 40.8407 20.699 40.912 20.6618C40.9287 20.6529 40.9509 20.6455 40.9703 20.6376C41.044 20.6077 41.0388 20.6084 41.1094 20.5876C41.1309 20.5635 41.4044 20.4074 41.4706 20.3602C42.0324 19.96 42.2222 19.5173 42.3282 19.4038C42.3589 19.3049 42.3775 19.2506 42.4513 19.1847C42.4575 19.1021 42.483 19.0561 42.5274 19.0115L42.7258 18.5937C42.7374 18.4616 42.7919 18.4633 42.7806 18.2837C42.3464 18.2163 42.0086 18.4489 41.7124 18.4416H41.7125ZM59.0469 11.6249L58.6749 11.7749C58.4967 11.8265 57.913 12.0956 57.8249 12.1002C57.7541 12.186 57.7402 12.1682 57.6483 12.2185C57.5906 12.2501 57.5281 12.2935 57.4768 12.3236C57.3462 12.4005 57.2754 12.4662 57.157 12.5444C57.0197 12.6314 56.9274 12.7339 56.8131 12.8553C56.7414 12.9314 56.5618 13.1126 56.4918 13.163C56.4615 13.2499 56.4031 13.2937 56.3481 13.3647C56.2969 13.4306 56.2601 13.4756 56.217 13.5404C56.155 13.6335 56.0591 13.8585 55.9852 13.9284C55.9887 14.0733 55.9137 14.1679 55.9971 14.3035C56.2352 14.4119 57.0794 14.3523 57.3042 14.2532C57.9339 13.9754 58.0261 13.7822 58.2038 13.6796L58.3608 13.5501L58.8177 12.9572C58.9681 12.7447 59.1406 12.3737 59.1978 12.2979C59.2213 12.2118 59.2503 12.1618 59.2791 12.08C59.2905 12.0478 59.303 12.0044 59.3166 11.9783C59.3655 11.8845 59.3447 11.9316 59.3718 11.902C59.3613 11.7852 59.4155 11.7592 59.3899 11.6037C59.2644 11.5455 59.171 11.6398 59.0468 11.6249L59.0469 11.6249ZM45.0099 18.2044C44.9406 18.2519 44.7247 18.3332 44.6318 18.3814C44.182 18.6153 43.6653 19.0265 43.6284 19.044C43.6269 19.0864 43.6363 19.0727 43.5886 19.0727C43.5133 19.1678 43.426 19.2623 43.3236 19.3151L43.2179 19.4417L42.9797 19.7363C42.9669 19.7531 42.9612 19.7632 42.9461 19.7802C42.9051 19.8264 42.9522 19.7885 42.9141 19.8052L42.8866 19.8617C42.7792 20.0746 42.7091 20.2802 42.6096 20.4872C42.5749 20.6309 42.4637 20.9017 42.4855 21.0475C42.5837 21.1561 42.7485 21.1455 42.8973 21.1484C43.0522 21.1373 43.1525 21.1303 43.3055 21.1021C43.437 21.0777 43.5658 21.0199 43.6872 21.0242C43.733 20.9719 43.7185 20.9834 43.788 20.9501C43.8342 20.928 43.8776 20.9159 43.933 20.8987L44.3161 20.6042C44.3406 20.5653 44.313 20.5834 44.3713 20.5311C44.4173 20.4898 44.4095 20.5058 44.4489 20.4875C44.5212 20.3367 44.7311 20.1681 44.8299 19.9731C44.8786 19.8981 44.9331 19.8005 44.9751 19.7135C44.9989 19.6642 45.0119 19.6199 45.033 19.5761C45.0711 19.4971 45.0479 19.5228 45.1064 19.4765L45.2331 18.9905C45.2461 18.9089 45.2587 18.8343 45.2708 18.7479C45.2758 18.7126 45.2801 18.6592 45.2884 18.6264C45.3109 18.5375 45.2931 18.5888 45.3246 18.5477C45.3029 18.3837 45.3649 18.296 45.3502 18.1257L45.01 18.2044L45.0099 18.2044ZM59.5308 8.40502C59.502 8.45202 59.3823 8.51519 59.3073 8.52968C59.2522 8.61511 59.1393 8.67517 59.0408 8.70605C59.0142 8.75224 58.605 9.04192 58.5188 9.1137C57.4702 9.98787 57.5257 10.3814 57.3207 10.649L57.1999 11.0589L57.2262 11.4209C57.269 11.532 57.7098 11.4492 57.8808 11.4747C57.9577 11.4044 58.1224 11.3626 58.2212 11.31C58.3262 11.2541 58.4399 11.1705 58.5575 11.1312C58.5813 11.0904 58.5657 11.1054 58.6168 11.067C58.6986 11.0057 58.6401 11.0413 58.6989 11.0254C58.7836 10.9189 58.8264 10.8708 58.9406 10.8223C58.969 10.7609 59.0045 10.7412 59.059 10.6743C59.1118 10.6094 59.1054 10.58 59.1711 10.5645L59.4254 10.1909L59.4443 10.1559L59.5528 9.91864C59.6601 9.69842 59.75 9.47638 59.8204 9.23267C59.8686 9.06533 59.9606 8.54189 60 8.45439V8.21612C59.8444 8.20598 59.6828 8.3534 59.5309 8.40506L59.5308 8.40502ZM47.3592 17.6213L46.6545 18.2483C46.3904 18.5311 46.3357 18.6186 46.1258 18.8893L46.0499 18.9711C46.0266 19.0766 45.7947 19.4403 45.7012 19.7783C45.6624 19.9186 45.4909 20.7022 45.6177 20.8209C45.7692 20.9064 46.0298 20.7658 46.2033 20.772C46.2789 20.7008 46.448 20.6678 46.5526 20.6159C46.6734 20.556 46.758 20.4859 46.864 20.4121C46.946 20.3424 47.0334 20.2411 47.1126 20.1893C47.1678 20.0532 47.2774 19.9497 47.3619 19.8117C47.424 19.7101 47.5165 19.4789 47.5922 19.4242C47.5961 19.3167 47.7026 19.0828 47.7402 18.96C47.7835 18.8188 47.833 18.6353 47.8506 18.485L47.9021 18.2415C47.9038 18.2278 47.9088 18.225 47.9135 18.2175C47.8809 18.1111 47.8848 17.9014 47.9153 17.7899C47.911 17.783 47.9072 17.7735 47.905 17.7678C47.9029 17.7622 47.898 17.7525 47.8954 17.7453C47.8425 17.5985 47.931 17.8817 47.8797 17.6983L47.8207 17.4458C47.7851 17.3912 47.8013 17.4151 47.7704 17.3896C47.6337 17.4365 47.4817 17.539 47.3592 17.6212L47.3592 17.6213ZM51.9065 14.4214L51.3779 15.2891C51.3778 15.2902 51.0407 16.1555 51.0255 16.1821L51.0033 16.2942C50.9015 16.6445 50.9028 17.0846 50.9035 17.4739C50.9039 17.6731 50.9125 17.8569 50.9862 18.0254C51.0359 18.1389 51.1231 18.3809 51.2105 18.4307C51.216 18.4255 51.2244 18.41 51.2271 18.4153C51.2299 18.4204 51.2399 18.4034 51.2437 18.4003L51.5731 18.2091L51.6041 18.1858L51.9838 17.8438C52.0057 17.7761 52.0017 17.7527 52.0852 17.7195C52.1118 17.6066 52.1201 17.6323 52.1835 17.5259C52.2303 17.4474 52.2453 17.4016 52.2804 17.3174C52.3142 17.2363 52.3458 17.1804 52.3786 17.1081C52.4295 16.9965 52.4199 16.9555 52.4746 16.8907C52.4661 16.8241 52.4887 15.7508 52.4979 15.7116L52.4729 15.6435C52.4548 15.5761 52.4762 15.6677 52.462 15.5927L52.4106 15.2833C52.3512 15.1449 52.302 14.9786 52.2436 14.8334C52.1895 14.6993 52.0894 14.5388 52.0604 14.4161C52.012 14.3902 52.0185 14.3945 51.9477 14.3796L51.9065 14.4215L51.9065 14.4214ZM59.4549 5.13898L59.3392 5.25876L59.0701 5.50066L59.0014 5.57418C58.9655 5.68209 58.7524 5.88986 58.6631 6.00165L58.3363 6.43955L58.2369 6.61237C58.2027 6.7039 58.2403 6.66008 58.1668 6.71422C58.1508 6.82298 58.0169 7.07061 57.9689 7.20548C57.9174 7.35027 57.846 7.55995 57.819 7.72781L57.7676 7.9382C57.7661 7.93413 57.7612 7.95288 57.757 7.95976C57.7805 8.07167 57.753 8.1879 57.7647 8.31808C57.8017 8.73094 58.0012 8.54792 58.2396 8.55439C58.3722 8.42196 58.8107 8.38897 59.3134 7.64856C59.3604 7.57948 59.3911 7.52075 59.439 7.43876L59.5601 7.23961C59.5737 7.15881 59.6847 6.92376 59.7256 6.80486C59.7879 6.62402 59.8119 6.51955 59.8504 6.337C59.9186 5.89759 60.0123 5.30732 59.8808 4.89213C59.7179 4.9236 59.6038 5.09286 59.4549 5.13905V5.13898ZM48.9612 17.3695C48.9286 17.4523 48.8885 17.5148 48.8517 17.5908L48.7441 17.7725C48.7417 17.7677 48.7333 17.7837 48.7277 17.7887C48.7202 17.8913 48.6256 18.0712 48.5831 18.1878C48.5367 18.3149 48.4978 18.4562 48.4726 18.6102C48.4269 18.8899 48.468 19.4563 48.4261 19.6259C48.4571 19.6694 48.4237 19.5915 48.4623 19.6903C48.4833 19.7445 48.4772 19.7384 48.4919 19.7971C48.794 19.9544 48.8479 19.7575 49.0979 19.7321C49.1602 19.6519 49.2029 19.6464 49.2933 19.5843C49.3826 19.5231 49.3967 19.4874 49.5008 19.4483C49.5246 19.4069 49.5248 19.407 49.57 19.361C49.6152 19.315 49.6151 19.3148 49.6558 19.2906L50.0474 18.6567C50.0496 18.6456 50.0564 18.644 50.0614 18.6379C50.0698 18.5425 50.1713 18.3198 50.2032 18.1794C50.2405 18.0159 50.2585 17.8233 50.2706 17.6393C50.2959 17.2532 50.2644 16.8801 50.1968 16.519C50.1767 16.446 50.1573 16.3757 50.1325 16.3066C50.1293 16.2977 50.0914 16.212 50.0895 16.2096C50.0377 16.1438 50.1078 16.1896 50.0066 16.1473C49.9537 16.213 49.9103 16.2237 49.8528 16.2788C49.7891 16.3398 49.7666 16.3611 49.7098 16.4135C49.3044 16.7867 49.0336 17.3038 48.9612 17.3695V17.3695ZM58.4243 2.65126C58.3988 2.75081 58.4022 2.72633 58.3514 2.82015C58.335 2.85051 58.3346 2.86094 58.312 2.89245C58.2702 2.95099 58.2878 2.92404 58.2496 2.95414L58.2055 3.0585C58.1774 3.13853 58.0647 3.39729 58.0033 3.46463C57.9985 3.58383 57.9087 3.76888 57.8701 3.90375C57.8205 4.0772 57.795 4.19151 57.7654 4.36547L57.741 4.73603L57.7549 5.22578L57.8141 5.37581C57.8286 5.42918 57.847 5.51009 57.8666 5.54733C57.9437 5.69434 58.0472 5.62326 58.1789 5.58742L58.3377 5.51874L58.6109 5.31727C58.6373 5.26686 58.8066 5.05311 58.8763 5.02434C58.912 4.93488 58.9339 4.89324 59.0157 4.82896C59.0231 4.78007 59.162 4.52675 59.2034 4.46965C59.2169 4.41355 59.213 4.40201 59.24 4.34225C59.2771 4.26048 59.2604 4.30105 59.2911 4.26721C59.2851 4.16536 59.5036 3.35306 59.4203 2.61727C59.4022 2.4581 59.3233 2.26642 59.3442 2.12123C59.282 2.04135 59.2981 2.05818 59.2806 1.94994C59.2404 1.84472 59.2467 1.76909 59.1717 1.6945C59.028 1.75911 58.8603 1.98367 58.7593 2.13958C58.7139 2.20977 58.4609 2.62356 58.4242 2.65129L58.4243 2.65126ZM53.1286 13.2328C53.0985 13.3629 53.0716 13.6082 53.0021 13.699C53.0046 13.737 52.9265 14.7962 52.9259 14.7985L52.9939 15.2268L53.0895 15.6704C53.1609 15.7488 53.2133 15.907 53.2722 16.0065C53.364 16.1618 53.4354 16.191 53.5099 16.3055C53.7118 16.2302 53.7467 16.1056 53.8762 16.0325C53.8994 15.9598 53.8757 15.9915 53.9239 15.9268C53.9241 15.9266 53.965 15.8843 53.9653 15.8841C54.008 15.8457 53.9854 15.8683 54.0212 15.8412C54.0322 15.7954 54.0209 15.8251 54.0492 15.7721C54.0583 15.7547 54.0763 15.728 54.0918 15.704C54.1177 15.6641 54.1473 15.6116 54.1713 15.5841C54.1956 15.5057 54.2081 15.4859 54.2417 15.4068C54.2731 15.3323 54.2628 15.3226 54.3249 15.2616C54.327 15.1037 54.4121 14.8738 54.425 14.666C54.4389 14.4389 54.3881 14.1628 54.407 13.9845C54.378 13.9502 54.397 13.9894 54.3748 13.9311C54.3731 13.9267 54.3537 13.8516 54.3513 13.8416C54.3326 13.7629 54.3212 13.7198 54.3095 13.6397C54.2469 13.5277 54.1823 13.3004 54.1081 13.1586C54.0589 13.0643 53.8931 12.8059 53.8803 12.7359C53.8408 12.7056 53.863 12.7265 53.8286 12.69L53.6311 12.3992C53.557 12.364 53.5941 12.3559 53.4854 12.3381C53.3531 12.5491 53.1992 12.9608 53.1286 13.2328V13.2328ZM54.4891 10.1665C54.47 10.2332 54.4279 10.3397 54.3975 10.4321L54.3556 10.6142C54.3535 10.6196 54.3466 10.6394 54.345 10.6353C54.3434 10.6313 54.3382 10.6494 54.3339 10.656C54.3689 10.8257 54.3097 11.0521 54.3027 11.2387C54.295 11.4449 54.3332 11.6695 54.3019 11.8678C54.3459 11.9313 54.3545 12.0855 54.3698 12.1856C54.4039 12.3601 54.4503 12.541 54.5037 12.7015C54.5487 12.8372 54.6757 13.0555 54.6906 13.1426C54.864 13.3149 55.0843 13.8102 55.3057 13.8399C55.4935 13.7069 55.6527 13.4677 55.7529 13.2103C55.9185 12.7849 55.8169 12.6222 55.8703 12.2104C55.8262 12.1542 55.8159 12.0319 55.805 11.9488C55.6905 11.4954 55.4663 11.0828 55.4593 11.0372C55.3717 10.9772 55.3766 10.9869 55.3367 10.8825C55.2923 10.862 55.1151 10.6513 55.0836 10.5945L54.6145 10.1176L54.4892 10.1666L54.4891 10.1665ZM55.0779 8.96348L55.2271 9.58152L55.2819 9.75001L55.3603 9.99201L55.4108 10.0653C55.4341 10.1124 55.4356 10.1267 55.4506 10.1807C55.515 10.2672 55.5699 10.3946 55.6332 10.4861C55.7997 10.7269 55.9169 10.827 56.1349 11.0136C56.2137 11.0809 56.3516 11.195 56.4388 11.2458C56.6164 11.0922 56.7432 10.7812 56.79 10.5646C56.846 10.3527 56.8401 10.2266 56.8215 10.003L56.8065 9.80866C56.8017 9.80278 56.7957 9.78518 56.7938 9.7895L56.7265 9.62419C56.7012 9.54498 56.6798 9.4867 56.6594 9.41318L56.4997 9.08463L56.4159 8.94281C56.3585 8.90475 56.3373 8.85383 56.2987 8.79751C56.1041 8.51411 55.8958 8.29888 55.6207 8.08291C55.5406 8.01993 55.3405 7.89904 55.3067 7.84334C55.21 7.80965 55.188 7.78025 55.1006 7.79889C54.9891 8.07733 55.0644 8.63786 55.0779 8.96355L55.0779 8.96348ZM55.2449 6.00117C55.2496 6.00794 55.2557 6.01027 55.2577 6.02273C55.2596 6.03501 55.2673 6.03874 55.2697 6.04422C55.3419 6.20287 55.2537 5.99208 55.2896 6.08815L55.5032 6.80083C55.5169 6.81514 55.7209 7.24919 55.7772 7.33433C55.833 7.41872 55.8872 7.49305 55.9486 7.58085C56.0163 7.67752 56.0873 7.72145 56.1338 7.81342C56.2204 7.87722 56.3538 8.00728 56.4239 8.09508C56.5079 8.12869 56.4261 8.08021 56.5044 8.13709C56.5113 8.14208 56.5307 8.15868 56.5368 8.16431C56.5623 8.18771 56.5601 8.18945 56.5804 8.21331C56.6637 8.23427 56.9967 8.44984 57.1283 8.51401L57.3014 8.08572C57.2676 7.7588 57.3861 7.66394 57.2009 7.12035C57.0673 6.72842 56.8647 6.47883 56.8371 6.38064C56.6841 6.26825 56.6462 6.10979 56.3948 5.91933L55.8616 5.52507C55.6867 5.52425 55.437 5.26568 55.2242 5.36579C55.1384 5.56383 55.2809 5.81382 55.2449 6.00114L55.2449 6.00117ZM55.1392 3.86888C55.1752 3.90398 55.2941 4.13837 55.3382 4.21303C55.6223 4.69465 55.9085 4.92367 56.0389 5.11797C56.0883 5.13902 56.0809 5.12992 56.1092 5.16938C56.2173 5.23136 56.3035 5.35569 56.5886 5.49815C56.7491 5.57836 57.0474 5.6795 57.2394 5.59411C57.3834 5.43184 57.3522 5.08391 57.3036 4.88436C57.2511 4.66883 57.0741 4.38126 57.0573 4.27679C57.0214 4.24572 57.0467 4.28692 56.9944 4.21074C56.9569 4.15619 56.9967 4.23304 56.9655 4.14554C56.9014 4.09613 56.9176 4.09635 56.8669 4.03326C56.834 3.99214 56.8452 4.01714 56.8138 3.97535C56.7627 3.90749 56.7956 3.95427 56.7835 3.90889C56.7514 3.885 56.7611 3.89292 56.7316 3.8657L56.5264 3.63767C56.446 3.61071 56.4738 3.62003 56.3999 3.55465C56.3714 3.52954 56.3586 3.5244 56.3366 3.50576C56.2961 3.47166 56.3124 3.49522 56.3007 3.45931C56.1948 3.42284 56.2371 3.45675 56.1641 3.37691C55.8568 3.21397 55.666 3.1173 55.3068 3.00946L54.8493 2.91664L54.8569 2.92515C54.8468 3.30018 55.0679 3.56999 55.1393 3.86892L55.1392 3.86888Z" fill="#181511"/>
</svg>
