<svg width="86" height="75" viewBox="0 0 86 75" fill="none" xmlns="http://www.w3.org/2000/svg">
<g filter="url(#filter0_d_375_5769)">
<path fill-rule="evenodd" clip-rule="evenodd" d="M30.4898 11.7053L29.8558 13.231L28.1597 12.9493L28.5229 10.9628L30.4898 11.7053ZM41.7566 33.7264C43.4628 33.9459 43.4629 33.9456 43.4629 33.9453L43.4634 33.9421L43.4643 33.9351L43.4676 33.9115C43.4703 33.8915 43.4741 33.8632 43.4788 33.827C43.4882 33.7545 43.5013 33.6502 43.5168 33.5174C43.5478 33.2519 43.5886 32.8718 43.6289 32.4039C43.7093 31.4699 43.789 30.1758 43.7844 28.7374C43.7755 25.9624 43.4594 22.2742 41.9188 19.7199C40.3836 17.1747 37.3938 15.1675 35.0375 13.8568C33.8209 13.1799 32.6929 12.6459 31.8691 12.2808C31.4563 12.0978 31.1175 11.9562 30.8792 11.8594C30.76 11.8109 30.6657 11.7736 30.5998 11.7478C30.5668 11.7348 30.5409 11.7248 30.5224 11.7177L30.5003 11.7093L30.4936 11.7067L30.4905 11.7055C30.4901 11.7054 30.4898 11.7053 29.8558 13.231C28.1597 12.9493 28.1596 12.9497 28.1596 12.95L28.159 12.9532L28.1577 12.9602L28.1537 12.9831C28.1503 13.0024 28.1456 13.0295 28.1397 13.0641C28.128 13.1332 28.1116 13.2324 28.0921 13.3585C28.053 13.6106 28.001 13.9711 27.9474 14.4155C27.8403 15.3021 27.7253 16.5332 27.695 17.9095C27.6365 20.567 27.8789 24.129 29.4275 26.6965C30.9517 29.2235 33.9885 31.3658 36.3956 32.8039C37.6388 33.5465 38.794 34.1473 39.6383 34.5626C40.0612 34.7706 40.4083 34.9331 40.652 35.0447C40.7739 35.1005 40.87 35.1436 40.9371 35.1733C40.9706 35.1882 40.9968 35.1997 41.0154 35.2078L41.0374 35.2174L41.0462 35.2212L41.047 35.2215C41.0473 35.2217 41.0476 35.2218 41.7566 33.7264ZM40.1177 32.9502C41.1081 33.447 41.7566 33.7264 41.7566 33.7264L43.4628 33.9459L43.1536 36.1291L41.0476 35.2218L41.7566 33.7264C41.7566 33.7264 41.8518 33.0544 41.936 31.9906C42.1583 29.1843 42.3043 23.6517 40.4262 20.5378C38.5729 17.4652 33.9601 15.0488 31.4855 13.9226C30.5017 13.4748 29.8558 13.231 29.8558 13.231C29.8558 13.231 29.7366 13.883 29.6214 14.9164C29.3241 17.5815 29.053 22.7831 30.9201 25.8785C32.7844 28.9695 37.5765 31.6755 40.1177 32.9502Z" fill="#3B2F23"/>
<path fill-rule="evenodd" clip-rule="evenodd" d="M30.4898 59.3248L29.8558 57.799L28.1597 58.0807L28.5229 60.0673L30.4898 59.3248ZM41.7566 37.3037C43.4628 37.0841 43.4629 37.0844 43.4629 37.0848L43.4634 37.0879L43.4643 37.0949L43.4676 37.1185C43.4703 37.1385 43.4741 37.1668 43.4788 37.2031C43.4882 37.2756 43.5013 37.3799 43.5168 37.5127C43.5478 37.7781 43.5886 38.1582 43.6289 38.6262C43.7093 39.5602 43.789 40.8543 43.7844 42.2926C43.7755 45.0677 43.4594 48.7559 41.9188 51.3101C40.3836 53.8553 37.3938 55.8626 35.0375 57.1733C33.8209 57.8501 32.6929 58.3842 31.8691 58.7493C31.4563 58.9322 31.1175 59.0738 30.8792 59.1707C30.76 59.2191 30.6657 59.2565 30.5998 59.2823C30.5668 59.2952 30.5409 59.3052 30.5224 59.3123L30.5003 59.3208L30.4936 59.3233L30.4905 59.3245C30.4901 59.3246 30.4898 59.3248 29.8558 57.799C28.1597 58.0807 28.1596 58.0804 28.1596 58.08L28.159 58.0768L28.1577 58.0699L28.1537 58.0469C28.1503 58.0277 28.1456 58.0006 28.1397 57.966C28.128 57.8968 28.1116 57.7976 28.0921 57.6715C28.053 57.4194 28.001 57.0589 27.9474 56.6146C27.8403 55.7279 27.7253 54.4969 27.695 53.1206C27.6365 50.463 27.8789 46.901 29.4275 44.3336C30.9517 41.8065 33.9885 39.6642 36.3956 38.2262C37.6388 37.4835 38.794 36.8827 39.6383 36.4675C40.0612 36.2594 40.4083 36.0969 40.652 35.9854C40.7739 35.9296 40.87 35.8865 40.9371 35.8567C40.9706 35.8419 40.9968 35.8303 41.0154 35.8222L41.0374 35.8126L41.0462 35.8089L41.047 35.8085C41.0473 35.8084 41.0476 35.8082 41.7566 37.3037ZM40.1177 38.0799C41.1081 37.583 41.7566 37.3037 41.7566 37.3037L43.4628 37.0841L43.1536 34.901L41.0476 35.8082L41.7566 37.3037C41.7566 37.3037 41.8518 37.9757 41.936 39.0395C42.1583 41.8457 42.3043 47.3783 40.4262 50.4922C38.5729 53.5648 33.9601 55.9812 31.4855 57.1074C30.5017 57.5552 29.8558 57.799 29.8558 57.799C29.8558 57.799 29.7366 57.147 29.6214 56.1136C29.3241 53.4486 29.053 48.247 30.9201 45.1515C32.7844 42.0605 37.5765 39.3545 40.1177 38.0799Z" fill="#3B2F23"/>
<path fill-rule="evenodd" clip-rule="evenodd" d="M14.6531 36.5918L15.7536 35.3297L14.6807 34.0462L13.0261 35.3028L14.6531 36.5918ZM40.3291 35.4527C41.3496 36.7744 41.3493 36.7746 41.349 36.7748L41.3463 36.7767L41.3403 36.7809L41.3202 36.7949C41.3031 36.8068 41.2788 36.8235 41.2477 36.8448C41.1855 36.8875 41.0958 36.9484 40.981 37.0251C40.7514 37.1784 40.4211 37.3948 40.0096 37.653C39.1884 38.1682 38.0353 38.8556 36.709 39.5416C34.1501 40.8652 30.6033 42.3699 27.513 42.3065C24.4336 42.2433 21.1517 40.7054 18.815 39.3634C17.6083 38.6705 16.5757 37.9832 15.8445 37.4694C15.478 37.2119 15.1852 36.9964 14.9817 36.8435C14.8799 36.7671 14.8003 36.7062 14.7449 36.6634C14.7172 36.642 14.6956 36.6251 14.6802 36.6131L14.6618 36.5987L14.6562 36.5943L14.6536 36.5922C14.6533 36.592 14.6531 36.5918 15.7536 35.3297C14.6807 34.0462 14.681 34.046 14.6813 34.0458L14.6839 34.0438L14.6897 34.0394L14.7089 34.025C14.725 34.0129 14.7477 33.996 14.7767 33.9745C14.8348 33.9315 14.9182 33.8702 15.0249 33.7934C15.2383 33.6398 15.5452 33.4234 15.9285 33.1654C16.6934 32.6506 17.7715 31.964 19.0239 31.2785C21.4424 29.9548 24.8377 28.4491 27.9439 28.5128C31.0014 28.5755 34.4301 30.0879 36.9085 31.4114C38.1884 32.0949 39.2956 32.773 40.0828 33.2799C40.4772 33.5339 40.7933 33.7462 41.0128 33.8965C41.1227 33.9717 41.2085 34.0314 41.268 34.0732C41.2978 34.0942 41.321 34.1106 41.3373 34.1222L41.3567 34.136L41.3625 34.1401L41.3644 34.1415L41.3651 34.142C41.3654 34.1422 41.3656 34.1424 40.3291 35.4527ZM38.8284 34.4542C39.7608 35.0443 40.3291 35.4527 40.3291 35.4527L41.3496 36.7744L43.211 35.4687L41.3656 34.1424L40.3291 35.4527C40.3291 35.4527 39.7561 35.8546 38.8172 36.4353C36.3404 37.9672 31.3174 40.7431 27.55 40.6658C23.8326 40.5896 19.3955 37.8905 17.1719 36.361C16.2878 35.7529 15.7536 35.3297 15.7536 35.3297C15.7536 35.3297 16.2966 34.9173 17.1926 34.3252C19.5034 32.7983 24.1618 30.0767 27.9069 30.1535C31.6466 30.2302 36.4361 32.9402 38.8284 34.4542Z" fill="#3B2F23"/>
<path fill-rule="evenodd" clip-rule="evenodd" d="M55.8923 11.7053L56.5263 13.231L58.2224 12.9493L57.8592 10.9628L55.8923 11.7053ZM44.6255 33.7264C42.9193 33.9459 42.9192 33.9456 42.9192 33.9453L42.9187 33.9421L42.9177 33.9351L42.9145 33.9115C42.9118 33.8915 42.908 33.8632 42.9033 33.827C42.8939 33.7545 42.8808 33.6502 42.8653 33.5174C42.8343 33.2519 42.7935 32.8718 42.7532 32.4039C42.6727 31.4699 42.5931 30.1758 42.5977 28.7374C42.6066 25.9624 42.9227 22.2742 44.4633 19.7199C45.9984 17.1747 48.9883 15.1675 51.3445 13.8568C52.5612 13.1799 53.6892 12.6459 54.513 12.2808C54.9258 12.0978 55.2646 11.9562 55.5029 11.8594C55.6221 11.8109 55.7163 11.7736 55.7823 11.7478C55.8153 11.7348 55.8412 11.7248 55.8597 11.7177L55.8817 11.7093L55.8885 11.7067L55.8916 11.7055C55.892 11.7054 55.8923 11.7053 56.5263 13.231C58.2224 12.9493 58.2224 12.9497 58.2225 12.95L58.2231 12.9532L58.2243 12.9602L58.2284 12.9831C58.2318 13.0024 58.2365 13.0295 58.2424 13.0641C58.2541 13.1332 58.2705 13.2324 58.29 13.3585C58.3291 13.6106 58.3811 13.9711 58.4347 14.4155C58.5418 15.3021 58.6567 16.5332 58.687 17.9095C58.7456 20.567 58.5032 24.129 56.9546 26.6965C55.4304 29.2235 52.3936 31.3658 49.9865 32.8039C48.7433 33.5465 47.588 34.1473 46.7438 34.5626C46.3209 34.7706 45.9738 34.9331 45.7301 35.0447C45.6082 35.1005 45.512 35.1436 45.445 35.1733C45.4115 35.1882 45.3852 35.1997 45.3667 35.2078L45.3447 35.2174L45.3359 35.2212L45.3351 35.2215C45.3348 35.2217 45.3345 35.2218 44.6255 33.7264ZM46.2644 32.9502C45.274 33.447 44.6255 33.7264 44.6255 33.7264L42.9193 33.9459L43.2284 36.1291L45.3345 35.2218L44.6255 33.7264C44.6255 33.7264 44.5303 33.0544 44.446 31.9906C44.2238 29.1843 44.0777 23.6517 45.9559 20.5378C47.8091 17.4652 52.422 15.0488 54.8965 13.9226C55.8804 13.4748 56.5263 13.231 56.5263 13.231C56.5263 13.231 56.6454 13.883 56.7607 14.9164C57.058 17.5815 57.3291 22.7831 55.462 25.8785C53.5977 28.9695 48.8056 31.6755 46.2644 32.9502Z" fill="#3B2F23"/>
<path fill-rule="evenodd" clip-rule="evenodd" d="M55.8923 59.3248L56.5263 57.799L58.2224 58.0807L57.8592 60.0673L55.8923 59.3248ZM44.6255 37.3037C42.9193 37.0841 42.9192 37.0844 42.9192 37.0848L42.9187 37.0879L42.9177 37.0949L42.9145 37.1185C42.9118 37.1385 42.908 37.1668 42.9033 37.2031C42.8939 37.2756 42.8808 37.3799 42.8653 37.5127C42.8343 37.7781 42.7935 38.1582 42.7532 38.6262C42.6727 39.5602 42.5931 40.8543 42.5977 42.2926C42.6066 45.0677 42.9227 48.7559 44.4633 51.3101C45.9984 53.8553 48.9883 55.8626 51.3445 57.1733C52.5612 57.8501 53.6892 58.3842 54.513 58.7493C54.9258 58.9322 55.2646 59.0738 55.5029 59.1707C55.6221 59.2191 55.7163 59.2565 55.7823 59.2823C55.8153 59.2952 55.8412 59.3052 55.8597 59.3123L55.8817 59.3208L55.8885 59.3233L55.8916 59.3245C55.892 59.3246 55.8923 59.3248 56.5263 57.799C58.2224 58.0807 58.2224 58.0804 58.2225 58.08L58.2231 58.0768L58.2243 58.0699L58.2284 58.0469C58.2318 58.0277 58.2365 58.0006 58.2424 57.966C58.2541 57.8968 58.2705 57.7976 58.29 57.6715C58.3291 57.4194 58.3811 57.0589 58.4347 56.6146C58.5418 55.7279 58.6567 54.4969 58.687 53.1206C58.7456 50.463 58.5032 46.901 56.9546 44.3336C55.4304 41.8065 52.3936 39.6642 49.9865 38.2262C48.7433 37.4835 47.588 36.8827 46.7438 36.4675C46.3209 36.2594 45.9738 36.0969 45.7301 35.9854C45.6082 35.9296 45.512 35.8865 45.445 35.8567C45.4115 35.8419 45.3852 35.8303 45.3667 35.8222L45.3447 35.8126L45.3359 35.8089L45.3351 35.8085C45.3348 35.8084 45.3345 35.8082 44.6255 37.3037ZM46.2644 38.0799C45.274 37.583 44.6255 37.3037 44.6255 37.3037L42.9193 37.0841L43.2284 34.901L45.3345 35.8082L44.6255 37.3037C44.6255 37.3037 44.5303 37.9757 44.446 39.0395C44.2238 41.8457 44.0777 47.3783 45.9559 50.4922C47.8091 53.5648 52.422 55.9812 54.8965 57.1074C55.8804 57.5552 56.5263 57.799 56.5263 57.799C56.5263 57.799 56.6454 57.147 56.7607 56.1136C57.058 53.4486 57.3291 48.247 55.462 45.1515C53.5977 42.0605 48.8056 39.3545 46.2644 38.0799Z" fill="#3B2F23"/>
<path fill-rule="evenodd" clip-rule="evenodd" d="M71.729 36.5918L70.6285 35.3297L71.7014 34.0462L73.356 35.3028L71.729 36.5918ZM46.053 35.4527C45.0325 36.7744 45.0331 36.7748 45.0331 36.7748L45.0357 36.7767L45.0417 36.7809L45.0619 36.7949C45.079 36.8068 45.1032 36.8235 45.1344 36.8448C45.1966 36.8875 45.2863 36.9484 45.4011 37.0251C45.6307 37.1784 45.961 37.3948 46.3724 37.653C47.1937 38.1682 48.3468 38.8556 49.6731 39.5416C52.2319 40.8652 55.7788 42.3699 58.8691 42.3065C61.9485 42.2433 65.2303 40.7054 67.5671 39.3634C68.7737 38.6705 69.8064 37.9832 70.5376 37.4694C70.9041 37.2119 71.1969 36.9964 71.4004 36.8435C71.5022 36.7671 71.5818 36.7062 71.6372 36.6634C71.6649 36.642 71.6865 36.6251 71.7019 36.6131L71.7203 36.5987L71.7258 36.5943L71.7285 36.5922C71.7285 36.5922 71.729 36.5918 70.6285 35.3297C71.7014 34.0462 71.7008 34.0458 71.7008 34.0458L71.6981 34.0438L71.6923 34.0394L71.6732 34.025C71.6571 34.0129 71.6344 33.996 71.6054 33.9745C71.5473 33.9315 71.4639 33.8702 71.3571 33.7934C71.1438 33.6398 70.8369 33.4234 70.4535 33.1654C69.6887 32.6506 68.6106 31.964 67.3581 31.2785C64.9397 29.9548 61.5444 28.4491 58.4381 28.5128C55.3807 28.5755 51.952 30.0879 49.4736 31.4114C48.1937 32.0949 47.0865 32.773 46.2993 33.2799C45.9049 33.5339 45.5888 33.7462 45.3693 33.8965C45.2594 33.9717 45.1736 34.0314 45.1141 34.0732C45.0843 34.0941 45.0611 34.1106 45.0448 34.1222L45.0254 34.136L45.0196 34.1401L45.0177 34.1415L45.017 34.142C45.017 34.142 45.0165 34.1424 46.053 35.4527ZM47.5536 34.4542C46.6212 35.0443 46.053 35.4527 46.053 35.4527L45.0325 36.7744L43.1711 35.4687L45.0165 34.1424L46.053 35.4527C46.053 35.4527 46.626 35.8546 47.5649 36.4353C50.0417 37.9672 55.0647 40.7431 58.8321 40.6658C62.5495 40.5896 66.9865 37.8905 69.2102 36.361C70.0943 35.7529 70.6285 35.3297 70.6285 35.3297C70.6285 35.3297 70.0855 34.9173 69.1895 34.3252C66.8787 32.7983 62.2203 30.0767 58.4752 30.1535C54.7355 30.2302 49.946 32.9402 47.5536 34.4542Z" fill="#3B2F23"/>
<path fill-rule="evenodd" clip-rule="evenodd" d="M29.9317 6.10412L29.8245 6.91827L28.9685 6.83169L29.0611 6L29.9317 6.10412ZM30.5877 7.85588C30.5851 7.87982 30.5825 7.9041 30.5799 7.92869C30.5224 8.4647 30.451 9.14521 30.3948 9.72844C30.3398 10.2993 30.2684 11.1161 30.2105 11.7927C30.1816 12.1304 30.1562 12.4323 30.138 12.6498L30.1088 12.9995L28.3925 12.8711L28.4218 12.5192C28.44 12.3011 28.4655 11.9982 28.4945 11.6593C28.5524 10.9826 28.6244 10.1583 28.6804 9.57828C28.7374 8.98669 28.8095 8.29965 28.8671 7.76182C28.896 7.49262 28.9213 7.26024 28.9394 7.09512L28.9685 6.83169L29.8245 6.91827C29.9317 6.10412 29.9315 6.1041 29.9317 6.10412L29.9392 6.10503L29.9576 6.10729C29.9734 6.10925 29.9963 6.11214 30.026 6.11596C30.0853 6.12361 30.1717 6.13503 30.2825 6.15044C30.504 6.18124 30.8232 6.22801 31.2186 6.29241C32.0087 6.42109 33.1064 6.62071 34.3387 6.9049C36.7782 7.46751 39.8424 8.3828 42.0708 9.78983C43.6183 10.7669 45.256 12.3355 46.4791 13.619C47.0975 14.268 47.6231 14.8582 47.9942 15.2863C48.1799 15.5005 48.3274 15.6746 48.4289 15.7958C48.4796 15.8563 48.5189 15.9037 48.5458 15.9363L48.5767 15.9738L48.5849 15.9839L48.5879 15.9875C48.5879 15.9876 48.5882 15.9879 47.9083 16.4911C47.2283 16.9943 47.2283 16.9943 47.2283 16.9944L47.2266 16.9923L47.2201 16.9843L47.1928 16.9511C47.1684 16.9215 47.1316 16.8772 47.0836 16.8199C46.9874 16.7051 46.8461 16.5382 46.667 16.3317C46.3087 15.9183 45.801 15.3482 45.2046 14.7224C43.9979 13.4561 42.4792 12.0161 41.1201 11.158C39.1518 9.91522 36.3305 9.05269 33.9338 8.49994C32.7479 8.22644 31.6897 8.03398 30.9286 7.91002C30.8071 7.89023 30.6932 7.8722 30.5877 7.85588Z" fill="#3B2F23"/>
<path fill-rule="evenodd" clip-rule="evenodd" d="M56.4095 6.10412L56.5167 6.91827L57.3727 6.83169L57.2801 6L56.4095 6.10412ZM55.7535 7.85588C55.756 7.87982 55.7587 7.9041 55.7613 7.92869C55.8188 8.4647 55.8902 9.14521 55.9464 9.72844C56.0014 10.2993 56.0728 11.1161 56.1307 11.7927C56.1596 12.1304 56.185 12.4323 56.2032 12.6498L56.2323 12.9995L57.9487 12.8711L57.9194 12.5192C57.9012 12.3011 57.8757 11.9982 57.8467 11.6593C57.7888 10.9826 57.7167 10.1583 57.6608 9.57828C57.6038 8.98669 57.5317 8.29965 57.474 7.76182C57.4452 7.49262 57.4198 7.26024 57.4017 7.09512L57.3727 6.83169L56.5167 6.91827C56.4095 6.10412 56.4097 6.1041 56.4095 6.10412L56.402 6.10503L56.3836 6.10729C56.3678 6.10925 56.3449 6.11214 56.3152 6.11596C56.2559 6.12361 56.1695 6.13503 56.0587 6.15044C55.8372 6.18124 55.518 6.22801 55.1226 6.29241C54.3325 6.42109 53.2348 6.62071 52.0025 6.9049C49.563 7.46751 46.4988 8.3828 44.2703 9.78983C42.7229 10.7669 41.0852 12.3355 39.8621 13.619C39.2437 14.268 38.7181 14.8582 38.347 15.2863C38.1612 15.5005 38.0138 15.6746 37.9123 15.7958C37.8616 15.8563 37.8223 15.9037 37.7954 15.9363L37.7645 15.9738L37.7563 15.9839L37.7533 15.9875C37.7532 15.9876 37.753 15.9879 38.4329 16.4911C39.1129 16.9943 39.1129 16.9943 39.1128 16.9944L39.1145 16.9923L39.1211 16.9843L39.1484 16.9511C39.1728 16.9215 39.2096 16.8772 39.2576 16.8199C39.3538 16.7051 39.4951 16.5382 39.6742 16.3317C40.0325 15.9183 40.5402 15.3482 41.1366 14.7224C42.3432 13.4561 43.862 12.0161 45.2211 11.158C47.1894 9.91522 50.0106 9.05269 52.4074 8.49994C53.5933 8.22644 54.6514 8.03398 55.4126 7.91002C55.5341 7.89023 55.648 7.8722 55.7535 7.85588Z" fill="#3B2F23"/>
<path fill-rule="evenodd" clip-rule="evenodd" d="M29.9317 64.8959L29.8245 64.0817L28.9685 64.1683L29.0611 65L29.9317 64.8959ZM30.5877 63.1441C30.5851 63.1202 30.5825 63.0959 30.5799 63.0713C30.5224 62.5353 30.451 61.8548 30.3948 61.2716C30.3398 60.7007 30.2684 59.8839 30.2105 59.2073C30.1816 58.8696 30.1562 58.5677 30.138 58.3502L30.1088 58.0005L28.3925 58.1289L28.4218 58.4808C28.44 58.6989 28.4655 59.0018 28.4945 59.3407C28.5524 60.0174 28.6244 60.8417 28.6804 61.4217C28.7374 62.0133 28.8095 62.7004 28.8671 63.2382C28.896 63.5074 28.9213 63.7398 28.9394 63.9049L28.9685 64.1683L29.8245 64.0817C29.9317 64.8959 29.9315 64.8959 29.9317 64.8959L29.9392 64.895L29.9576 64.8927C29.9734 64.8907 29.9963 64.8879 30.026 64.884C30.0853 64.8764 30.1717 64.865 30.2825 64.8496C30.504 64.8188 30.8232 64.772 31.2186 64.7076C32.0087 64.5789 33.1064 64.3793 34.3387 64.0951C36.7782 63.5325 39.8424 62.6172 42.0708 61.2102C43.6183 60.2331 45.256 58.6645 46.4791 57.381C47.0975 56.732 47.6231 56.1418 47.9942 55.7137C48.1799 55.4995 48.3274 55.3254 48.4289 55.2042C48.4796 55.1437 48.5189 55.0963 48.5458 55.0637L48.5767 55.0262L48.5849 55.0161L48.5879 55.0125C48.5879 55.0124 48.5882 55.0121 47.9083 54.5089C47.2283 54.0057 47.2283 54.0057 47.2283 54.0056L47.2266 54.0077L47.2201 54.0157L47.1928 54.0489C47.1684 54.0785 47.1316 54.1228 47.0836 54.1801C46.9874 54.2949 46.8461 54.4618 46.667 54.6683C46.3087 55.0817 45.801 55.6518 45.2046 56.2776C43.9979 57.5439 42.4792 58.9839 41.1201 59.842C39.1518 61.0848 36.3305 61.9473 33.9338 62.5001C32.7479 62.7736 31.6897 62.966 30.9286 63.09C30.8071 63.1098 30.6932 63.1278 30.5877 63.1441Z" fill="#3B2F23"/>
<path fill-rule="evenodd" clip-rule="evenodd" d="M56.4095 64.8959L56.5167 64.0817L57.3727 64.1683L57.2801 65L56.4095 64.8959ZM55.7535 63.1441C55.756 63.1202 55.7587 63.0959 55.7613 63.0713C55.8188 62.5353 55.8902 61.8548 55.9464 61.2716C56.0014 60.7007 56.0728 59.8839 56.1307 59.2073C56.1596 58.8696 56.185 58.5677 56.2032 58.3502L56.2323 58.0005L57.9487 58.1289L57.9194 58.4808C57.9012 58.6989 57.8757 59.0018 57.8467 59.3407C57.7888 60.0174 57.7167 60.8417 57.6608 61.4217C57.6038 62.0133 57.5317 62.7004 57.474 63.2382C57.4452 63.5074 57.4198 63.7398 57.4017 63.9049L57.3727 64.1683L56.5167 64.0817C56.4095 64.8959 56.4097 64.8959 56.4095 64.8959L56.402 64.895L56.3836 64.8927C56.3678 64.8907 56.3449 64.8879 56.3152 64.884C56.2559 64.8764 56.1695 64.865 56.0587 64.8496C55.8372 64.8188 55.518 64.772 55.1226 64.7076C54.3325 64.5789 53.2348 64.3793 52.0025 64.0951C49.563 63.5325 46.4988 62.6172 44.2703 61.2102C42.7229 60.2331 41.0852 58.6645 39.8621 57.381C39.2437 56.732 38.7181 56.1418 38.347 55.7137C38.1612 55.4995 38.0138 55.3254 37.9123 55.2042C37.8616 55.1437 37.8223 55.0963 37.7954 55.0637L37.7645 55.0262L37.7563 55.0161L37.7533 55.0125C37.7532 55.0124 37.753 55.0121 38.4329 54.5089C39.1129 54.0057 39.1129 54.0057 39.1128 54.0056L39.1145 54.0077L39.1211 54.0157L39.1484 54.0489C39.1728 54.0785 39.2096 54.1228 39.2576 54.1801C39.3538 54.2949 39.4951 54.4618 39.6742 54.6683C40.0325 55.0817 40.5402 55.6518 41.1366 56.2776C42.3432 57.5439 43.862 58.9839 45.2211 59.842C47.1894 61.0848 50.0106 61.9473 52.4074 62.5001C53.5933 62.7736 54.6514 62.966 55.4126 63.09C55.5341 63.1098 55.648 63.1278 55.7535 63.1441Z" fill="#3B2F23"/>
<path fill-rule="evenodd" clip-rule="evenodd" d="M63.0477 60.8403L62.2668 60.4951L61.8898 61.2328L62.6786 61.5991L63.0477 60.8403ZM61.8377 59.3811C61.815 59.3705 61.792 59.3597 61.7687 59.3488C61.2615 59.111 60.6184 58.8077 60.0699 58.5438C59.533 58.2855 58.7686 57.91 58.1362 57.598C57.8205 57.4422 57.5385 57.3026 57.3354 57.202L57.0089 57.04L56.2128 58.4951L56.5413 58.658C56.745 58.7589 57.0278 58.899 57.3446 59.0553C57.9773 59.3675 58.7486 59.7464 59.2941 60.0089C59.8505 60.2765 60.4998 60.5827 61.0088 60.8213C61.2635 60.9408 61.4836 61.0436 61.6401 61.1165L61.8898 61.2328L62.2668 60.4951C63.0477 60.8403 63.0477 60.8405 63.0477 60.8403L63.0509 60.8338L63.0586 60.8177C63.0653 60.8039 63.0749 60.7839 63.0872 60.7579C63.1119 60.7059 63.1475 60.63 63.1926 60.5323C63.2827 60.337 63.4104 60.0542 63.5628 59.7006C63.8674 58.9938 64.2721 58.001 64.6729 56.8545C65.4663 54.5848 66.2775 51.6233 66.208 49.0763C66.1597 47.3076 65.6332 45.1523 65.1403 43.4832C64.8911 42.6393 64.6449 41.9016 64.461 41.3746C64.3689 41.1109 64.2923 40.8994 64.2384 40.7532C64.2114 40.68 64.1902 40.6232 64.1755 40.5842L64.1585 40.5393L64.1539 40.5273L64.1522 40.523C64.1522 40.5229 64.152 40.5225 63.3438 40.8051C62.5357 41.0877 62.5357 41.0876 62.5356 41.0876L62.5366 41.0901L62.5402 41.0996L62.5553 41.1392C62.5686 41.1747 62.5885 41.2278 62.614 41.2971C62.6651 41.4356 62.7386 41.6384 62.8273 41.8926C63.0049 42.4014 63.2427 43.114 63.483 43.9279C63.9693 45.5746 64.4445 47.5655 64.4869 49.1189C64.5483 51.3686 63.8191 54.1058 63.0395 56.3357C62.6538 57.439 62.2637 58.3961 61.9703 59.077C61.9234 59.1856 61.8791 59.2872 61.8377 59.3811Z" fill="#3B2F23"/>
<path fill-rule="evenodd" clip-rule="evenodd" d="M77.091 39.4446L76.4237 38.9262L76.9548 38.2804L77.6454 38.7963L77.091 39.4446ZM75.185 39.0456C75.1651 39.0308 75.1449 39.0158 75.1244 39.0006C74.6782 38.6699 74.1108 38.2513 73.6219 37.8965C73.1434 37.5493 72.4548 37.0584 71.8837 36.6528C71.5986 36.4503 71.3436 36.2696 71.1599 36.1396L70.8642 35.9306L71.8888 34.6117L72.1862 34.822C72.3705 34.9525 72.6264 35.1337 72.9124 35.3369C73.4836 35.7426 74.1785 36.238 74.6647 36.5908C75.1607 36.9506 75.7335 37.3733 76.1813 37.7051C76.4054 37.8712 76.5986 38.015 76.7359 38.1172L76.9548 38.2804L76.4237 38.9262C77.091 39.4446 77.0911 39.4444 77.091 39.4446L77.0862 39.4501L77.0745 39.4638C77.0643 39.4755 77.0496 39.4925 77.0305 39.5145C76.9922 39.5584 76.9362 39.6221 76.8638 39.7034C76.7189 39.8661 76.508 40.0992 76.241 40.3846C75.7075 40.9548 74.9478 41.7359 74.0414 42.581C72.2472 44.2538 69.8079 46.2445 67.3746 47.299C65.6848 48.0312 63.4211 48.5226 61.6309 48.8302C60.7256 48.9857 59.922 49.0974 59.3443 49.1702C59.0553 49.2067 58.8223 49.2335 58.6607 49.2512C58.5799 49.2601 58.5169 49.2668 58.4737 49.2712L58.424 49.2763L58.4106 49.2776L58.4059 49.2781C58.4057 49.2781 58.4053 49.2781 58.3184 48.4618C58.2315 47.6454 58.2314 47.6454 58.2314 47.6454L58.2342 47.6452L58.2447 47.6441L58.2887 47.6397C58.328 47.6356 58.3869 47.6294 58.4634 47.621C58.6164 47.6042 58.8399 47.5785 59.1185 47.5433C59.6762 47.473 60.4525 47.3651 61.3254 47.2151C63.0917 46.9117 65.1779 46.4482 66.662 45.8051C68.8113 44.8737 71.0747 43.0514 72.8375 41.4078C73.7097 40.5946 74.4422 39.8416 74.9561 39.2923C75.0382 39.2046 75.1146 39.1222 75.185 39.0456Z" fill="#3B2F23"/>
<path fill-rule="evenodd" clip-rule="evenodd" d="M9.56869 39.0676L10.2548 38.5721L9.74813 37.9087L9.03878 38.401L9.56869 39.0676ZM11.4883 38.7333C11.5088 38.7192 11.5295 38.7049 11.5505 38.6904C12.0088 38.375 12.5914 37.9758 13.0932 37.6377C13.5843 37.3069 14.2907 36.8395 14.8765 36.4535C15.169 36.2608 15.4305 36.0888 15.619 35.9651L15.9222 35.7662L14.9473 34.4135L14.6423 34.6137C14.4532 34.7378 14.1908 34.9103 13.8974 35.1037C13.3115 35.4898 12.5986 35.9614 12.0995 36.2976C11.5905 36.6405 11.0024 37.0435 10.5425 37.36C10.3124 37.5184 10.1139 37.6555 9.97295 37.753L9.74813 37.9087L10.2548 38.5721C9.56869 39.0676 9.56858 39.0675 9.56869 39.0676L9.57326 39.0733L9.5845 39.0874C9.59419 39.0995 9.60827 39.1169 9.62658 39.1395C9.6632 39.1847 9.71678 39.2503 9.78616 39.334C9.9249 39.5015 10.127 39.7416 10.3832 40.0357C10.8952 40.6236 11.6254 41.4299 12.4997 42.3051C14.2307 44.0375 16.5944 46.1093 18.987 47.2453C20.6484 48.0342 22.8925 48.6017 24.6702 48.9696C25.5691 49.1556 26.368 49.2943 26.9426 49.3867C27.2301 49.4328 27.462 49.4675 27.6228 49.4907C27.7032 49.5023 27.7659 49.5111 27.8089 49.517L27.8585 49.5237L27.8717 49.5255L27.8765 49.5261C27.8766 49.5261 27.8771 49.5262 27.9943 48.7133C28.1114 47.9004 28.1115 47.9004 28.1116 47.9004L28.1088 47.9001L28.0983 47.8987L28.0545 47.8927C28.0154 47.8873 27.9568 47.8792 27.8806 47.8682C27.7283 47.8462 27.5059 47.813 27.2288 47.7684C26.6741 47.6793 25.9023 47.5453 25.0354 47.3659C23.2816 47.003 21.2139 46.4693 19.7546 45.7764C17.6414 44.773 15.4471 42.8754 13.7465 41.1733C12.9051 40.3312 12.2011 39.5539 11.7079 38.9876C11.6292 38.8972 11.5559 38.8122 11.4883 38.7333Z" fill="#3B2F23"/>
<path fill-rule="evenodd" clip-rule="evenodd" d="M22.8076 60.9243L23.6009 60.6057L23.9503 61.3556L23.1484 61.695L22.8076 60.9243ZM24.0712 59.5069C24.0943 59.497 24.1176 59.4871 24.1413 59.4769C24.657 59.2564 25.311 58.9751 25.869 58.7299C26.4152 58.4899 27.193 58.1404 27.8367 57.8499C28.158 57.7049 28.445 57.5749 28.6517 57.4812L28.984 57.3304L29.7255 58.8114L29.3912 58.9632C29.1839 59.0572 28.896 59.1875 28.5735 59.3331C27.9297 59.6237 27.1448 59.9763 26.5898 60.2202C26.0238 60.4689 25.3635 60.7529 24.8461 60.9742C24.587 61.085 24.3632 61.1803 24.2042 61.2479L23.9503 61.3556L23.6009 60.6057C22.8076 60.9243 22.8077 60.9245 22.8076 60.9243L22.8047 60.9177L22.7976 60.9014C22.7915 60.8873 22.7826 60.867 22.7713 60.8406C22.7485 60.7878 22.7157 60.7107 22.6743 60.6116C22.5916 60.4133 22.4745 60.1265 22.3353 59.7679C22.0571 59.0513 21.6897 58.0454 21.3317 56.8861C20.6232 54.591 19.9226 51.604 20.0868 49.0609C20.2008 47.295 20.8071 45.1588 21.3618 43.5075C21.6422 42.6724 21.9156 41.9435 22.119 41.4231C22.2208 41.1627 22.3053 40.9539 22.3646 40.8096C22.3943 40.7374 22.4176 40.6813 22.4338 40.6428L22.4524 40.5985L22.4575 40.5867L22.4593 40.5825C22.4593 40.5823 22.4595 40.5819 23.2567 40.8916C24.0538 41.2014 24.0538 41.2013 24.0539 41.2013L24.0528 41.2037L24.0488 41.2131L24.0323 41.2522C24.0177 41.2872 23.9958 41.3397 23.9677 41.408C23.9115 41.5447 23.8305 41.7449 23.7324 41.996C23.536 42.4984 23.2719 43.2025 23.0015 44.0078C22.4543 45.637 21.9053 47.6107 21.8052 49.1617C21.6602 51.4078 22.2872 54.1679 22.9834 56.4228C23.3278 57.5384 23.682 58.5082 23.95 59.1984C23.9928 59.3086 24.0333 59.4116 24.0712 59.5069Z" fill="#3B2F23"/>
<path fill-rule="evenodd" clip-rule="evenodd" d="M76.6837 31.8583L75.9902 32.3444L76.4869 33.0146L77.2036 32.532L76.6837 31.8583ZM74.7593 32.1664C74.7386 32.1802 74.7176 32.1942 74.6964 32.2084C74.2334 32.5176 73.6449 32.9088 73.1381 33.2399C72.642 33.564 71.9287 34.0217 71.3372 34.3997C71.0419 34.5884 70.7777 34.7568 70.5874 34.878L70.2813 35.0727L71.2358 36.4385L71.5438 36.2426C71.7346 36.121 71.9996 35.9521 72.2959 35.7628C72.8876 35.3847 73.6075 34.9228 74.1115 34.5935C74.6256 34.2576 75.2198 33.8626 75.6843 33.5524C75.9168 33.3971 76.1173 33.2628 76.2597 33.1672L76.4869 33.0146L75.9902 32.3444C76.6837 31.8583 76.6838 31.8584 76.6837 31.8583L76.6792 31.8525L76.6682 31.8383C76.6587 31.8261 76.6449 31.8084 76.6269 31.7856C76.591 31.7399 76.5384 31.6736 76.4703 31.5889C76.334 31.4196 76.1356 31.1768 75.8838 30.8791C75.3807 30.2843 74.6627 29.4681 73.8016 28.5812C72.0968 26.8253 69.7645 24.7215 67.3892 23.5529C65.7397 22.7415 63.5045 22.1434 61.7325 21.7513C60.8364 21.553 60.0396 21.4034 59.4665 21.3033C59.1797 21.2532 58.9484 21.2153 58.7879 21.1899C58.7077 21.1772 58.6452 21.1676 58.6023 21.1611L58.5528 21.1537L58.5396 21.1518L58.5348 21.1511C58.5347 21.1511 58.5342 21.151 58.4049 21.9622C58.2755 22.7734 58.2754 22.7734 58.2754 22.7734L58.2781 22.7738L58.2886 22.7753L58.3323 22.7819C58.3714 22.7878 58.4298 22.7968 58.5058 22.8088C58.6578 22.8329 58.8796 22.8691 59.1561 22.9174C59.7094 23.0141 60.4791 23.1587 61.3432 23.3499C63.0914 23.7367 65.1508 24.2985 66.5995 25.0112C68.6975 26.0433 70.8631 27.9707 72.538 29.6958C73.3666 30.5493 74.0588 31.3361 74.5435 31.9091C74.6209 32.0006 74.6929 32.0866 74.7593 32.1664Z" fill="#3B2F23"/>
<path fill-rule="evenodd" clip-rule="evenodd" d="M63.7744 9.82321L62.9764 10.131L62.6383 9.37635L63.4453 9.04791L63.7744 9.82321ZM62.4896 11.2232C62.4664 11.2328 62.4429 11.2424 62.4191 11.2522C61.9001 11.4657 61.242 11.7381 60.6803 11.9757C60.1306 12.2082 59.3476 12.547 58.6997 12.8287C58.3762 12.9693 58.0873 13.0954 57.8792 13.1862L57.5447 13.3325L56.8255 11.8415L57.162 11.6943C57.3707 11.6032 57.6606 11.4767 57.9852 11.3356C58.6333 11.0538 59.4234 10.7119 59.982 10.4757C60.5517 10.2347 61.2161 9.95972 61.7369 9.74549C61.9976 9.63827 62.2228 9.54604 62.3828 9.48061L62.6383 9.37635L62.9764 10.131C63.7744 9.82321 63.7743 9.82305 63.7744 9.82321L63.7772 9.82988L63.7841 9.84627C63.79 9.86039 63.7985 9.88087 63.8095 9.90742C63.8314 9.96054 63.8631 10.038 63.9029 10.1377C63.9827 10.3371 64.0955 10.6255 64.2293 10.9859C64.4967 11.7063 64.849 12.7171 65.1895 13.8811C65.8635 16.1856 66.5191 19.1819 66.3168 21.7225C66.1763 23.4867 65.5379 25.6144 64.9585 27.258C64.6656 28.0891 64.3813 28.8142 64.17 29.3318C64.0644 29.5908 63.9768 29.7984 63.9153 29.9419C63.8846 30.0137 63.8603 30.0695 63.8436 30.1077L63.8243 30.1517L63.8191 30.1635L63.8172 30.1677C63.8172 30.1678 63.817 30.1682 63.0246 29.8477C62.2321 29.5271 62.2321 29.5272 62.2321 29.5272L62.2332 29.5248L62.2373 29.5155L62.2544 29.4766C62.2696 29.4418 62.2922 29.3896 62.3213 29.3217C62.3796 29.1857 62.4636 28.9867 62.5655 28.737C62.7694 28.2373 63.044 27.5368 63.3265 26.7353C63.8981 25.1138 64.4767 23.1478 64.6 21.5983C64.7787 19.3544 64.1933 16.586 63.531 14.3219C63.2034 13.2016 62.8638 12.2272 62.6062 11.5333C62.5651 11.4225 62.5261 11.319 62.4896 11.2232Z" fill="#3B2F23"/>
<path fill-rule="evenodd" clip-rule="evenodd" d="M23.857 9.73182L24.6234 10.1055L25.03 9.38234L24.2567 8.98725L23.857 9.73182ZM25.007 11.2345C25.0292 11.246 25.0517 11.2576 25.0746 11.2693C25.5717 11.5257 26.2021 11.8524 26.7395 12.1363C27.2655 12.4142 28.0141 12.8176 28.6334 13.1528C28.9426 13.3201 29.2187 13.4699 29.4175 13.578L29.7372 13.7518L30.5917 12.3272L30.2701 12.1523C30.0707 12.0439 29.7937 11.8936 29.4835 11.7257C28.864 11.3904 28.1086 10.9833 27.5741 10.701C27.029 10.413 26.3926 10.0832 25.8937 9.82593C25.644 9.69718 25.4282 9.58636 25.2748 9.5077L25.03 9.38234L24.6234 10.1055C23.857 9.73182 23.8571 9.73167 23.857 9.73182L23.8536 9.73823L23.8452 9.75398C23.838 9.76755 23.8276 9.78722 23.8142 9.81275C23.7875 9.86381 23.7488 9.93832 23.6998 10.0343C23.6018 10.2261 23.4628 10.5039 23.2961 10.8517C22.963 11.5467 22.5184 12.5239 22.0714 13.6548C21.1865 15.8935 20.2559 18.8229 20.222 21.3706C20.1985 23.1397 20.6372 25.3128 21.062 26.9988C21.2768 27.8513 21.4929 28.5975 21.6553 29.1309C21.7366 29.3978 21.8046 29.6119 21.8525 29.7601C21.8765 29.8341 21.8954 29.8918 21.9085 29.9313L21.9237 29.9767L21.9278 29.9889L21.9293 29.9932C21.9293 29.9933 21.9294 29.9938 22.7485 29.7412C23.5675 29.4886 23.5675 29.4886 23.5675 29.4887L23.5667 29.4861L23.5635 29.4765L23.55 29.4363C23.5381 29.4004 23.5204 29.3466 23.4977 29.2764C23.4523 29.1361 23.3871 28.9307 23.3087 28.6735C23.1519 28.1585 22.9432 27.4377 22.7361 26.6156C22.317 24.9522 21.9229 22.9452 21.9435 21.3914C21.9734 19.1412 22.8131 16.4329 23.6825 14.2334C24.1127 13.1451 24.5413 12.2031 24.8621 11.5336C24.9134 11.4267 24.9618 11.3268 25.007 11.2345Z" fill="#3B2F23"/>
<path fill-rule="evenodd" clip-rule="evenodd" d="M8.95652 30.594L9.60226 31.1367L9.04544 31.7624L8.37627 31.2214L8.95652 30.594ZM10.8449 31.063C10.8642 31.0785 10.8838 31.0942 10.9036 31.1101C11.3361 31.457 11.8861 31.8963 12.3603 32.2688C12.8243 32.6334 13.4925 33.1493 14.0467 33.5756C14.3234 33.7885 14.5709 33.9784 14.7492 34.1151L15.0361 34.3349L13.9588 35.615L13.6702 35.3939C13.4913 35.2567 13.243 35.0662 12.9654 34.8527C12.411 34.4262 11.7368 33.9056 11.2652 33.5351C10.7843 33.1572 10.229 32.7138 9.79504 32.3657C9.57783 32.1915 9.39055 32.0407 9.25754 31.9335L9.04544 31.7624L9.60226 31.1367C8.95652 30.594 8.9564 30.5942 8.95652 30.594L8.96152 30.5887L8.97381 30.5755C8.98442 30.5641 8.99981 30.5477 9.01983 30.5264C9.05986 30.484 9.11839 30.4223 9.19408 30.3437C9.34545 30.1865 9.56564 29.9614 9.84399 29.6861C10.4003 29.1359 11.1911 28.3834 12.131 27.5724C13.9918 25.9669 16.51 24.0676 18.9843 23.1036C20.7024 22.4342 22.9844 22.0266 24.7858 21.7852C25.6967 21.6631 26.5042 21.5812 27.0844 21.5297C27.3747 21.5039 27.6087 21.4857 27.7708 21.4739C27.8519 21.468 27.9151 21.4637 27.9585 21.4608L28.0084 21.4576L28.0218 21.4568L28.0266 21.4565C28.0267 21.4565 28.0272 21.4565 28.0809 22.2754C28.1346 23.0943 28.1346 23.0943 28.1347 23.0943L28.1319 23.0945L28.1213 23.0951L28.0772 23.098C28.0377 23.1006 27.9787 23.1046 27.9019 23.1102C27.7483 23.1214 27.5239 23.1388 27.2441 23.1636C26.684 23.2134 25.9039 23.2926 25.0255 23.4103C23.2482 23.6484 21.1448 24.0347 19.6357 24.6226C17.4503 25.4741 15.1146 27.2116 13.2864 28.789C12.3819 29.5695 11.6195 30.2949 11.0837 30.8249C10.9981 30.9095 10.9184 30.989 10.8449 31.063Z" fill="#3B2F23"/>
</g>
<defs>
<filter id="filter0_d_375_5769" x="0" y="0" width="86" height="75" filterUnits="userSpaceOnUse" color-interpolation-filters="sRGB">
<feFlood flood-opacity="0" result="BackgroundImageFix"/>
<feColorMatrix in="SourceAlpha" type="matrix" values="0 0 0 0 0 0 0 0 0 0 0 0 0 0 0 0 0 0 127 0" result="hardAlpha"/>
<feOffset dy="2"/>
<feGaussianBlur stdDeviation="4"/>
<feComposite in2="hardAlpha" operator="out"/>
<feColorMatrix type="matrix" values="0 0 0 0 0.694118 0 0 0 0 0.580392 0 0 0 0 0.447059 0 0 0 0.75 0"/>
<feBlend mode="normal" in2="BackgroundImageFix" result="effect1_dropShadow_375_5769"/>
<feBlend mode="normal" in="SourceGraphic" in2="effect1_dropShadow_375_5769" result="shape"/>
</filter>
</defs>
</svg>
